<?xml version="1.0" standalone="no"?>
<!DOCTYPE svg PUBLIC "-//W3C//DTD SVG 1.1//EN" "http://www.w3.org/Graphics/SVG/1.1/DTD/svg11.dtd" >
<svg xmlns="http://www.w3.org/2000/svg" xmlns:xlink="http://www.w3.org/1999/xlink" version="1.1">
<metadata>
Created by FontForge 20170731 at Wed Dec 23 05:39:55 2020
 By Aleksey,,,
Copyright 2020 Lipighor. All Rights Reserved.
</metadata>
<defs>
<font id="LiSirajeeSheikhUnicode" horiz-adv-x="0" >
  <font-face 
    font-family="Li Sirajee Sheikh Unicode"
    font-weight="400"
    font-stretch="normal"
    units-per-em="1000"
    panose-1="2 0 6 0 0 0 0 0 0 0"
    ascent="800"
    descent="-200"
    x-height="475"
    cap-height="621"
    bbox="-627 -376 1949 922"
    underline-thickness="40"
    underline-position="-160"
    unicode-range="U+0020-FDFA"
  />
<missing-glyph horiz-adv-x="587" 
d="M389 421h-60l-152 -53v-309h212v136h-76v-66h-56v194l56 19v-86h76v66l59 20v-196l15 -87h65v362h-63l-76 -25v25zM453 491v-43h75v117h-261l-208 -61v-445h84v389l92 29zM587 0h-587v624h587v-624z" />
    <glyph glyph-name="sallallahoualayhewasallam_arab.isol" unicode="&#xfdfa;" horiz-adv-x="1996" arabic-form="isolated" 
d="M485 18h-82q29 -21 45.5 -45.5t16.5 -52.5l-32 -21l-45 -26q32 -10 69.5 -27.5t72.5 -47.5q1 -1 2 -1q3 0 3 3q0 4 -6.5 9.5t-15.5 11.5t-17 11t-11 7v179zM924 18h-95q27 -20 41.5 -49t17.5 -57q22 -6 44.5 -19.5t40.5 -39.5q1 -1 3 -1q3 0 3 3q0 7 -7 15t-16.5 15
t-18.5 13t-13 8v112zM297 836h-105q31 -24 47 -54.5t19 -61.5q8 -2 18 -6.5t21 -9.5v1q30 -17 53 -50q2 -2 3 -2q4 0 4 4q0 1 -1 2q-26 36 -59 53v124zM1843 18h-79q24 -19 34.5 -36.5t10.5 -36.5v-8q23 -8 43.5 -23.5t37.5 -41.5q1 -1 3 -1q3 0 3 3v2q-22 33 -53 52v90z
M391 -169h1l2 -1q2 -1 10 -1q5 0 9.5 1t9.5 1q11 0 18 -10t7 -22q0 -11 -8.5 -20.5t-26.5 -9.5q-17 0 -26 10.5t-9 21.5t3 17.5t6 9.5t4.5 3.5t-1.5 -0.5h1zM220 -178q12 4 20 12t8 16q0 5 -5 10t-13 5q-9 0 -19 -5.5t-16 -10.5l-5 -5l-54 25q0 14 8.5 27.5t18 26t18 24.5
t8.5 23q0 8 -8 20.5t-24 12.5h-7h-3q16 -8 16 -26q0 -10 -11 -25t-34 -15q-17 0 -31 12t-16 34q0 3 4.5 7.5t10.5 11t12 16t9 24.5h64q8 -1 20.5 -5t24 -11.5t20 -19.5t8.5 -28q0 -15 -5 -30.5t-11 -28.5t-11.5 -21.5l-5.5 -8.5q0 -4 3 -4q1 0 2 1l20 24q28 -5 47.5 -23
t19.5 -48q0 -11 -5 -25t-18 -27.5t-34 -22.5t-52 -9q-23 0 -43.5 5.5t-38 13.5t-31 17.5t-22.5 18.5l-12 11l36 83q28 -54 57 -70.5t51 -16.5q9 0 16.5 1.5t12.5 3.5zM1270 161q34 1 66 6l113 -50l-59 -51l-229 108l3 6l36 77q23 -13 44.5 -17.5t38.5 -4.5q35 0 57 14t22 35
q0 7 -3 15t-9 15.5t-14.5 13t-19.5 6.5q-4 0 -5 1l-5 -4q7 -10 7 -21q0 -17 -17 -31t-40 -14q-20 0 -39 12t-19 37q0 5 3 10t7.5 12t9 17.5t7.5 28.5h92q11 0 24.5 -4.5t26 -11t24 -14t17.5 -14.5q13 -14 18.5 -30.5t5.5 -30.5q0 -37 -29 -66.5t-75 -37.5l-5 -1
q-5 0 -14 -0.5t-19 -1.5t-17 -2.5t-7 -3.5q0 -3 3 -3zM603 395v-297l-81 -17v276q-9 24 -19.5 31t-13.5 7h-35v-286l-56 46q-16 39 -31 56t-30 23q-4 -7 -7 -12t-6 -9l-6 -7q-17 -19 -45 -30t-61 -11q-27 0 -49.5 6.5t-40.5 16t-31.5 20.5t-22.5 20v1l-12 13l52 125
q7 -37 19 -62t27 -40.5t31 -22t32 -6.5q32 0 52 18t20 38q0 13 -4.5 22.5t-11 15t-13 8t-10.5 3.5h-4l-1 1l3 -5q5 -5 10 -14t5 -21q0 -14 -12.5 -30t-35.5 -16q-21 0 -38.5 14t-17.5 33q0 7 3 13q11 23 15 36.5t4 21.5q0 3 -0.5 5t-0.5 3l97 1q36 -19 53.5 -46t18.5 -56
l19 -8q15 -7 32 -20.5t28 -30.5q2 -2 3 -2q3 0 3 3q0 1 -1 2q-25 36 -58 52v118h-305v26h422q15 0 26 -6h1q1 -1 3 -1q31 -15 48 -59q1 -3 3 -3q1 0 3 2q0 1 1 3v1q-19 47 -55 63v10l81 16v-26h417q7 0 14 -3t13 -3l2 -2q30 -13 49 -58q1 -3 3 -3q3 0 3 4v1q-19 49 -55 64
v10l82 15v-25h180q4 4 7.5 10.5t3.5 14.5q0 22 -22.5 31.5t-50.5 9.5q-16 0 -31 -2t-26 -4h-1q-12 -3 -15 -3l-19 21q2 1 15.5 4.5t33 7t41.5 6.5t41 4q39 -1 65.5 -8t43.5 -18.5t24.5 -25.5t7.5 -28q0 -3 -0.5 -5.5t-0.5 -4.5l-88 -10l108 -1q13 0 26 -5l4 -2
q29 -13 48 -58q1 -3 3 -3q3 0 3 4v1q-9 21 -21 33.5t-23 23t-18.5 22.5t-7.5 32q0 13 7.5 29t26.5 30t51 23t82 9q33 0 60 -5t45 -12h1l1 -1h1q1 0 1 -1h2l1 -1h1h1q0 -1 8 -4.5t7 -1.5h1l-33 -26l-1 1l-11 4q-10 5 -23.5 8t-30.5 3q-13 0 -30.5 -3.5t-33.5 -11t-27 -20
t-11 -30.5q0 -12 3.5 -22t7.5 -16h321v-25h-331v-297l-81 53v206q-9 25 -20.5 31.5t-13.5 6.5h-313v-297l-82 -17v276q-5 17 -12 25t-13 10.5t-8.5 2.5t0.5 0h-30v-295l-81 51v79q-12 8 -23 8q-9 0 -15.5 -5.5t-11 -13t-7.5 -16t-4 -14.5v-1q-1 -2 -1 -5v-2v-1l-62 36
q0 35 -13.5 61t-45.5 26q-12 0 -26.5 -9t-14.5 -22q0 -5 1 -7v-2h1q3 9 12 15.5t20 6.5q4 0 11.5 -2.5t14 -8.5t11.5 -15.5t5 -22.5q0 -19 -14 -35t-40 -18q-5 0 -10 4.5t-12 11t-18.5 12.5t-29.5 9v69q3 11 11.5 23.5t22.5 23.5t32.5 18t39.5 7q32 0 57.5 -17.5t39.5 -48.5
q23 26 51 26q39 0 68 -43q1 -1 3 -1q4 0 4 3q0 1 -1 2q-25 34 -56 43v70h-302zM557 18v-272l-15 12q-12 9 -26 17t-27.5 15.5t-24 14.5t-14.5 15q-10 18 -27 20q-5 0 -9.5 -1.5t-9.5 -1.5q-6 0 -8 1h-2h-1l-5 2l-4 -4q0 -2 -1 -3q-1 -2 -2 -2.5t-2 -2.5q-10 2 -21 3.5
t-22 3.5l-38 74l14 8q14 8 34.5 21t45.5 25q-16 33 -43 55h-78v23h41q-9 5 -22 10l19 20q32 -15 59 -30h224q12 0 21 -4v-1q7 0 15 -9t15 -19.5t12 -19.5t8 -9t3 3v2q-18 44 -50 58v9l74 14v-24h40l-13 9l25 15q11 -5 23.5 -11t25.5 -13h242q23 0 39.5 -16.5t27.5 -43.5
q2 -2 3 -2q3 0 3 3v1q-18 45 -50 59v9l74 14v-24h387q12 0 24 -5h1q7 0 15 -9t14.5 -19.5t12 -19.5t8.5 -9t3 3q0 1 -1 1q-17 45 -49 59v9l74 14v-24h42l-8 4t-9 4l18 19q36 -13 64 -27h223v-23h-33v-270l-73 47v18q-3 14 -11 28t-19.5 25t-26 17.5t-30.5 6.5
q-20 0 -28.5 -8t-8.5 -13q0 -2 0.5 -2.5t0.5 -2.5q11 13 33 13q6 0 15 -3t16.5 -9t13 -15.5t5.5 -22.5q0 -20 -18 -34.5t-47 -14.5q-12 0 -18.5 5.5t-13.5 14.5t-19.5 19t-36.5 19l19 67q5 9 22.5 20.5t44.5 17.5q1 5 1 14q0 17 -7.5 32.5t-27.5 30.5h-83v-272l-74 49v188
q-8 18 -15.5 26t-12.5 8l-2 1h-1h-31v-318l-74 40v12q-12 6 -18 6q-11 0 -15 -9.5t-6 -15.5v-3l-47 12q0 22 -8.5 39.5t-30.5 17.5q-11 0 -20 -6.5t-9 -18.5l1 -1q2 5 8.5 9.5t14.5 4.5q6 0 17 -6.5t11 -23.5q0 -13 -10 -23.5t-27 -12.5q-4 0 -7.5 3t-8 7t-12.5 8t-21 6
l1 45q1 7 7 15.5t15.5 15.5t22.5 11.5t27 4.5q22 0 39.5 -11.5t27.5 -31.5q15 16 34 16q4 0 14 -2v1q3 -1 8.5 -5t11 -8.5t10 -8.5t6.5 -4q3 0 3 3q0 5 -5 10t-12 9t-13 6.5t-9 3.5v52q-13 8 -22 8q-8 0 -14.5 -6.5t-11 -15t-7 -17t-2.5 -13.5l-1 -1l-56 32q0 13 -2 27
t-7.5 26t-15.5 20t-26 8q-11 0 -25.5 -8.5t-14.5 -23.5q0 -3 1 -4l1 -2q3 8 11.5 14.5t18.5 6.5q4 0 10.5 -2.5t12.5 -8t10 -14t4 -20.5q0 -17 -13 -32t-36 -17q-5 0 -9 4.5t-11 10t-17 11t-27 8.5l1 62q1 11 9 22.5t21.5 21.5t30.5 16t35 6q30 0 53 -16t36 -43q20 23 45 23
q34 0 64 -38l2 -2q4 0 4 3q0 1 -1 2q-23 31 -51 39v64h-279v-272l-74 49v188q-6 18 -14.5 26t-13.5 8l-2 1h-1h-27v-270l-74 47v37q-18 27 -40 35q-14 -54 -65 -88l-99 52q53 18 72 45t19 53q0 28 -13.5 51.5t-32.5 37.5h-75v-272l-74 49v188q-8 18 -15.5 25.5t-12.5 9.5h-2
h-1h-28zM1588 861h355v-25h-355v-262l-81 -17v276q-10 23 -22 32q-6 4 -12 6h-34v-348l-81 44v12q-11 8 -19 8t-12.5 -5t-7.5 -10.5t-3.5 -10.5l-0.5 -5l-51 14q0 23 -9.5 42t-33.5 19q-11 0 -21.5 -7t-9.5 -20l1 -1q5 16 23 16q7 0 19.5 -7.5t12.5 -26.5q0 -14 -10.5 -25.5
t-29.5 -13.5q-4 0 -7.5 3.5t-8.5 8t-14 8.5t-23 6l1 49q1 7 7.5 16t17 17t24.5 13t29 5q25 0 43.5 -12.5t29.5 -34.5q16 19 39 19q28 0 50 -29q1 -1 3 -1q4 0 4 3q0 6 -6 11.5t-13.5 10t-14.5 7.5t-9 3v58q-11 7 -22 7t-18.5 -7.5t-12.5 -17.5t-7 -19t-2 -13v-1l-62 36
q0 16 -3 31.5t-9.5 28t-18 20t-27.5 7.5q-12 0 -27 -9t-15 -23q0 -4 1 -6l1 -2q3 10 11.5 16t19.5 6q5 0 12.5 -2.5t14 -8.5t11.5 -15.5t5 -22.5q0 -19 -14 -35t-40 -18q-5 0 -9.5 5t-11.5 11t-18.5 12t-30.5 9v68q2 12 11 24.5t23 23.5t32 18t39 7q32 0 58 -18t40 -48
q21 25 50 25q18 0 36.5 -10.5t32.5 -31.5q1 -1 3 -1q4 0 4 3q0 1 -1 2q-25 34 -56 43v70h-304v-390l-81 -17v369q-8 23 -19 30.5t-14 7.5h-32l2 26h33q26 0 45.5 -18t32.5 -48q2 -2 3 -2q4 0 4 3q0 1 -1 1q-19 49 -54 64v10l81 15v-25h423q26 0 45.5 -18t32.5 -48q0 -2 3 -2
q4 0 4 3q0 1 -1 1q-19 49 -54 64v10l81 15v-25h29v-26h-29v-10zM527 861h417v-25h-34v-349l-82 45v12q-10 7 -19 7q-8 0 -12 -4t-6 -9t-3 -10t-3 -7v-1l-51 13q0 26 -9.5 44t-32.5 18q-8 0 -20 -6t-12 -16v-5l1 -1q2 6 9 11t16 5q7 0 18.5 -8t11.5 -26q0 -14 -10 -25.5
t-30 -13.5q-4 0 -7.5 3.5t-8.5 8t-14 8.5t-23 6l1 49q1 8 7.5 17t17.5 16.5t25 12.5t29 5q51 0 73 -46q16 18 38 18q29 0 51 -29q0 -1 2 -1q4 0 4 3q0 6 -5.5 11.5t-13 10t-14.5 7t-10 3.5v57q-12 8 -23 8q-9 0 -15.5 -5.5t-11 -13t-7.5 -16t-4 -14.5v-1q-1 -3 -1 -6v-1
l-62 35q0 34 -13 60.5t-45 26.5q-16 0 -28.5 -10t-12.5 -29l1 -1q4 9 13 15.5t20 6.5q10 0 25.5 -11t15.5 -37q0 -20 -14 -36t-40 -18q-5 0 -9.5 5t-12 11t-18.5 12t-30 9l1 69q1 10 9.5 23t22.5 23.5t33 18t40 7.5q33 0 58 -17.5t39 -48.5q23 26 51 26q38 0 69 -43
q1 -1 2 -1q4 0 4 4q0 1 -1 2q-26 35 -56 42v71h-301v-378l-81 -17v392q-5 13 -11 21t-11.5 11.5t-8.5 4.5l-3 1h-31v26h35q26 0 45.5 -18t32.5 -48q0 -2 3 -2t3 3v1q-19 49 -54 64v10l81 15v-25h29v-26h-29v-10zM1878 117l-59 -52l-229 109h-1l4 5l36 78q23 -13 45 -18
t39 -5q35 0 56 15t21 35q0 7 -3.5 16t-10.5 16.5t-16 12.5t-19 5l-2 1l-4 -5q6 -9 6 -19q0 -20 -17 -33t-40 -13q-22 0 -39 12t-19 37q0 5 3.5 9.5t8 11.5t9 17.5t7.5 28.5h91q27 0 48.5 -10.5t36.5 -26.5t23 -34t8 -34q0 -37 -28.5 -66t-74.5 -37l-6 -1q-5 -1 -14 -1.5
t-19 -1.5t-17 -2.5t-7 -2.5q0 -4 4 -4q17 1 33 3l32 4zM73 631q57 20 78.5 49t21.5 58t-15 55.5t-35 42.5h-76v25h38l-15 9l27 17l54 -26h265v-25h-38v-296l-81 51v41q-22 29 -44 37q-15 -57 -71 -96zM1611 621h-1l40 79q29 -15 53.5 -20t43.5 -5q42 0 66 17t24 40
q0 6 -5.5 18.5t-17.5 12.5q-11 0 -18 -14t-9 -34l-50 -4l-7 3l3 16q2 5 3 10t1 10q0 16 -11.5 21t-19.5 5l-12 -1q21 -10 21 -29q0 -11 -12 -24t-35 -13q-17 0 -32.5 12t-15.5 35q0 4 5 8.5t11 11t12 18t8 29.5h59q8 0 23.5 -5t28.5 -20q9 10 21 17.5t23 7.5q15 0 31 -9
t29 -24t21.5 -33.5t8.5 -36.5q0 -35 -26.5 -65.5t-81.5 -41.5h-1q-4 0 -14.5 -0.5t-21 -1.5t-18.5 -3t-8 -4q0 -3 3 -3q34 1 66 6l113 -50l-59 -51z" />
    <glyph glyph-name=".notdef" horiz-adv-x="587" 
d="M389 421h-60l-152 -53v-309h212v136h-76v-66h-56v194l56 19v-86h76v66l59 20v-196l15 -87h65v362h-63l-76 -25v25zM453 491v-43h75v117h-261l-208 -61v-445h84v389l92 29zM587 0h-587v624h587v-624z" />
    <glyph glyph-name=".null" 
 />
    <glyph glyph-name="nonmarkingreturn" 
 />
    <glyph glyph-name="NULL" 
 />
    <glyph glyph-name="NULL" 
 />
    <glyph glyph-name="space" unicode=" " horiz-adv-x="220" 
 />
    <glyph glyph-name="space" unicode="&#xa0;" horiz-adv-x="220" 
 />
    <glyph glyph-name="exclam" unicode="!" horiz-adv-x="309" 
d="M240 -83q-12 -9 -32 -16t-44 -7q-23 0 -40.5 9t-29.5 22.5t-18 29t-6 29.5q0 17 5.5 32.5t12 27.5t11.5 18.5l5 6.5q-1 1 10.5 -1.5t28.5 -2.5q12 0 26 4t27 4q15 0 27.5 -8.5t22.5 -22.5t15.5 -31t5.5 -35q0 -17 -6.5 -32.5t-20.5 -26.5zM103 207v464l139 27v-578z" />
    <glyph glyph-name="quotedbl" unicode="&#x22;" horiz-adv-x="501" 
d="M103 521v140l137 26l-12 -110q-54 -33 -54 -92v-9zM271 521v140l137 26l-12 -110q-54 -33 -54 -92v-9z" />
    <glyph glyph-name="numbersign" unicode="#" horiz-adv-x="778" 
d="M149 219l77 180h-66v87h103l61 144h114l-61 -144h158l61 144h114l-61 -144h62v-87h-99l-77 -180h83v-87h-120l-60 -142h-114l60 142h-158l-60 -142h-114l60 142h-45v87h82zM340 399l-77 -180h158l77 180h-158z" />
    <glyph glyph-name="dollar" unicode="$" horiz-adv-x="497" 
d="M464 194q0 -67 -49 -108t-137 -49v-88h-58v86q-104 2 -182 36v113q18 -9 41 -17.5t48 -15t49 -11t44 -5.5v131l-28 11q-84 33 -119.5 72.5t-35.5 96.5q0 61 47.5 101t135.5 48v65h58v-63q98 -5 176 -39l-40 -100q-66 29 -136 33v-125q54 -21 90 -39.5t57.5 -38t30 -42
t8.5 -52.5zM336 188q0 18 -14.5 30t-43.5 25v-105q58 9 58 50zM165 446q0 -19 13 -31t42 -25v100q-55 -7 -55 -44z" />
    <glyph glyph-name="percent" unicode="%" horiz-adv-x="856" 
d="M509 629h145l-344 -634h-145zM577 1q-17 0 -35.5 7.5t-34.5 22.5t-26.5 38.5t-10.5 55.5q0 11 1 24.5t15 27.5q11 10 22.5 29.5t16.5 56.5h102q41 -5 71.5 -19.5t50.5 -33t30 -40t10 -40.5q-1 -1 -2 -10.5t-7.5 -24t-19.5 -31t-36 -30.5t-59 -23.5t-88 -9.5zM604 197
q-3 -15 -9.5 -28.5t-13 -24t-11 -16.5l-4.5 -6l3 -6.5t9.5 -14t16 -13.5t23.5 -6q15 0 25.5 8t17 19.5t9.5 24.5t3 23q-1 8 -6.5 17.5t-13.5 17.5t-17 13.5t-16 5.5q-12 0 -16 -14zM387 491l-1.5 -9.5t-8 -24t-19.5 -31.5t-36.5 -31.5t-59.5 -24t-88 -9.5q-17 0 -35.5 7
t-34.5 22.5t-26 40t-10 58.5q0 12 0.5 24t14.5 25q11 11 22 30t17 55h102q42 -5 72.5 -18.5t50.5 -31.5t30 -39.5t10 -42.5zM201 557q-3 -14 -9.5 -27.5t-13 -24t-11 -17l-4.5 -6.5q5 -11 13 -19q7 -8 16 -13.5t23 -5.5q15 0 25.5 7.5t17 18.5t9.5 24.5t3 24.5q-1 8 -6.5 17
t-13.5 17t-17 13t-16 5q-12 0 -16 -14z" />
    <glyph glyph-name="ampersand" unicode="&#x26;" horiz-adv-x="652" 
d="M653 0h-161l-49 48q-83 -56 -183 -56q-52 0 -93.5 12.5t-71 35t-45 55t-15.5 73.5q0 58 25.5 99t88.5 77q-32 36 -46.5 69.5t-14.5 72.5q0 66 48.5 105t133.5 39q79 0 126 -37t47 -98q0 -51 -29 -92.5t-95 -79.5l121 -118q15 25 28 57t24 71h135q-15 -57 -41.5 -111.5
t-60.5 -97.5zM171 180q0 -36 27.5 -58t70.5 -22q52 0 96 26l-141 140q-24 -18 -38.5 -38.5t-14.5 -47.5zM324 481q0 23 -15.5 36t-39.5 13q-61 0 -61 -53q0 -39 40 -82q37 20 56.5 40t19.5 46z" />
    <glyph glyph-name="quotesingle" unicode="'" horiz-adv-x="329" 
d="M103 521v140l137 26l-12 -110q-54 -33 -54 -92v-9z" />
    <glyph glyph-name="parenleft" unicode="(" horiz-adv-x="402" 
d="M392 670q-55 -8 -93 -40.5t-62 -80t-34.5 -105t-10.5 -115.5q0 -59 2 -103.5t10 -81t24 -68t43 -65.5q22 -28 51.5 -45.5t66.5 -26.5l-127 -58q-225 166 -225 440q0 263 230 419z" />
    <glyph glyph-name="parenright" unicode=")" horiz-adv-x="402" 
d="M10 670l125 70q230 -156 230 -419q0 -274 -225 -440l-127 58q37 9 66.5 28.5t51.5 44.5t36.5 52.5t22.5 51.5q11 38 15.5 91t4.5 122q0 58 -11 115.5t-34.5 105t-61.5 80t-93 40.5z" />
    <glyph glyph-name="asterisk" unicode="*" horiz-adv-x="591" 
d="M209 345l-86 86l23 53l101 -100v129l96 22v-151l87 85l53 -23l-101 -101h142v-87h-152l111 -110l-89 11l-51 50v-151l-96 73v78l-101 -100l12 89l61 60h-152v87h142z" />
    <glyph glyph-name="plus" unicode="+" horiz-adv-x="589" 
d="M373 511v-168h149v-86h-149v-186l-157 67v119h-149v86h149v147z" />
    <glyph glyph-name="comma" unicode="," horiz-adv-x="255" 
d="M140 175q2 0 3 0.5t3 0.5q10 0 21 -9t20 -24t14.5 -34t5.5 -40q0 -38 -26 -73t-94 -51l-80 61h16t33 3t34.5 10.5t21.5 22.5l-38 3q-17 14 -23 28.5t-6 29.5q0 14 4.5 26.5t9.5 22.5t9.5 16l4.5 6q-1 0 8 -2t23 -2q8 0 17 1t19 4z" />
    <glyph glyph-name="hyphenminus" unicode="-" horiz-adv-x="491" 
d="M67 258v87h357v-87h-357z" />
    <glyph glyph-name="period" unicode="." horiz-adv-x="255" 
d="M141 147q3 1 9 1q12 0 23 -7.5t19 -19t13 -26t5 -29.5q0 -25 -19.5 -46t-65.5 -21q-19 0 -33.5 7.5t-24.5 19t-15 24.5t-5 24q0 14 4.5 27t9.5 23q6 11 14 21q2 0 10.5 -1.5t21.5 -1.5q8 0 16.5 1t17.5 4z" />
    <glyph glyph-name="slash" unicode="/" horiz-adv-x="407" 
d="M9 -71l272 754h114l-272 -754h-114z" />
    <glyph glyph-name="zero" unicode="0" horiz-adv-x="497" 
d="M466 311q0 -165 -53 -242t-165 -77q-217 0 -217 319q0 166 52.5 243t164.5 77q109 0 163.5 -80.5t54.5 -239.5zM162 311q0 -115 19.5 -164.5t66.5 -49.5q46 0 66.5 50t20.5 164t-20.5 164t-66.5 50t-66 -50t-20 -164z" />
    <glyph glyph-name="one" unicode="1" horiz-adv-x="496" 
d="M359 0h-131v418l4 65q-33 -33 -46 -43l-71 -57l-64 79l200 159h108v-621z" />
    <glyph glyph-name="two" unicode="2" horiz-adv-x="497" 
d="M469 0h-434v91l156 158q43 44 69 72.5t39.5 49t17.5 37.5t4 38q0 38 -20.5 56t-54.5 18q-37 0 -71 -16.5t-70 -46.5l-72 84q31 26 56 43t50 27.5t52.5 14.5t63.5 4q43 0 79.5 -12.5t62.5 -34.5t40.5 -53t14.5 -68q0 -35 -7.5 -63t-27 -58t-53.5 -65.5t-86 -83.5l-80 -76
v-6h271v-110z" />
    <glyph glyph-name="three" unicode="3" horiz-adv-x="497" 
d="M445 482q0 -58 -35.5 -99t-98.5 -56v-2q152 -20 152 -144q0 -91 -65 -140t-186 -49q-101 0 -179 33v112q36 -18 79.5 -29.5t85.5 -11.5q66 0 96.5 22t30.5 71q0 43 -35.5 61.5t-113.5 18.5h-47v101h48q72 0 105.5 18.5t33.5 64.5q0 71 -89 71q-30 0 -62 -10.5t-70 -35.5
l-61 91q85 61 203 61q97 0 152.5 -39t55.5 -109z" />
    <glyph glyph-name="four" unicode="4" horiz-adv-x="497" 
d="M483 129h-75v-129h-128v129h-265v91l272 401h121v-390h75v-102zM280 231v105q0 10 1 32t1.5 44.5t1.5 40t1 18.5h-3q-8 -17 -17.5 -34t-20.5 -34l-114 -172h150z" />
    <glyph glyph-name="five" unicode="5" horiz-adv-x="498" 
d="M262 397q90 0 143.5 -50.5t53.5 -138.5q0 -106 -63.5 -161t-184.5 -55q-104 0 -168 33v113q34 -17 78.5 -28.5t84.5 -11.5q120 0 120 99q0 94 -124 94q-23 0 -50 -4.5t-44 -9.5l-52 28l23 316h337v-111h-222l-11 -122l15 3q13 2 29 4t35 2z" />
    <glyph glyph-name="six" unicode="6" horiz-adv-x="496" 
d="M30 264q0 186 76.5 275t234.5 89q53 0 83 -6v-105q-43 8 -75 8q-51 -2 -87 -12t-60 -32t-36.5 -58.5t-15.5 -91.5h6q42 73 134 73q85 0 131.5 -51.5t46.5 -145.5q0 -100 -56 -157.5t-156 -57.5q-105 0 -165.5 70t-60.5 202zM254 96q42 0 64.5 28.5t22.5 80.5q0 46 -21 72
t-64 26q-20 0 -37 -7t-30.5 -19t-21 -27.5t-7.5 -32.5q0 -26 7 -48t19.5 -38t29.5 -25.5t38 -9.5z" />
    <glyph glyph-name="seven" unicode="7" horiz-adv-x="497" 
d="M96 0l234 510h-307v110h446v-82l-235 -538h-138z" />
    <glyph glyph-name="eight" unicode="8" horiz-adv-x="495" 
d="M248 629q90 0 144 -40.5t54 -109.5q0 -48 -25.5 -85t-85.5 -66q70 -37 100 -78t30 -89q0 -38 -15.5 -69t-44 -53.5t-68.5 -34.5t-89 -12q-103 0 -160.5 42.5t-57.5 123.5q0 54 28 94.5t91 72.5q-54 33 -77 71.5t-23 83.5q0 34 15 61.5t41 47t62.5 30t80.5 10.5zM151 165
q0 -36 25 -56.5t70 -20.5q49 0 73.5 21t24.5 55q0 29 -24 54t-78 53q-91 -42 -91 -106zM247 533q-33 0 -54 -17t-21 -46q0 -26 16.5 -46t59.5 -41q42 19 58.5 39.5t16.5 47.5q0 29 -21.5 46t-54.5 17z" />
    <glyph glyph-name="nine" unicode="9" horiz-adv-x="496" 
d="M466 356q0 -186 -76 -275t-235 -89q-28 0 -49 1.5t-35 3.5v106q36 -9 75 -9q99 0 147 44t52 150h-5q-24 -40 -56.5 -56t-80.5 -16q-82 0 -128.5 51t-46.5 145q0 100 55.5 158t155.5 58q106 0 166.5 -71t60.5 -201zM242 523q-42 0 -64.5 -27.5t-22.5 -81.5q0 -45 21 -71.5
t63 -26.5q20 0 37.5 7.5t31 19.5t21 27.5t7.5 32.5q0 25 -7 47t-19.5 38t-29.5 25.5t-38 9.5z" />
    <glyph glyph-name="colon" unicode=":" horiz-adv-x="296" 
d="M161 536q6 2 10 2q12 0 22.5 -7t18.5 -18.5t13 -26t5 -29.5q0 -26 -20 -47t-66 -21q-19 0 -33.5 7t-24.5 18t-15 24t-5 25q0 14 4.5 27t10 23t9.5 16l4 6q4 -1 9 -2t10 -1.5t13 -0.5t16.5 1t18.5 4zM94 89q-16 14 -22 28.5t-6 28.5q0 15 4.5 28t10 23t9.5 15.5l4 5.5
q4 -1 9 -2t10 -1.5t13 -0.5q10 0 22 3t23 3q12 0 22.5 -7t18.5 -18.5t13 -26t5 -28.5q0 -29 -22 -48.5t-60 -19.5q-14 0 -27.5 4t-26.5 13z" />
    <glyph glyph-name="semicolon" unicode=";" horiz-adv-x="296" 
d="M31 66h7q8 0 23 1t30 4.5t27.5 10.5t17.5 19l-39 3q-17 14 -23 29.5t-6 29.5t4.5 27t9.5 23q6 11 14 20q2 0 10 -1.5t21 -1.5q10 0 20 3t21 3q10 0 21.5 -9t21 -24t15.5 -34t6 -40q0 -19 -6 -38t-20.5 -35.5t-37.5 -30t-57 -21.5zM95 406q-17 14 -23 28.5t-6 29.5
q0 14 4.5 26.5t9.5 22.5t9.5 16l4.5 6q-1 0 8.5 -2t23.5 -2q11 0 23 3.5t23 3.5q12 0 22 -7t18 -18.5t12.5 -26t4.5 -28.5q0 -29 -21.5 -48.5t-61.5 -19.5q-13 0 -26.5 3.5t-24.5 12.5z" />
    <glyph glyph-name="less" unicode="&#x3c;" horiz-adv-x="543" 
d="M476 56l-409 203v104l409 203v-145l-249 -111l249 -110v-144z" />
    <glyph glyph-name="equal" unicode="=" horiz-adv-x="591" 
d="M67 367v87h457v-87h-457zM524 255v-87h-457v87h457z" />
    <glyph glyph-name="greater" unicode="&#x3e;" horiz-adv-x="543" 
d="M67 56v144l249 110l-249 111v145l409 -203v-104z" />
    <glyph glyph-name="question" unicode="?" horiz-adv-x="670" 
d="M336 727q72 -10 123 -32t83 -50.5t46.5 -61.5t14.5 -65q0 -47 -18 -78t-44.5 -53.5t-57.5 -40.5t-57.5 -38t-44.5 -46.5t-18 -65.5q0 -20 5.5 -44.5t18.5 -53.5l-283 63q-1 8 -1 14.5v13.5q0 59 23.5 96.5t59 62t76.5 41.5t76.5 35t59 42t23.5 63q0 19 -8.5 38.5t-24 36
t-38.5 27t-52 10.5q-19 0 -25.5 -9t-9.5 -23q22 -8 35 -29t13 -48q0 -15 -7.5 -35.5t-23 -38.5t-40.5 -31t-59 -13q-51 0 -84.5 37t-39.5 99q0 13 12.5 25t29 30t32.5 46.5t23 75.5h182zM250 88q4 1 7 1.5t7 0.5q15 0 29 -9.5t24.5 -24.5t16.5 -33.5t6 -37.5q0 -17 -6.5 -33
t-20 -28.5t-34.5 -20t-51 -7.5q-24 0 -43 9.5t-31.5 24.5t-19.5 32t-7 32q0 19 6 35.5t12.5 29.5t12 20.5l5.5 7.5q6 -2 12 -3q5 -1 12.5 -1.5t17.5 -0.5q11 0 22 1t23 5z" />
    <glyph glyph-name="at" unicode="@" horiz-adv-x="954" 
d="M511 37l-256 121l61 127q37 -20 70.5 -27t60.5 -7q52 0 85 22t33 57q0 10 -5.5 23t-16 25t-25 20t-32.5 8l-7 -7q11 -16 11 -31t-8 -28t-21 -22.5t-28 -15t-30 -5.5q-35 0 -61.5 19t-30.5 57q1 8 6 15.5l12 18t14 27t12 43.5h140q17 0 38 -6.5t41 -16.5t37 -22t26 -22
q38 -44 38 -93q0 -29 -12 -55.5t-33.5 -48t-51 -36.5t-64.5 -21q-8 0 -23.5 -1t-32 -3t-28.5 -4.5t-12 -5.5q0 -5 5 -5q26 1 51.5 3t49.5 7l108 -48q25 24 44 57t32 69t19 72t6 67q0 30 -10 66t-32 70.5t-55.5 63t-79.5 42.5q-63 19 -87 19q-102 0 -132 -85q-10 -37 -25 -73
t-30 -66.5t-29 -52.5t-21 -31l-82 -118q-8 -11 -8 -29q0 -46 55 -131l-41 -31q-38 42 -63.5 105.5t-25.5 158.5q0 15 -0.5 29.5t1 28.5t7.5 28t20 28q21 21 44.5 54.5t44 71.5t35.5 77.5t19 72.5h251q119 0 198 -33.5t119 -98.5q81 -131 81 -233q0 -26 -2 -49.5t-10 -49
t-24 -55.5t-45 -69q-57 -75 -146 -106l-51 24l-1 -1l-98 46h1z" />
    <glyph glyph-name="A" unicode="A" horiz-adv-x="600" 
d="M458 0l-45 148h-226l-45 -148h-142l219 624h161l220 -624h-142zM382 258l-71 227l-11 42q-7 -27 -27 -93.5t-53 -175.5h162z" />
    <glyph glyph-name="B" unicode="B" horiz-adv-x="585" 
d="M78 621h193q133 0 192.5 -37.5t59.5 -119.5q0 -57 -25.5 -92t-70.5 -42v-5q60 -13 86 -49t26 -96q0 -85 -61.5 -132.5t-166.5 -47.5h-233v621zM210 375h76q54 0 78 16.5t24 54.5q0 36 -26 51.5t-83 15.5h-69v-138zM210 271v-162h86q106 0 106 84q0 78 -111 78h-81z" />
    <glyph glyph-name="C" unicode="C" horiz-adv-x="553" 
d="M341 520q-75 0 -115.5 -55.5t-40.5 -155.5q0 -208 156 -208q65 0 158 33v-111q-74 -31 -170 -31q-138 0 -208.5 81t-70.5 237q0 73 20 132t58 101t91.5 64.5t121.5 22.5q88 0 182 -44l-43 -107q-35 17 -70 29t-69 12z" />
    <glyph glyph-name="D" unicode="D" horiz-adv-x="643" 
d="M593 316q0 -155 -86 -235.5t-253 -80.5h-176v621h195q154 0 237 -79.5t83 -225.5zM457 313q0 200 -177 200h-70v-404h56q191 0 191 204z" />
    <glyph glyph-name="E" unicode="E" horiz-adv-x="487" 
d="M436 0h-358v621h358v-108h-226v-136h210v-108h-210v-160h226v-109z" />
    <glyph glyph-name="F" unicode="F" horiz-adv-x="478" 
d="M208 0h-130v621h356v-108h-226v-160h210v-107h-210v-246z" />
    <glyph glyph-name="G" unicode="G" horiz-adv-x="630" 
d="M314 349h246v-322q-60 -20 -112 -27.5t-109 -7.5q-142 0 -215 81.5t-73 237.5q0 76 22 135t64 100t102 62.5t136 21.5q93 0 184 -38l-43 -106q-67 34 -142 34q-42 0 -77 -15t-59.5 -42.5t-38 -66.5t-13.5 -87q0 -103 41.5 -155.5t120.5 -52.5q40 0 84 9v129h-118v110z
" />
    <glyph glyph-name="H" unicode="H" horiz-adv-x="665" 
d="M587 0h-131v268h-246v-268h-132v621h132v-243h246v243h131v-621z" />
    <glyph glyph-name="I" unicode="I" horiz-adv-x="339" 
d="M311 0h-283v75l76 35v401l-76 35v75h283v-75l-76 -35v-401l76 -35v-75z" />
    <glyph glyph-name="J" unicode="J" horiz-adv-x="289" 
d="M14 -183q-47 0 -78 10v109q17 -4 32.5 -6t29.5 -2q45 0 63 27t18 84v582h132v-581q0 -109 -50 -166t-147 -57z" />
    <glyph glyph-name="K" unicode="K" horiz-adv-x="578" 
d="M578 0h-150l-162 262l-56 -40v-222h-132v621h132v-284l52 73l168 211h146l-217 -275z" />
    <glyph glyph-name="L" unicode="L" horiz-adv-x="492" 
d="M78 0v621h132v-512h252v-109h-384z" />
    <glyph glyph-name="M" unicode="M" horiz-adv-x="820" 
d="M341 0l-149 487h-4q4 -75 6 -124t2 -74v-289h-118v621h179l147 -475h3l156 475h179v-621h-123v316v12.5t1 13.5l6 144h-4l-160 -486h-121z" />
    <glyph glyph-name="N" unicode="N" horiz-adv-x="707" 
d="M629 0h-167l-270 470h-4q4 -63 6 -107.5t2 -70.5v-292h-118v621h166l270 -465h3q-6 121 -6 171v294h118v-621z" />
    <glyph glyph-name="O" unicode="O" horiz-adv-x="691" 
d="M641 311q0 -156 -75.5 -237.5t-220.5 -81.5t-220 81.5t-75 238.5t75.5 238t220.5 81t220 -81.5t75 -238.5zM188 311q0 -209 157 -209q158 0 158 209q0 210 -157 210q-158 0 -158 -210z" />
    <glyph glyph-name="P" unicode="P" horiz-adv-x="546" 
d="M210 329h43q121 0 121 94q0 46 -25 68t-79 22h-60v-184zM507 427q0 -100 -61.5 -153t-179.5 -53h-56v-221h-132v621h199q230 0 230 -194z" />
    <glyph glyph-name="Q" unicode="Q" horiz-adv-x="691" 
d="M641 311q0 -109 -39 -183t-114 -109l149 -167h-168l-114 140h-10q-145 0 -220 81.5t-75 238.5t75.5 238t220.5 81t220 -81.5t75 -238.5zM188 311q0 -209 157 -209q158 0 158 209q0 210 -157 210q-158 0 -158 -210z" />
    <glyph glyph-name="R" unicode="R" horiz-adv-x="574" 
d="M210 345h42q63 0 92.5 21t29.5 66t-30 63t-94 18h-40v-168zM210 238v-238h-132v621h181q129 0 188.5 -46t59.5 -140q0 -55 -30 -97.5t-85 -66.5q70 -106 115.5 -173t66.5 -98h-146l-148 238h-70z" />
    <glyph glyph-name="S" unicode="S" horiz-adv-x="480" 
d="M445 172q0 -85 -60 -132.5t-169 -47.5q-102 0 -176 37v122q63 -28 106.5 -39.5t79.5 -11.5q43 0 66.5 16.5t23.5 49.5q0 15 -5.5 26.5t-19.5 22.5t-37.5 23.5t-58.5 29.5q-37 17 -65 35t-46.5 40t-27.5 49t-9 61q0 85 55 131t155 46q49 0 93 -11.5t92 -32.5l-43 -102
q-49 20 -81.5 28t-64.5 8q-37 0 -57 -17t-20 -45q0 -16 3.5 -26.5t15.5 -20t35.5 -21.5t62.5 -31q43 -21 72.5 -41.5t47 -43t25 -47.5t7.5 -55z" />
    <glyph glyph-name="T" unicode="T" horiz-adv-x="503" 
d="M318 0h-132v511h-169v110h469v-110h-168v-511z" />
    <glyph glyph-name="U" unicode="U" horiz-adv-x="658" 
d="M584 621v-402q0 -52 -18 -94t-51 -71.5t-81 -45.5t-108 -16q-121 0 -186.5 60t-65.5 169v400h131v-380q0 -72 29 -105.5t96 -33.5q64 0 93 33.5t29 106.5v379h132z" />
    <glyph glyph-name="V" unicode="V" horiz-adv-x="565" 
d="M432 621h133l-211 -621h-143l-211 621h133l117 -370q4 -14 9.5 -34.5t10 -41t8 -37t5.5 -23.5q2 20 10 53.5t22 82.5z" />
    <glyph glyph-name="W" unicode="W" horiz-adv-x="841" 
d="M683 0h-150l-84 326q-2 6 -6.5 27t-9.5 45t-9 45t-4 27l-13 -72l-15 -73l-84 -325h-150l-158 621h130l79 -339q11 -48 18 -88t12 -75q1 11 4.5 32t8 44t9 44.5t7.5 33.5l91 348h124l90 -348q3 -10 7 -29.5t8.5 -42t8 -45t5.5 -37.5q2 17 4.5 37.5t8.5 45.5l97 419h129z
" />
    <glyph glyph-name="X" unicode="X" horiz-adv-x="580" 
d="M580 0h-150l-145 235l-144 -235h-141l206 320l-193 301h145l134 -223l132 223h141l-195 -308z" />
    <glyph glyph-name="Y" unicode="Y" horiz-adv-x="543" 
d="M271 365l130 256h142l-206 -379v-242h-131v237l-206 384h143z" />
    <glyph glyph-name="Z" unicode="Z" horiz-adv-x="504" 
d="M483 0h-462v85l298 427h-290v109h446v-85l-297 -427h305v-109z" />
    <glyph glyph-name="bracketleft" unicode="[" horiz-adv-x="304" 
d="M297 704h-70v-822h70v-40h-230v902h230v-40z" />
    <glyph glyph-name="backslash" unicode="\" horiz-adv-x="407" 
d="M398 -71h-114l-272 754h114z" />
    <glyph glyph-name="bracketright" unicode="]" horiz-adv-x="304" 
d="M7 704v40h230v-902h-230v40h70v822h-70z" />
    <glyph glyph-name="asciicircum" unicode="^" horiz-adv-x="528" 
d="M39 400l173 300h104l173 -300h-145l-81 140l-80 -140h-144z" />
    <glyph glyph-name="underscore" unicode="_" horiz-adv-x="591" 
d="M67 0v87h457v-87h-457z" />
    <glyph glyph-name="grave" unicode="`" horiz-adv-x="299" 
d="M267 558l-80 -61q-68 16 -94 51t-26 73q0 21 6 40t15 33.5t20 23.5t22 9t21.5 -2.5t19.5 -2.5q13 0 21.5 1.5t9.5 1.5l4 -6t9.5 -15.5t10 -22.5t4.5 -27t-6 -28.5t-22 -28.5l-39 -4q4 -14 20 -21t33.5 -10t32.5 -3.5t18 -0.5z" />
    <glyph glyph-name="a" unicode="a" horiz-adv-x="525" 
d="M370 0l-25 65h-4q-17 -21 -33 -35t-34.5 -22.5t-40 -12t-49.5 -3.5q-69 0 -108 39t-39 111q0 76 51.5 111.5t160.5 39.5l82 3v20q0 73 -74 73q-54 0 -133 -35l-43 88q82 43 182 43q97 0 147 -42t50 -127v-316h-90zM331 220l-50 -2q-112 -1 -112 -77q0 -55 63 -55
q45 0 72 26t27 69v39z" />
    <glyph glyph-name="b" unicode="b" horiz-adv-x="550" 
d="M332 484q85 0 132 -65.5t47 -180.5q0 -118 -48.5 -182t-133.5 -64t-131 60h-9l-22 -52h-99v661h130v-154q0 -30 -6 -94h6q45 71 134 71zM291 380q-48 0 -70.5 -29t-22.5 -98v-14q0 -76 22.5 -109.5t71.5 -33.5q40 0 63.5 37t23.5 107t-23 105t-65 35z" />
    <glyph glyph-name="c" unicode="c" horiz-adv-x="447" 
d="M261 -8q-222 0 -222 243q0 121 60.5 185t172.5 64q81 0 148 -32l-38 -101q-31 13 -57 20.5t-53 7.5q-101 0 -101 -143q0 -140 101 -140q38 0 69.5 10t63.5 32v-111q-31 -20 -63 -27.5t-81 -7.5z" />
    <glyph glyph-name="d" unicode="d" horiz-adv-x="551" 
d="M218 -8q-85 0 -132 63.5t-47 181.5t47.5 182.5t135.5 64.5q89 0 137 -70h4q-5 26 -7.5 50t-2.5 45v152h130v-661h-99l-25 62h-6q-43 -70 -135 -70zM264 95q51 0 73.5 29t24.5 98v14q0 76 -23 109.5t-77 33.5q-45 0 -68.5 -37t-23.5 -107t24.5 -105t69.5 -35z" />
    <glyph glyph-name="e" unicode="e" horiz-adv-x="514" 
d="M265 392q-42 0 -65 -26.5t-27 -74.5h182q-1 48 -24.5 74.5t-65.5 26.5zM283 -8q-115 0 -179.5 62t-64.5 180q0 121 59.5 185.5t165.5 64.5q100 0 156.5 -56.5t56.5 -159.5v-63h-307q2 -55 33 -86t86 -31q43 0 81 9t80 28v-100q-34 -17 -72 -25t-95 -8z" />
    <glyph glyph-name="f" unicode="f" horiz-adv-x="337" 
d="M330 378h-112v-378h-129v378h-72v62l72 35v35q0 81 40 118.5t128 37.5q64 0 119 -20l-33 -95q-39 12 -72 12q-28 0 -40.5 -16.5t-12.5 -41.5v-30h112v-97z" />
    <glyph glyph-name="g" unicode="g" horiz-adv-x="491" 
d="M481 475v-66l-74 -19q20 -32 20 -71q0 -78 -52 -120t-149 -42l-42 3q-20 -15 -20 -34q0 -28 71 -28h81q78 0 119 -33t41 -99q0 -85 -68.5 -130t-200.5 -45q-100 0 -152 34.5t-52 97.5q0 87 105 113q-20 8 -35 27.5t-15 41.5q0 27 16 45t45 35q-37 16 -59 52t-22 84
q0 78 50.5 120.5t144.5 42.5q9 0 22 -1.5t25.5 -3t22.5 -3t13 -1.5h165zM115 -67q0 -27 25.5 -42t71.5 -15q70 0 109.5 19t39.5 52q0 27 -23.5 37t-71.5 10h-68q-35 0 -59 -17t-24 -44zM162 319q0 -38 17.5 -60.5t53.5 -22.5q37 0 54 22.5t17 60.5q0 86 -71 86t-71 -86z" />
    <glyph glyph-name="h" unicode="h" horiz-adv-x="571" 
d="M506 0h-129v277q0 103 -77 103q-54 0 -78 -36.5t-24 -120.5v-223h-130v661h130v-135q-1 -8 -1 -26.5t-2 -47.5l-3 -38h6q43 70 138 70q85 0 127.5 -44.5t42.5 -129.5v-310z" />
    <glyph glyph-name="i" unicode="i" horiz-adv-x="266" 
d="M63 598q0 63 71 63q70 0 70 -63q0 -30 -17.5 -47t-52.5 -17q-71 0 -71 64zM199 0h-130v475h130v-475z" />
    <glyph glyph-name="j" unicode="j" horiz-adv-x="265" 
d="M30 -209q-47 0 -86 11v102q30 -9 61 -9q33 0 48 18.5t15 54.5v507h130v-526q0 -76 -43.5 -117t-124.5 -41zM62 598q0 63 71 63q70 0 70 -63q0 -30 -17.5 -47t-52.5 -17q-71 0 -71 64z" />
    <glyph glyph-name="k" unicode="k" horiz-adv-x="540" 
d="M192 258l57 72l133 145h146l-189 -206l201 -269h-150l-137 192l-55 -44v-148h-130v661h130v-295l-7 -108h1z" />
    <glyph glyph-name="l" unicode="l" horiz-adv-x="266" 
d="M198 0h-130v661h130v-661z" />
    <glyph glyph-name="m" unicode="m" horiz-adv-x="854" 
d="M493 0h-129v277q0 103 -72 103q-49 0 -71.5 -36.5t-22.5 -120.5v-223h-130v475h99l17 -61h8q19 33 54.5 51.5t83.5 18.5q107 0 144 -70h12q19 33 55.5 51.5t84.5 18.5q81 0 122 -41.5t41 -132.5v-310h-130v277q0 103 -71 103q-48 0 -71.5 -33.5t-23.5 -108.5v-238z" />
    <glyph glyph-name="n" unicode="n" horiz-adv-x="571" 
d="M506 0h-129v277q0 103 -77 103q-54 0 -78 -36t-24 -121v-223h-130v475h99l17 -61h8q21 35 59 52.5t87 17.5q85 0 126.5 -44.5t41.5 -129.5v-310z" />
    <glyph glyph-name="o" unicode="o" horiz-adv-x="539" 
d="M171 238q0 -70 23.5 -106t75.5 -36t74.5 35t22.5 107t-23 106.5t-75 34.5t-75 -34.5t-23 -106.5zM500 238q0 -118 -61.5 -182t-170.5 -64q-52 0 -94 17t-72 49t-46.5 77.5t-16.5 102.5q0 118 60 182t172 64q51 0 93.5 -17.5t72.5 -49.5t46.5 -77.5t16.5 -101.5z" />
    <glyph glyph-name="p" unicode="p" horiz-adv-x="550" 
d="M329 -8q-85 0 -131 60h-7q4 -29 5.5 -46.5t1.5 -22.5v-192h-130v684h105l19 -62h6q45 71 134 71q85 0 132 -64t47 -182q0 -117 -48.5 -181.5t-133.5 -64.5zM291 380q-48 0 -70.5 -29t-22.5 -98v-14q0 -76 22.5 -109.5t71.5 -33.5q87 0 87 144q0 140 -88 140z" />
    <glyph glyph-name="q" unicode="q" horiz-adv-x="551" 
d="M265 93q49 0 72 28.5t25 98.5v16q0 76 -23.5 109.5t-75.5 33.5q-92 0 -92 -144q0 -142 94 -142zM218 -8q-85 0 -132 63.5t-47 181.5t48.5 182.5t133.5 64.5q45 0 78.5 -17t59.5 -53h3l11 61h110v-684h-130v199q0 25 6 72h-6q-21 -35 -55.5 -52.5t-79.5 -17.5z" />
    <glyph glyph-name="r" unicode="r" horiz-adv-x="395" 
d="M333 484q29 0 44 -4l-10 -121q-13 4 -38 4q-63 0 -97 -32t-34 -89v-242h-130v475h98l19 -80h7q22 40 59 64.5t82 24.5z" />
    <glyph glyph-name="s" unicode="s" horiz-adv-x="432" 
d="M399 141q0 -73 -49.5 -111t-152.5 -38q-52 0 -88.5 7t-68.5 20v107q18 -9 39 -16.5t42.5 -12.5t42 -8t37.5 -3q70 0 70 41q0 10 -5 18.5t-17 16.5t-31.5 17.5t-48.5 22.5q-41 18 -65.5 32.5t-38.5 31t-19.5 36.5t-6.5 49q0 64 48.5 98.5t139.5 34.5q83 0 167 -38l-39 -93
q-36 15 -67 25t-63 10q-57 0 -57 -31q0 -10 3.5 -17t14.5 -14t30 -15.5t51 -21.5q41 -17 66 -32t39 -31.5t19.5 -37t7.5 -47.5z" />
    <glyph glyph-name="t" unicode="t" horiz-adv-x="378" 
d="M268 95q34 0 82 15v-97q-50 -21 -119 -21q-78 0 -113.5 39t-35.5 118v229h-62v54l71 44l38 100h83v-101h133v-97h-133v-229q0 -28 15.5 -41t40.5 -13z" />
    <glyph glyph-name="u" unicode="u" horiz-adv-x="572" 
d="M404 0l-17 61h-7q-21 -33 -59 -51t-87 -18q-85 0 -127 44t-42 129v310h130v-277q0 -103 76 -103q55 0 79 36t24 120v224h130v-475h-100z" />
    <glyph glyph-name="v" unicode="v" horiz-adv-x="495" 
d="M181 0l-181 475h136l91 -271q16 -48 19 -97h3q1 20 6 44.5t13 52.5l91 271h136l-181 -475h-133z" />
    <glyph glyph-name="w" unicode="w" horiz-adv-x="746" 
d="M459 0l-36 166l-49 210h-3l-87 -376h-139l-136 475h130l54 -210q8 -29 13.5 -67t13.5 -89h3q0 16 4.5 41.5t10.5 60.5l6 36l59 228h143l55 -228q2 -9 5.5 -27.5t7 -39t6.5 -40t3 -31.5h3q2 15 5 36t8 47l14 73l57 210h127l-137 -475h-141z" />
    <glyph glyph-name="x" unicode="x" horiz-adv-x="503" 
d="M165 243l-153 232h147l92 -151l94 151h146l-154 -232l162 -243h-148l-100 163l-100 -163h-147z" />
    <glyph glyph-name="y" unicode="y" horiz-adv-x="495" 
d="M0 475h142l90 -267q6 -17 9 -38t6 -45h3q5 44 18 83l88 267h139l-201 -536q-29 -75 -79 -111.5t-119 -36.5q-39 0 -66 7v103q22 -6 51 -6q34 0 60 21.5t40 63.5l8 23z" />
    <glyph glyph-name="z" unicode="z" horiz-adv-x="424" 
d="M398 0h-375v76l220 300h-206v99h354v-84l-214 -292h221v-99z" />
    <glyph glyph-name="braceleft" unicode="{" horiz-adv-x="371" 
d="M81 233q0 2 -9.5 9.5t-35.5 7.5q-5 0 -10.5 -0.5t-11.5 -1.5v76q13 -3 24 -3q19 0 27.5 5.5t10.5 7.5l1 2q12 13 12 54v161q0 75 39 117t111 42h118l-14 -54q-6 1 -12 1.5t-11 0.5q-33 0 -51.5 -11t-26.5 -21h-1q-9 -9 -13.5 -27t-4.5 -35v-160q0 -30 -5.5 -51.5
t-14.5 -35t-20.5 -21t-23.5 -10.5q9 -3 20 -9t21 -19.5t16.5 -36.5t6.5 -60v-150q0 -21 4.5 -38t15.5 -29t31 -19t52 -7q5 0 10.5 0.5t11.5 1.5l16 -54h-21q-11 0 -20.5 -0.5t-19.5 -0.5q-39 0 -66 1.5t-46.5 5.5t-33.5 11t-25 17q-43 37 -43 134v146q0 26 -2.5 37.5
t-5.5 15.5z" />
    <glyph glyph-name="bar" unicode="|" horiz-adv-x="345" 
d="M103 -80v782h139v-782h-139z" />
    <glyph glyph-name="braceright" unicode="}" horiz-adv-x="371" 
d="M289 233q-3 -4 -5.5 -15.5t-2.5 -37.5v-146q0 -54 -11.5 -87t-37 -51.5t-66.5 -24.5t-99 -6q-10 -1 -19.5 0t-20.5 1h-21l16 54q5 -1 11 -1.5t11 -0.5q31 0 51.5 7t31.5 19t15.5 29t4.5 38v150q0 37 6.5 60t16.5 36.5t21 19.5t20 9q-12 3 -23.5 10.5t-20.5 21t-14.5 35
t-5.5 51.5v160q0 17 -4.5 35t-13.5 27h-1q-8 10 -26.5 21t-51.5 11q-5 0 -11 -0.5t-12 -1.5l-14 54h118q72 0 111 -42t39 -117v-161q0 -41 12 -54l1 -2q2 -2 10 -7.5t27 -5.5q10 0 25 3v-76q-7 1 -12.5 1.5t-10.5 0.5q-25 0 -34.5 -7.5t-9.5 -9.5z" />
    <glyph glyph-name="asciitilde" unicode="~" horiz-adv-x="734" 
d="M268 356q-11 0 -20 -9t-9 -26v-100h-136v81q0 26 12 52.5t33 47.5t48.5 34.5t58.5 13.5h27q31 0 59 -13.5t49 -34.5t33 -47.5t12 -52.5q0 -17 8.5 -26t20.5 -9q13 0 21.5 9t8.5 26v100h137v-81q0 -27 -12 -53.5t-33 -47.5t-49 -34t-59 -13h-27q-31 0 -59 13t-49 34
t-33 47.5t-12 53.5q0 17 -8.5 26t-21.5 9z" />
    <glyph glyph-name="softhyphen" unicode="&#xad;" horiz-adv-x="455" 
d="M67 258v87h321v-87h-321z" />
    <glyph glyph-name="softhyphen" unicode="&#x2010;" horiz-adv-x="455" 
d="M67 258v87h321v-87h-321z" />
    <glyph glyph-name="periodcentered" unicode="&#xb7;" horiz-adv-x="298" 
d="M161 384q3 1 9 1q12 0 23 -7.5t19 -19t13 -26t5 -29.5q0 -25 -20 -46.5t-64 -21.5q-19 0 -34 7.5t-25 19t-15 25t-5 24.5q0 14 4.5 27t9.5 23q6 11 14 21q2 0 10.5 -1.5t21.5 -1.5q8 0 16.5 1t17.5 4z" />
    <glyph glyph-name="multiply" unicode="&#xd7;" horiz-adv-x="540" 
d="M56 129l137 175l-136 175h136l69 -88l69 88h135l-136 -175l137 -175h-136l-69 88l-69 -88h-137z" />
    <glyph glyph-name="divide" unicode="&#xf7;" horiz-adv-x="591" 
d="M67 256v87h457v-87h-457zM308 196q3 1 9 1q12 0 23 -7.5t19 -19t13 -26t5 -29.5q0 -25 -20 -46.5t-64 -21.5q-19 0 -34 7.5t-25 19t-15 25t-5 24.5q0 14 4.5 27t9.5 23q6 11 14 21q2 0 10.5 -1.5t21.5 -1.5q8 0 16.5 1t17.5 4zM308 550q3 1 9 1q12 0 23 -7.5t19 -19
t13 -26t5 -29.5q0 -25 -20 -46.5t-64 -21.5q-19 0 -34 7.5t-25 19t-15 25t-5 24.5q0 14 4.5 27t9.5 23q6 11 14 21q2 0 10.5 -1.5t21.5 -1.5q8 0 16.5 1t17.5 4z" />
    <glyph glyph-name="om_deva" unicode="&#x950;" horiz-adv-x="638" 
d="M408 134q26 8 44.5 25t18.5 37q0 11 -10 23t-28 12q-15 0 -31 -7.5t-29.5 -16.5t-22.5 -16l-9 -7l-119 54v6q0 28 18.5 56t41 56t41 55t18.5 53q0 11 -5.5 24t-16 23.5t-25.5 17.5t-33 7q-4 0 -6 -0.5t-4 -0.5h-4q17 -8 27 -23.5t10 -35.5q0 -11 -6 -26t-18 -28.5
t-31 -23t-46 -9.5q-42 0 -70 28t-33 73q0 10 10 19t23.5 22.5t26 34.5t18.5 56h143q17 -1 44.5 -10.5t53.5 -27t45 -44t19 -61.5q0 -30 -9.5 -62t-22.5 -59.5t-25 -47.5t-16 -24q-2 -2 -2 -5q0 -7 8 -7q3 0 5 3l8 10q9 11 18 21t17 21q31 -6 58 -19t46.5 -32.5t31 -45.5
t11.5 -58q0 -26 -11.5 -59t-40 -62t-77.5 -48.5t-125 -19.5q-44 0 -84 11t-74.5 27.5t-62.5 35.5t-48 35.5t-31 27l-11 10.5l79 182q30 -59 62.5 -96t64 -57.5t61 -28t53.5 -7.5q20 0 35.5 3t26.5 6zM410 707q-80 -20 -136 -20q-145 0 -178 122l150 69l1 -9t5 -22.5t12 -29
t22 -29t34.5 -22.5t49.5 -9q30 0 57 9t47.5 19.5t32.5 19.5t11 9l36 -38q-15 -12 -36 -24q-18 -11 -45 -22.5t-63 -22.5zM336 801q-10 8 -13.5 16.5t-3.5 16.5q0 16 8.5 27.5t8.5 12.5q1 -1 4 -1h12q5 0 12 1t13 1q14 0 24 -14.5t10 -31.5t-12.5 -27.5t-32.5 -10.5
q-17 0 -30 10z" />
    <glyph glyph-name="devanagaridanda" unicode="&#x964;" horiz-adv-x="309" 
d="M103 99v465l139 26v-578z" />
    <glyph glyph-name="devanagaridoubledanda" unicode="&#x965;" horiz-adv-x="515" 
d="M103 99v465l139 26v-578zM309 99v465l139 26v-578z" />
    <glyph glyph-name="anji_beng" unicode="&#x980;" horiz-adv-x="637" 
d="M365 226q-28 5 -51 5q-26 1 -51 -0.5t-48 -3.5l-45 -3l-135 123q-9 16 -9 35q0 25 15.5 51.5t41.5 51.5t59.5 47.5t70.5 40.5t74.5 29t70.5 14q10 -1 34 -7t52.5 -14t58 -17.5t51.5 -17.5l36 -13v-539h-168v516q-168 -59 -230 -203q9 2 20 2h25q33 0 72.5 -4t80.5 -15z
" />
    <glyph glyph-name="signcandrabinducomb_beng" unicode="&#x981;" 
d="M-56 707q-80 -20 -136 -20q-145 0 -178 122l150 69l1 -9t5 -22.5t12 -29t22 -29t34.5 -22.5t49.5 -9q30 0 57 9t47.5 19.5t32.5 19.5t11 9l36 -38q-15 -12 -36 -24q-18 -11 -45 -22.5t-63 -22.5zM-130 801q-10 8 -13.5 16.5t-3.5 16.5q0 16 8.5 27.5t8.5 12.5q1 -1 4 -1
h12q5 0 12 1t13 1q14 0 24 -14.5t10 -31.5t-12.5 -27.5t-32.5 -10.5q-17 0 -30 10z" />
    <glyph glyph-name="signanusvara_beng" unicode="&#x982;" horiz-adv-x="578" 
d="M209 261q-26 0 -54.5 10t-52.5 31t-39.5 53.5t-15.5 78.5q0 17 2 33.5t22 35.5q16 15 34 42t25 78h154q62 -8 108.5 -27t77 -44t46 -53t15.5 -55v-5l-2 -13t-11.5 -33t-29.5 -43t-55.5 -43t-90 -33t-133.5 -13zM250 531q-5 -20 -14.5 -39t-19.5 -33.5t-17 -23l-7 -8.5
l5 -8.5t14.5 -18.5t24 -18t34.5 -8t35.5 8.5t26.5 22t17 31t6 35.5q0 11 -8 24.5t-20.5 25.5t-27 20.5t-27.5 8.5q-18 0 -22 -19zM122 203q10 1 19.5 1h19.5q85 0 148 -17.5t105 -38.5t62 -38l20 -17l28 -220q-42 58 -103 99t-127 67.5t-130.5 40.5t-112.5 17l51 105
q3 0 10 0.5t10 0.5z" />
    <glyph glyph-name="signvisarga_beng" unicode="&#x983;" horiz-adv-x="511" 
d="M186 340q-22 0 -46.5 8t-45 24.5t-34 42t-13.5 61.5q0 13 1.5 26.5t18.5 27.5q14 11 29.5 32t20.5 61h134q56 -7 96.5 -22.5t66.5 -35t38.5 -42t12.5 -43.5q0 -1 -2 -11.5t-10 -26t-25.5 -33.5t-48.5 -33.5t-78 -25.5t-115 -10zM221 552q-4 -17 -12 -31.5t-16.5 -26
t-14.5 -17.5l-6 -6l4 -7t12 -15t21 -14.5t30 -6.5q19 0 33 7t23 18t13 24t4 25q0 8 -6.5 19t-16.5 21t-23 17t-26 7q-15 0 -19 -14zM186 -25q-22 0 -46.5 7.5t-45 24t-34 42.5t-13.5 62q0 12 1.5 26t18.5 28q14 11 29.5 32t20.5 61h134q55 -6 95.5 -21t66.5 -35t39 -43
t13 -46l-1.5 -10t-9.5 -25t-24.5 -33t-46 -33.5t-74.5 -26t-110 -10.5h-13zM221 185q-4 -15 -12 -29.5t-16.5 -26t-14.5 -18.5l-6 -7l4 -6t12 -14t21 -14.5t30 -6.5q19 0 33 7t23 18t13 24t4 25q0 7 -6 18t-16 21t-23 17t-26 7q-16 0 -20 -15z" />
    <glyph glyph-name="a_beng" unicode="&#x985;" horiz-adv-x="899" 
d="M832 -9l-114 94q-31 78 -61.5 112t-60.5 46q-8 -13 -14.5 -23t-12.5 -17l-13 -15q-35 -39 -92 -61t-129 -22q-35 0 -73.5 8.5t-76.5 25t-72.5 40t-60.5 53.5l-26 29l104 253q13 -70 35 -119t49 -80.5t57.5 -47t62.5 -17.5h15q33 0 61 9.5t48 25.5t31 38t11 47
q0 20 -9 36.5t-22 28t-27 18t-24 7.5l-10 2l8 -8q31 -35 31 -73q0 -6 -4.5 -21t-15.5 -30.5t-30 -28t-48 -12.5q-5 0 -15.5 0.5t-23.5 5t-28 14t-29 27.5q-17 22 -17 45q0 15 6 30q23 47 30 75t7 42q0 11 -1 14l-2 4h198q72 -38 107.5 -92.5t36.5 -114.5q28 -8 55 -24v1
q57 -31 105 -97v-1q3 -3 6 -3q7 0 7 7q0 3 -1 4q-51 73 -117 105v240h-683v51h919v-51h-77v-580z" />
    <glyph glyph-name="aa_beng" unicode="&#x986;" horiz-adv-x="1198" 
d="M906 622q28 0 53 -11l7 -3q62 -29 98 -119q2 -5 6 -5q7 0 7 7v3q-41 97 -111 129v21l165 30v-52h77v-51h-77v-602l-165 107v417q-9 25 -19.5 40t-20.5 23t-17 11t-10 4h-67v-580l-115 94q-31 78 -61.5 112t-60.5 46q-11 -21 -22 -35t-15 -18l-2 -2q-35 -38 -91 -60.5
t-126 -22.5q-54 0 -99.5 13t-82 32.5t-63 41.5t-42.5 40l-25 28l-1 1l104 253q13 -75 37.5 -126t54.5 -82t63.5 -44t65.5 -13q34 0 61.5 10.5t47 27t29.5 37t10 41.5q0 28 -11 47t-26 29.5t-29.5 15t-21.5 4.5l-4 1l8 -8q9 -11 20 -30t11 -42q0 -12 -6.5 -28t-18.5 -30.5
t-30 -24.5t-42 -10q-21 0 -41.5 7.5t-36.5 20.5t-26 30t-10 35q0 15 7 29q23 47 29.5 74.5t6.5 41.5t-2 18l198 1q72 -38 107.5 -92.5t36.5 -114.5q10 -4 19.5 -7t20.5 -9l14 -8q29 -17 56 -40t50 -56q3 -3 6 -3q7 0 7 7q0 3 -1 4q-52 73 -118 104v240h-682v51h916z" />
    <glyph glyph-name="i_beng" unicode="&#x987;" horiz-adv-x="599" 
d="M609 622v-51h-619v51h314q8 8 16 21.5t8 30.5q0 21 -12 36.5t-31.5 26t-46 15.5t-54.5 5q-29 0 -57 -3.5t-50 -7t-35 -6.5l-13 -3l-38 43q-1 0 25.5 6.5t66.5 15t87 15.5t86 8q78 -1 132.5 -15t88.5 -36.5t49.5 -51t15.5 -57.5q0 -5 -0.5 -11t-1.5 -11l-178 -21h247z
M221 96q35 2 68 5.5t65 8.5l229 -101l-120 -105l-463 220l80 168q48 -26 90.5 -36t77.5 -10q73 0 116.5 28.5t43.5 73.5q0 17 -9 36t-26 36q-9 9 -21.5 14.5t-23.5 8.5t-19 4.5t-7 1.5l-7 -9q13 -19 13 -39t-10.5 -37.5t-27.5 -30t-37.5 -19.5t-40.5 -7q-45 0 -79 25.5
t-39 74.5q0 11 7 20t16 22.5t18.5 35.5t14.5 58h185q22 0 49.5 -8.5t54 -21.5t49 -28.5t34.5 -28.5q26 -29 37.5 -60.5t11.5 -62.5q0 -38 -15.5 -72.5t-43.5 -63t-66.5 -48.5t-84.5 -27l-11 -2q-9 -2 -28.5 -3t-39 -3t-34 -4.5t-14.5 -5.5q0 -8 7 -8z" />
    <glyph glyph-name="ii_beng" unicode="&#x988;" horiz-adv-x="757" 
d="M261 254q46 11 76 39.5t30 69.5q0 12 -6 28t-16.5 30.5t-24 24t-29.5 9.5q-6 0 -9.5 -0.5t-2.5 -0.5l-8 -9q14 -20 14 -40q0 -23 -11.5 -40.5t-29 -29.5t-38.5 -18.5t-39 -6.5q-47 0 -81 25.5t-39 76.5q0 11 7 20t16.5 23t19 36t14.5 59h188q23 0 48 -9t48 -22t42 -29
t31 -29q37 -42 48 -83q29 53 29 82v24l172 49v-560l-172 109v145q86 71 114 154q1 1 1 3q0 7 -7 7q-5 0 -7 -5q-18 -48 -54 -94t-99 -82q-3 -2 -3 -4q-80 -44 -165.5 -60.5t-159.5 -16.5q-58 0 -91 5t-31 3l48 127q44 -16 103 -16q35 0 74 6zM767 622v-51h-777v51h373
q7 8 15 21.5t8 30.5q0 21 -11.5 36.5t-31.5 26t-46 15.5t-55 5t-57 -3t-49.5 -7t-34.5 -7l-13 -3l-38 43q-1 0 25.5 6.5t66.5 15t87 15.5t86 8q78 -2 132.5 -16t88.5 -36t49 -50t15 -57q0 -6 -0.5 -11.5t-1.5 -11.5l-177 -21h346z" />
    <glyph glyph-name="u_beng" unicode="&#x989;" horiz-adv-x="697" 
d="M235 321v250h-245v51h355q8 8 15 21t7 30q0 21 -11.5 37t-31 26.5t-45.5 15.5t-55 5t-57 -3t-49.5 -7t-34.5 -7l-13 -3l-38 43q-1 0 25.5 6.5t66.5 15t87 15.5t86 8q78 -2 132.5 -16t88.5 -36t49 -50t15 -58q0 -6 -0.5 -11.5t-1.5 -11.5l-176 -20h303v-51h-308v-202
q25 14 41.5 28t26 25.5t13.5 18.5l4 7l125 -34v1q21 -41 31 -79.5t10 -74.5q0 -63 -25.5 -113t-68.5 -84.5t-100 -53t-121 -18.5q-39 0 -79.5 8.5t-80 27.5t-77.5 49t-72 73l97 261q19 -79 49 -130t64.5 -80.5t70 -41t66.5 -11.5q36 0 63 11.5t45 30t27 41t9 44.5v8t-1 9
q7 6 18.5 15t22 19t18 19t7.5 14q0 7 -7 7q-2 0 -11 -8t-20 -19t-22.5 -22t-18.5 -17l-16 -12l-9 -6q0 -1 -1 -1q-53 -36 -106 -46l-59 37z" />
    <glyph glyph-name="uu_beng" unicode="&#x98a;" horiz-adv-x="697" 
d="M235 321v250h-245v51h359q7 8 15 21.5t8 30.5q0 21 -12.5 36.5t-32.5 25.5t-46.5 15t-54.5 5q-29 0 -56 -3t-48.5 -6.5t-34.5 -6.5l-13 -3l-38 43q-1 0 25.5 6.5t66.5 15t87 15.5t86 7q78 0 132.5 -14t88 -36.5t49 -51t15.5 -57.5q0 -6 -0.5 -11.5t-1.5 -11.5l-175 -20
h298v-51h-308v-202q25 14 41.5 28t26 25.5t13 18.5l3.5 7l126 -34v1q41 -82 41 -152q0 -63 -25 -113t-68 -85.5t-100.5 -54t-121.5 -18.5q-39 0 -79.5 8.5t-80 27.5t-77.5 49t-72 73l14 37q20 -24 45 -44t46.5 -33.5t36.5 -21t14 -7.5q-92 82 -126 150l67 180
q19 -79 49 -130t64.5 -80.5t70 -41t66.5 -11.5q35 0 62 11.5t45 30t27.5 41t9.5 44.5v8.5t-1 8.5q7 6 18 15t21.5 19t18.5 19t8 14q0 7 -7 7q-3 0 -11.5 -8t-19.5 -19t-22.5 -22t-18.5 -17l-3 -2q0 -1 -1 -1l-18 -13l-4 -3q-26 -17 -52.5 -29t-54.5 -17l-59 37z" />
    <glyph glyph-name="vocalicr_beng" unicode="&#x98b;" horiz-adv-x="979" 
d="M127 434l-86 67q11 21 15 38.5t4 31.5q0 13 -2 22.5t-2 17.5q0 11 7 19t17 13.5t21 8.5t18 3q16 0 32.5 -6t29.5 -16.5t21 -25t8 -32.5q0 -23 -10 -42t-24 -27l1 1q38 9 58 31t20 48q0 23 -15 44l125 28l93 -126v110l160 33v-347q79 0 137 -34.5t103 -98.5q1 -3 5 -3
q8 0 8 7q0 2 -2 4q-50 72 -117 105v339l160 28v-53h77v-51h-77v-603l-115 94q-20 49 -43.5 81t-47.5 52t-47 30.5t-41 15.5v-273l-23 19q-57 42 -114.5 70.5t-115 46t-116 25t-116.5 7.5l-86 163q5 3 36 22.5t75.5 46.5t95 57.5t95.5 55.5l-21 28q-32 -41 -71.5 -61.5
t-90.5 -20.5q-12 0 -22.5 1.5t-16.5 5.5zM458 360q-45 -28 -92 -58.5t-97 -63.5q46 -13 93 -33.5t96 -48.5v1q51 -32 99 -75q2 -2 5 -2q7 0 7 8q0 3 -2 5q-27 23 -54 43t-55 37v187z" />
    <glyph glyph-name="glyph112" unicode="&#x98d;" horiz-adv-x="429" 
d="M317 521h-4q-5 2 -17 3v1q-32 5 -71 29.5t-64 73.5q-11 21 -28.5 39.5t-59.5 37.5v-2q1 0 1 -1l8 -12q9 -13 16 -37t7 -59v-16q0 -5 11 -14t19 -14l4 -3q0 -1 1 -1q23 -17 49.5 -28.5t53 -18.5t50.5 -10t41 -3h7l1 1l3 3q6 5 25 12t57 7h79v31h-79q-25 0 -44.5 -3.5
t-35.5 -7.5l-29 -7zM240 779q22 12 50 12q15 0 30.5 -5t28 -14.5t20.5 -23t8 -30.5q0 -21 -16 -40.5t-39 -19.5q-16 0 -33.5 12.5t-17.5 33.5q0 19 14 27l-2 1q-18 -5 -27.5 -18.5t-9.5 -30.5q0 -26 17.5 -44.5t47.5 -23.5q4 0 14 1t20.5 2.5t19.5 2.5t12 1h62v-51h-10
q-22 1 -39.5 -1.5t-30.5 -5.5l-32 -7q-24 1 -49 10.5t-45.5 25.5t-33.5 38.5t-13 51.5q0 27 13.5 53t40.5 43zM1 715l12 -2q1 -1 1 -2l7 -10q6 -10 11.5 -26t5.5 -38q0 -4 -0.5 -7.5t-0.5 -7.5l-22 18v13v6q0 12 -3 27t-11 29zM54 708v-1q1 0 1 -1l7 -14q7 -14 16 -36.5
t8 -53.5q0 -5 -0.5 -8.5t-0.5 -7.5l-29 24v17q0 18 -4.5 41t-16.5 43z" />
    <glyph glyph-name="glyph113" unicode="&#x98e;" horiz-adv-x="429" 
d="M112 521l-30 8q-16 4 -35.5 7.5t-44.5 3.5h-79v-31h79q40 0 58 -7t24 -12l3 -4h2h7q16 0 39.5 3t50 10t53.5 18.5t50 28.5q1 0 1 1l4 3q9 5 19.5 14t10.5 14q0 4 -0.5 7.5t-0.5 7.5q0 35 8 59.5t16 37.5l8 12q0 1 1 1v2q-33 -15 -49.5 -28.5t-26.5 -28.5t-18.5 -31.5
t-25.5 -36.5q-25 -28 -53.5 -39t-48.5 -16l-18 -4h-4zM189 779q54 -35 54 -96q0 -28 -13 -50.5t-33.5 -39t-45.5 -26t-49 -10.5h-2q-6 2 -31.5 8t-68.5 6h-10v51h62q4 0 13 -1t19 -2.5t19.5 -2.5t14.5 -1q31 6 48 24t17 44q0 17 -9.5 30.5t-27.5 18.5l-2 -1q14 -9 14 -27
q0 -20 -17 -33t-33 -13q-23 0 -39.5 19t-16.5 41q0 18 8 31.5t21 22.5t28.5 14t30.5 5q26 0 49 -12zM428 715q-8 -14 -11 -29t-3 -27v-6v-13l-22 -18q-1 4 -1 7.5v6.5q0 23 6 39t12 26l6 10q0 1 1 2zM376 708l18 3q-12 -20 -16 -43t-4 -41v-17l-30 -24q0 3 -0.5 6.5
t-0.5 6.5q-1 32 8 55.5t17 37.5l7 14q0 1 1 1v1z" />
    <glyph glyph-name="e_beng" unicode="&#x98f;" horiz-adv-x="655" 
d="M573 -17q-77 55 -164.5 79t-193.5 24q-114 0 -215 -32l97 200q1 1 21 0.5t52.5 -5.5t75 -16t90 -30.5t97 -48.5t95.5 -70q2 -2 5 -2q7 0 7 8q0 3 -3 5q-54 48 -108 80v244l-3 27q0 2 -6 15t-16.5 27.5t-26 26t-33.5 11.5q-20 0 -33.5 -9t-13.5 -8l-16 -12
q26 -8 47.5 -28.5t21.5 -48.5q0 -18 -10.5 -36.5t-29.5 -34.5t-44.5 -26t-55.5 -10q-11 0 -27 3.5t-31 10t-25.5 16.5t-10.5 24q0 11 5 27.5t5 38.5q0 16 -3.5 34t-13.5 40l107 99q36 8 69 11.5t62 3.5q33 0 59 -3.5t44 -8.5q35 -10 60.5 -32t42.5 -45t25.5 -42.5t9.5 -23.5
l1 -496z" />
    <glyph glyph-name="ai_beng" unicode="&#x990;" horiz-adv-x="837" 
d="M573 -17q-77 55 -164.5 79t-192.5 24q-115 0 -216 -32l98 200q1 1 20.5 0.5t51.5 -5.5t74.5 -15.5t89.5 -29.5t97 -48.5t97 -71.5q2 -2 5 -2q7 0 7 8q0 3 -2 5q-27 23 -54 43t-55 37l1 244l-3 27q-1 3 -7 15.5t-16.5 27t-25.5 26t-34 11.5q-21 0 -34 -9t-13 -8l-15 -12
q26 -8 47.5 -28t21.5 -48q0 -17 -10 -36t-28.5 -35t-44.5 -26.5t-57 -10.5q-12 0 -28 3.5t-31 10.5t-25.5 17.5t-10.5 24.5q0 11 5 27.5t5 37.5q0 16 -3.5 34t-13.5 39l107 99q36 8 69 11.5t62 3.5q33 0 59.5 -3.5t44.5 -8.5q35 -10 60.5 -32t42.5 -45t25 -42.5t9 -23.5v-93
q20 18 36.5 48t16.5 64q0 33 -16 67t-35.5 61t-35.5 44l-16 17l204 -28q20 -32 33.5 -68t13.5 -74q0 -29 -10 -58.5t-33 -57.5t-61.5 -53.5t-95.5 -47.5v-317z" />
    <glyph glyph-name="o_beng" unicode="&#x993;" horiz-adv-x="638" 
d="M408 134q26 8 44.5 25t18.5 37q0 11 -10 23t-28 12q-15 0 -31 -7.5t-29.5 -16.5t-22.5 -16l-9 -7l-119 54v6q0 28 18.5 56t41 56t41 55t18.5 53q0 11 -5.5 24t-16 23.5t-25.5 17.5t-33 7q-4 0 -6 -0.5t-4 -0.5h-4q17 -8 27 -23.5t10 -35.5q0 -11 -6 -26t-18 -28.5
t-31 -23t-46 -9.5q-42 0 -70 28t-33 73q0 10 10 19t23.5 22.5t26 34.5t18.5 56h143q17 -1 44.5 -10.5t53.5 -27t45 -44t19 -61.5q0 -30 -9.5 -62t-22.5 -59.5t-25 -47.5t-16 -24q-2 -2 -2 -5q0 -7 8 -7q3 0 5 3l8 10q9 11 18 21t17 21q31 -6 58 -19t46.5 -32.5t31 -45.5
t11.5 -58q0 -26 -11.5 -59t-40 -62t-77.5 -48.5t-125 -19.5q-44 0 -84 11t-74.5 27.5t-62.5 35.5t-48 35.5t-31 27l-11 10.5l79 182q30 -59 62.5 -96t64 -57.5t61 -28t53.5 -7.5q20 0 35.5 3t26.5 6z" />
    <glyph glyph-name="au_beng" unicode="&#x994;" horiz-adv-x="709" 
d="M407 134q26 8 45 25t19 37q0 11 -10 23t-28 12q-15 0 -31.5 -7.5t-30 -16.5t-22 -16l-8.5 -7l-119 54v6q0 28 18.5 56t41 56t41 55t18.5 53q0 10 -5.5 23t-16 23.5t-25 18t-33.5 7.5q-7 0 -11 -0.5t-3 -0.5q16 -7 26 -23t10 -36q0 -11 -5.5 -26t-17.5 -28.5t-31 -23
t-46 -9.5q-42 0 -70.5 28t-33.5 73q0 10 10.5 18.5t24 22t26 35t17.5 56.5h144q21 -2 51 -14t57 -33t46.5 -51.5t19.5 -67.5q0 -38 -22 -77q26 15 47.5 44t21.5 66q0 33 -16 63.5t-35.5 54.5t-35.5 38.5l-16 14.5l199 -30q19 -29 31 -57t12 -55q0 -24 -10 -45t-33 -42
t-60.5 -43.5t-92.5 -49.5q-2 0 -3 -1l-13 -8l-1 -1q-6 -3 -17.5 -9t-22.5 -13t-19 -13t-8 -10q0 -7 7 -7q3 0 4 1q17 12 32 21t34 20l10 6q54 -16 88.5 -54.5t34.5 -95.5q0 -26 -11.5 -58.5t-40 -61.5t-77.5 -49t-125 -20q-44 0 -83.5 11t-74.5 27.5t-63 35.5t-48 35.5
t-31 27l-11 10.5l79 182q30 -59 62.5 -96t64 -57.5t61 -28t53.5 -7.5q20 0 35.5 3t25.5 6z" />
    <glyph glyph-name="ka_beng" unicode="&#x995;" horiz-adv-x="939" 
d="M784 497q21 -15 39.5 -33t33 -37.5t23.5 -38.5t12 -36l-1 -144q-38 -7 -61.5 -17t-38.5 -19.5t-25 -16t-22 -6.5q-60 0 -87.5 28.5t-27.5 74.5q0 24 8 42t21 30t28 18t30 6q20 0 36.5 -8.5t24.5 -24.5q1 3 2 7q1 3 2 8t1 10q0 23 -16.5 40t-40 28.5t-49.5 17t-45 5.5
q-5 0 -9.5 -0.5t-9.5 -0.5v-456l-22 17q-56 43 -114.5 71t-117 46t-116 27t-111.5 15l-84 161q7 4 17 11q8 5 21 14t30 20q32 22 74 48t88 52t91.5 50t85.5 42v23h-464v51h959v-51h-337v-14q107 -15 172 -60zM557 85q6 0 6 7q0 3 -2 5q-53 47 -107 80v188
q-51 -28 -101.5 -59.5t-103.5 -66.5q98 -21 205 -79v1q25 -16 49 -34.5t49 -40.5q1 -1 5 -1z" />
    <glyph glyph-name="kha_beng" unicode="&#x996;" horiz-adv-x="711" 
d="M174 315q26 3 49 14t41 27.5t28.5 37.5t12.5 45q-17 -22 -50 -42.5t-78 -20.5q-18 0 -31.5 2.5t-21.5 5.5l-94 74q12 23 16.5 42t4.5 34q0 14 -2 24t-2 19q0 13 8 22.5t19.5 15.5t23 9t18.5 3q19 0 37 -7.5t32 -19.5t22.5 -28.5t8.5 -34.5q0 -20 -9 -35.5t-24 -23.5l1 1
q49 11 70 39.5t21 71.5q0 7 -0.5 13.5t-1.5 14.5h5q18 -3 43.5 -18.5t49.5 -41.5t40.5 -62.5t16.5 -79.5q0 -55 -25.5 -103t-67.5 -82q63 -22 125 -56t124 -88q2 -2 5 -2q6 0 6 7q0 3 -2 5q-53 49 -107 80v466l158 32v-53h77v-51h-77v-597l-32 25q-54 42 -108.5 72
t-113.5 50.5t-124.5 32.5t-140.5 17h-3l-76 145q39 -6 65 -6q16 0 31 1.5t32 3.5z" />
    <glyph glyph-name="ga_beng" unicode="&#x997;" horiz-adv-x="695" 
d="M567 453q7 0 7 7l-1 3q-44 87 -108 124v56l163 31v-52h77v-51h-77v-592l-163 103v307q-20 56 -64 89.5t-109 33.5q-56 0 -111 -38q53 -3 92.5 -16.5t65 -34.5t38 -48.5t12.5 -58.5q0 -42 -21 -85t-63 -83l-210 96q22 9 45 21.5t42 27t31 29.5t12 29q0 17 -23.5 27
t-79.5 15l-75 46v91q12 22 37 39.5t58 29.5t70.5 18.5t75.5 6.5q22 0 57 -5.5t74 -23t77 -50.5t65 -88q1 -4 6 -4z" />
    <glyph glyph-name="gha_beng" unicode="&#x998;" horiz-adv-x="689" 
d="M-10 571v51h709v-51h-77v-597l-30 24q-51 41 -100 66.5t-100.5 39t-108.5 18.5t-124 5l-112 143q17 10 36 22q17 11 39 25t48 31q6 0 11.5 -0.5t11.5 -0.5q34 0 65.5 4t61.5 12h1q4 0 4 6q0 7 -6 7h-2q-29 -8 -59.5 -11t-62.5 -3q-81 0 -122.5 25.5t-41.5 70.5
q0 49 52 113h-93zM286 571q-74 -64 -74 -111q0 -36 50 -36q24 0 60 9q9 4 18.5 6.5t17.5 2.5q16 0 26 -11l41 -97q-35 -22 -68.5 -45.5t-66.5 -49.5q67 -21 137.5 -57.5t133.5 -94.5q2 -2 5 -2q7 0 7 7q0 3 -2 5q-26 24 -52.5 44t-54.5 36v394h-178z" />
    <glyph glyph-name="nga_beng" unicode="&#x999;" horiz-adv-x="694" 
d="M546 472q-84 -26 -170 -26v-91q29 8 49 16t33 14q15 7 25 13l144 -33q20 -51 20 -99q0 -57 -24 -106t-66 -85.5t-99.5 -57t-124.5 -20.5q-39 0 -79 8.5t-79.5 27t-77 48.5t-71.5 73l96 258q19 -78 48.5 -128t63 -79.5t69 -40.5t65.5 -11q38 0 66 11.5t46 28.5t27 36.5
t9 36.5v6q7 3 20 9.5t25 13t21 13t9 11.5q0 7 -7 7q-3 0 -4 -1q-51 -36 -110.5 -57t-121.5 -29l-134 84v136q-30 5 -55 9.5t-42 9.5q-20 5 -36 10l-20 78q19 -8 43 -16q20 -7 48 -15.5t62 -16.5v76q7 18 24 30.5t37.5 20.5t42.5 13t40.5 7.5t30.5 3l12 0.5q6 0 11.5 0.5
t10.5 0.5q45 0 81.5 -11t63 -28.5t40.5 -39t14 -43.5q0 -23 -18 -43.5t-58 -32.5zM376 558v-58q29 1 48.5 6t31 12t16 15.5t4.5 17.5q0 16 -6.5 25t-15 14t-17 6.5t-13.5 1.5q-15 0 -24 -6.5t-14.5 -14t-7.5 -13.5z" />
    <glyph glyph-name="ca_beng" unicode="&#x99a;" horiz-adv-x="611" 
d="M-10 571v51h631v-51h-392v-62q25 -16 49.5 -24.5t54 -14.5t66 -11.5t85.5 -15.5l80 -157q-1 -1 -23 -21t-56 -49.5t-74.5 -64.5t-78 -65t-66.5 -50.5t-40 -22.5q-11 0 -27 5t-33.5 12.5t-35 16.5t-32.5 17l-27 15l-4 3v489h-77zM114 507q-7 0 -7 -7q0 -4 3 -5
q60 -52 119 -84v-195q79 67 165 144q-66 19 -136 52.5t-139 93.5q-1 1 -5 1z" />
    <glyph glyph-name="cha_beng" unicode="&#x99b;" horiz-adv-x="616" 
d="M-10 571v51h636v-51h-397v-66q70 -33 185 -39l84 -114q0 -1 -1 -1q72 -51 72 -104q0 -37 -25 -68t-65.5 -54t-92.5 -36t-106 -13q-42 0 -90 9l-1 1q-8 0 -8 -6q0 -5 13.5 -8.5t31.5 -5.5t35.5 -3t25.5 -1h13.5t13.5 1l242 -119l-25 -60l-481 196l-1 1v18l-2 160
q43 -35 91 -47.5t106 -12.5q35 0 65.5 5t53.5 14.5t36 22t13 27.5q0 11 -8 20q-37 -20 -79 -35.5t-85 -15.5q-12 0 -36.5 6.5t-51.5 15t-50.5 16t-31.5 10.5h-3v286h-77zM114 531q-7 0 -7 -7q0 -3 2 -5q58 -51 120 -85v-108q67 28 131 82q-27 2 -60 13t-71 30v-1
q-28 16 -55 36t-55 43q-2 2 -5 2z" />
    <glyph glyph-name="ja_beng" unicode="&#x99c;" horiz-adv-x="919" 
d="M-10 571v51h939v-51h-421q5 -29 17.5 -46.5t29 -28t35.5 -14t38 -3.5t35.5 2.5t27.5 4.5l161 48v-555l-171 107v299q9 1 25 4t31.5 7t27 8.5t11.5 9.5q0 7 -7 7h-1q-71 -26 -159 -28q-118 9 -185 84q-23 -37 -38 -70.5t-20 -68.5q19 -6 39 -6q21 0 39.5 5t32.5 11
t22 10.5t8 3.5l125 -53q3 -18 5 -35t2 -33q0 -54 -21.5 -99.5t-60.5 -79t-92.5 -52t-117.5 -18.5q-41 0 -83 9t-83 28.5t-80.5 50t-74.5 74.5l96 258q20 -78 50 -128t63.5 -79t68.5 -40.5t65 -11.5q49 0 81 21t43 53q7 1 20.5 4t26 7t22 8.5t9.5 9.5q0 7 -6 7q-2 0 -3 -1
q-35 -14 -75.5 -23t-82.5 -9q-41 0 -74 9q0 3 -19.5 11.5t-43 24t-44 40t-23.5 59.5q1 37 10 69t21.5 57.5t26.5 43.5t24 27h-292z" />
    <glyph glyph-name="jha_beng" unicode="&#x99d;" horiz-adv-x="974" 
d="M47 330q5 4 12 10q6 5 15 12t21 18l116 96q34 28 67.5 54t65.5 51h-354v51h626v-291q50 -5 84.5 -13.5t60.5 -24t47.5 -39t45.5 -56.5q3 -3 6 -3q7 0 7 7q0 3 -1 4q-51 73 -116 105v332l157 32v-53h77v-51h-77v-597l-112 93q-20 49 -43.5 81t-47.5 51.5t-46.5 30
t-41.5 15.5v-271l-16 13q-54 44 -105 74t-106 50.5t-117.5 33.5t-140.5 24zM566 97q-53 49 -107 80v270q-55 -43 -112.5 -90.5t-118.5 -99.5q36 -9 76.5 -23t83 -34.5t85.5 -48.5t84 -64q2 -2 4 -2q7 0 7 7q0 3 -2 5z" />
    <glyph glyph-name="nya_beng" unicode="&#x99e;" horiz-adv-x="934" 
d="M586 515q-41 -38 -63 -84q-1 -1 -1 -3q0 -7 7 -7q1 0 8 10t17 23.5t20.5 27t18.5 20.5q19 17 47.5 30.5t57.5 13.5q16 0 36.5 -6.5t38.5 -18t30 -28t12 -36.5q0 -22 -6 -42t-16 -38l16 3l65 -58q13 -26 13 -56q0 -39 -21 -67t-52.5 -46t-68 -26.5t-66.5 -8.5
q-18 0 -35.5 2t-34.5 5v-134l-16 12q-74 55 -161 79.5t-188 24.5q-118 0 -218 -33l96 199q-1 0 23.5 -1.5t65 -8t91.5 -20.5t104 -40q71 -35 142 -99q2 -2 5 -2q7 0 7 7q0 3 -2 5q-54 49 -108 80v227l-3 27q0 3 -5.5 16t-16 27t-25.5 25t-34 11q-21 0 -33 -8t-13 -9l-16 -10
q26 -8 47.5 -29t21.5 -48q0 -16 -10 -35t-28.5 -35t-44 -26.5t-56.5 -10.5q-11 0 -27 3.5t-31 10.5t-25.5 17.5t-10.5 24.5q0 11 5 26.5t5 38.5q0 15 -3.5 33t-12.5 38l105 98q36 8 68.5 12t60.5 4q50 0 85.5 -8.5t60.5 -23t42 -34t30 -41.5zM669 442q-39 -14 -61 -45
l1 -173q21 -11 44 -16t46 -5q35 0 60 12.5t25 37.5q0 9 -3 18l-8 1q-8 -14 -21.5 -20.5t-28.5 -6.5q-33 0 -53 20t-20 48q0 18 11.5 38t38.5 38h2q3 0 11 -3l8 -3q0 3 0.5 6.5t0.5 6.5q0 21 -10 34.5t-29 13.5q-4 0 -7 -0.5t-7 -1.5z" />
    <glyph glyph-name="tta_beng" unicode="&#x99f;" horiz-adv-x="649" 
d="M-10 622h390q8 8 14 20t6 28q0 22 -12 37.5t-31.5 25.5t-45 15t-53.5 5t-55 -3t-48.5 -7t-35 -6.5t-14.5 -2.5l-37 42q-1 -1 25 6t66 15.5t86.5 15.5t85.5 7q77 0 131 -14t87.5 -36.5t48.5 -51t15 -56.5q0 -5 -0.5 -11t-1.5 -11l-157 -18h205v-51h-430v-364q-43 8 -86 24
q-1 1 -2 1q-7 0 -7 -7q0 -6 14.5 -12t33.5 -10.5t38 -8t27 -4.5l30 -5q5 0 10.5 -0.5t11.5 -0.5q54 0 96.5 14.5t74.5 54.5q6 8 8 15.5t2 15.5q0 5 -1 10.5t-2 9.5q-2 4 -3 8q-8 -17 -29 -27t-47 -10q-20 0 -39 6t-34 18t-24 30.5t-9 44.5q0 53 37.5 89t113.5 36
q13 -2 24.5 -14t28 -27t41.5 -30t65 -23l1 -135q-7 -39 -34.5 -79.5t-74 -74t-111 -55t-144.5 -21.5h-13q1 0 -14 1.5t-38 6t-50 11.5t-49 19l-8 4v489h-77v51z" />
    <glyph glyph-name="ttha_beng" unicode="&#x9a0;" horiz-adv-x="600" 
d="M379 874l-19 -14t-42 -38.5t-42.5 -57t-19.5 -68.5q0 -18 6 -36.5t21 -37.5h327v-51h-272l62 -54q40 -35 69 -65.5t47.5 -61.5t27.5 -64.5t9 -75.5q0 -51 -20.5 -94.5t-58 -76t-89 -50.5t-112.5 -18q-53 0 -110 16.5t-116 54.5l35 255q11 -18 23 -33.5t23 -28.5
q16 3 39.5 11t45 21.5t36.5 34t15 47.5q0 23 -9.5 45.5t-21 40.5t-20.5 28.5l-9 10.5l27 42l10.5 -11.5t26 -30t32 -41.5t27.5 -46q12 -26 17 -50t5 -46q0 -46 -21 -82t-56 -61q-42 9 -85 46q-1 1 -5 1q-7 0 -7 -7q0 -6 10.5 -14t24 -15.5t26.5 -13t19 -6.5q22 -7 45 -7
q28 0 51 9.5t39 25t24.5 34.5t8.5 38q0 34 -13.5 70t-32.5 65q1 -1 -12 14t-31.5 36.5t-40 44.5t-37.5 39l-24 23h-242v51h192q-29 32 -48.5 71t-19.5 74q0 49 41 102z" />
    <glyph glyph-name="dda_beng" unicode="&#x9a1;" horiz-adv-x="691" 
d="M232 323v248h-241v51h710v-51h-306v-199q24 13 40.5 27t26 25.5t13.5 18.5l4 7l125 -34q39 -80 39 -151q0 -62 -24.5 -112t-67 -84.5t-98.5 -53t-119 -18.5q-39 0 -79.5 8.5t-80 27t-77 48.5t-71.5 73l95 258q19 -78 49 -128t63.5 -79.5t68.5 -40.5t65 -11q37 0 64 11.5
t45 29.5t27 40.5t9 44.5v8t-1 8q6 5 17 13.5t21.5 18.5t18.5 19t8 15q0 7 -7 7q-3 0 -11.5 -8t-19.5 -19l-22 -22t-18 -17l-3 -2l-18 -13l-3 -3q-1 0 -2 -1q-52 -34 -105 -44l-59 37z" />
    <glyph glyph-name="ddha_beng" unicode="&#x9a2;" horiz-adv-x="650" 
d="M67 82v489h-77v51h670v-51h-431v-364q-43 8 -86 24q-1 1 -2 1q-7 0 -7 -7q0 -6 14.5 -12t34 -10.5t38 -8t26.5 -4.5l30 -5q5 0 10.5 -0.5t11.5 -0.5q54 0 97 14t74 55q6 7 8 15t2 15q0 6 -1 11t-2 9q-2 4 -3 9q-8 -17 -29 -27t-47 -10q-19 0 -38 6t-34 18.5t-24.5 31.5
t-9.5 45q0 52 38 87.5t113 35.5q13 -2 24.5 -14.5t28.5 -27.5t42 -30t65 -22l1 -135q-7 -38 -34.5 -79t-74 -74.5t-111 -55t-144.5 -21.5h-13q1 0 -14 1.5t-38 6t-50 11.5t-50 19z" />
    <glyph glyph-name="nna_beng" unicode="&#x9a3;" horiz-adv-x="665" 
d="M216 227q-12 0 -23.5 10.5t-29.5 24t-45 26t-71 17.5v154q2 16 17.5 44t44 54t71 45.5t99.5 19.5q80 0 151 -45t115 -140q1 -4 7 -4q7 0 7 7q0 2 -1 3q-47 101 -122 148v52l162 31v-52h77v-51h-77v-597l-162 106v274q-7 29 -22 54.5t-36 44t-47.5 29.5t-57.5 11
q-15 0 -34.5 -5t-37 -14t-30 -21.5t-12.5 -27.5q0 -10 3 -16t3 -5q9 20 31.5 36t50.5 16q11 0 27.5 -6t32.5 -18.5t27 -33t11 -49.5q0 -23 -9.5 -43.5t-26.5 -37t-40.5 -27.5t-52.5 -14z" />
    <glyph glyph-name="ta_beng" unicode="&#x9a4;" horiz-adv-x="751" 
d="M761 622v-51h-771v51h771zM690 215q-9 -21 -19.5 -37.5t-18.5 -27.5q-10 -13 -19 -23q-39 -43 -103 -69t-145 -26q-58 0 -106.5 13.5t-88.5 33.5t-70.5 43t-51.5 43t-31.5 33t-10.5 12l119 290q17 -85 43.5 -143t59.5 -94t71 -51.5t77 -15.5q38 0 70 11.5t55 30t35.5 42
t12.5 46.5q0 38 -16 61t-35.5 35t-36.5 15.5t-18 3.5l7.5 -7t15.5 -19.5t15 -29.5t7 -36q0 -15 -8 -34t-22.5 -35t-35.5 -27t-47 -11q-25 0 -48 9t-41 24t-29 34t-11 39q0 17 8 35q26 54 33.5 85.5t7.5 48.5q0 11 -1.5 15t-1.5 5h227q84 -45 124.5 -108t40.5 -135
q0 -39 -14 -79z" />
    <glyph glyph-name="tha_beng" unicode="&#x9a5;" horiz-adv-x="731" 
d="M180 315q32 5 59.5 16.5t47 28.5t30.5 38.5t11 45.5q0 13 -5 28t-15.5 27.5t-25.5 20.5t-35 8q-8 0 -13 -0.5t-4 -0.5q17 -8 28 -25t11 -38q0 -12 -6 -27.5t-19 -30t-33.5 -24.5t-49.5 -10q-45 0 -75 29.5t-35 77.5q0 10 9.5 19.5t22 24.5t24.5 38t18 59h162
q21 -2 50 -19.5t55.5 -46t44.5 -65.5t18 -78q0 -54 -26.5 -100t-74.5 -79q63 -23 126 -57t123 -88q2 -2 5 -2q7 0 7 7q0 3 -3 5q-26 24 -52.5 44t-54.5 36v466l159 32v-53h77v-51h-77v-597l-24 18q-54 42 -111.5 71t-119 49.5t-129.5 34.5t-143 25q-5 -1 -14 -1l-76 145
q37 -6 66 -6q17 0 32.5 1.5t34.5 3.5z" />
    <glyph glyph-name="da_beng" unicode="&#x9a6;" horiz-adv-x="629" 
d="M67 137v434h-77v51h649v-51h-410v-293q46 38 78.5 79t53 74t30 54.5t9.5 20.5h162v-527l-162 103v182q59 70 96 142q1 1 1 3q0 7 -7 7q-3 0 -14.5 -16.5t-25.5 -39t-28 -44.5t-22 -32v1q-8 -10 -17 -20t-19 -20l-18 -18q-1 0 -1 -1q-58 -55 -116 -89h-162z" />
    <glyph glyph-name="dha_beng" unicode="&#x9a7;" horiz-adv-x="679" 
d="M317 339q7 0 7 7t-6 7q-44 2 -85.5 16t-73.5 40t-51 65.5t-19 92.5q3 45 20 80.5t34 47.5l126 70q20 -27 38.5 -39.5t34.5 -18t28.5 -7.5t21.5 -7t14 -16.5t5 -35.5q0 -23 -9.5 -43t-25.5 -35t-35.5 -24t-40.5 -9q-45 0 -64 19.5t-19 43.5q0 27 18 48q-1 0 -7.5 -1
t-14.5 -7t-14.5 -19t-6.5 -37q0 -44 30.5 -65.5t74.5 -21.5q40 0 80 19t77 45v89l158 32v-53h77v-51h-77v-597l-29 23q-54 43 -103 66.5t-100.5 38t-111.5 24t-137 24.5l-84 161q16 10 34 21q16 10 37.5 23t47.5 28q78 -41 151 -44zM454 361q-101 -59 -201 -123
q70 -17 147.5 -52t152.5 -98q2 -2 5 -2q7 0 7 7q0 3 -3 5v1q-54 46 -108 77v185z" />
    <glyph glyph-name="na_beng" unicode="&#x9a8;" horiz-adv-x="664" 
d="M435 206q-8 37 -25 66t-39.5 49t-48.5 30t-52 10q-18 0 -37.5 -7t-35.5 -18t-26 -26t-10 -31q0 -9 1 -11q1 -3 2 -4q9 20 32 35t51 15q11 0 27.5 -5.5t32 -18.5t26.5 -33t11 -48q0 -21 -9.5 -42.5t-26.5 -39.5t-41 -29.5t-54 -11.5q-12 0 -22.5 10.5t-27.5 24t-44 26.5
t-72 18v152q2 18 17.5 47.5t45 57.5t73.5 48t103 20q78 0 146.5 -42t115.5 -134q1 -4 6 -4q7 0 7 7v3q-49 96 -126 143v108h-445v51h445v21l162 31v-52h77v-51h-77v-597l-162 106v126z" />
    <glyph glyph-name="pa_beng" unicode="&#x9aa;" horiz-adv-x="629" 
d="M26 313q29 28 49.5 63t20.5 70q0 42 -37 80t-129 61l38 42q76 -22 131 -52l-14 32q15 4 33 7t36 4.5t35 2.5t29 1q19 0 54.5 -5t75.5 -22t79.5 -50t67.5 -90q1 -4 7 -4q7 0 7 7q0 2 -1 3q-44 87 -108 124v56l162 31v-52h77v-51h-77v-592l-162 103v303l-167 -97
q-7 -14 -15.5 -26.5t-19.5 -23.5zM351 475q-52 49 -115 49q-28 0 -56 -9q49 -51 62 -104z" />
    <glyph glyph-name="pha_beng" unicode="&#x9ab;" horiz-adv-x="927" 
d="M47 330q-1 0 17.5 11t48 28t67 38t74.5 41q-35 75 -93 123h-171v51h90q-12 6 -24.5 12t-26.5 11l41 43q67 -27 135 -66h732v-51h-656q61 -46 98 -100.5t37 -115.5v-3l-73 -43q-24 -14 -49.5 -27.5t-48.5 -29.5q72 -20 154.5 -58.5t157.5 -106.5q2 -2 4 -2q7 0 7 7
q0 3 -2 5q-26 24 -52.5 44t-54.5 36v303q68 38 148 38q62 0 110 -14.5t82 -37.5t54.5 -51t26.5 -54v-144q-35 -6 -58 -17.5t-38 -23t-25 -20t-20 -8.5q-53 8 -73 31t-20 61q0 28 7.5 49t19 34.5t25.5 20t27 6.5q17 0 32 -9t22 -26q0 1 1.5 6t1.5 13q0 18 -11.5 32
t-28.5 23.5t-35.5 14.5t-32.5 5q-30 0 -57 -12v-423l-33 26q-51 40 -100 67.5t-102 46t-114 31t-137 24.5z" />
    <glyph glyph-name="ba_beng" unicode="&#x9ac;" horiz-adv-x="683" 
d="M131 169l-84 161q5 4 12 10q6 5 15 12t21 18l116 96q67 55 132 105h-353v51h703v-51h-77v-597l-33 26q-52 41 -101 68t-102 45.5t-113.5 31t-135.5 24.5zM458 447q-55 -43 -112 -90.5t-118 -99.5q36 -9 77.5 -23t84.5 -35t85 -49t80 -63q2 -2 5 -2q7 0 7 7q0 3 -2 5
q-53 49 -107 80v270z" />
    <glyph glyph-name="bha_beng" unicode="&#x9ad;" horiz-adv-x="691" 
d="M701 622v-51h-711v51h711zM603 440q41 -80 41 -150q0 -62 -24.5 -112t-67 -85t-99.5 -53.5t-121 -18.5q-39 0 -79 8.5t-79.5 27t-77 48.5t-70.5 73l95 258q20 -79 50 -129.5t63.5 -79.5t69 -40t65.5 -11q43 0 74 16t47 42q70 28 114 77q2 2 2 5q0 7 -7 7q-3 0 -5 -2
q-16 -18 -39 -35t-50 -29.5t-58 -20.5t-62 -8q-36 0 -70.5 12.5t-61.5 34.5t-43.5 53t-16.5 69q0 26 9 52.5t27.5 48.5t45.5 35.5t63 13.5q24 0 44 -8t34.5 -21.5t22 -31.5t7.5 -37q0 -38 -23.5 -59.5t-54.5 -21.5q-32 0 -50.5 18t-18.5 38q0 8 5 18h-4q-7 -14 -7 -26
q0 -10 5.5 -21.5t16 -22t27 -17.5t39.5 -7q40 0 85.5 30.5t90.5 108.5l5 -3.5t12 -10t15 -15t14 -18.5z" />
    <glyph glyph-name="ma_beng" unicode="&#x9ae;" horiz-adv-x="699" 
d="M236 401q3 16 3 33q0 36 -17.5 70.5t-59.5 66.5h-172v51h82l-38 16l41 43q42 -14 76 -29t63 -30h495v-51h-77v-592l-162 103v39q-5 29 -21.5 59t-42 55t-57.5 40.5t-66 15.5q-24 0 -40 -5t-25.5 -12.5t-14 -16t-4.5 -14.5q0 -5 1 -8.5t1 -2.5q12 13 31.5 21t42.5 8
q15 0 33.5 -6t35 -18.5t28 -33.5t11.5 -51q0 -21 -10.5 -40.5t-28.5 -35t-43 -24.5t-55 -9q-22 0 -39.5 4.5t-32.5 30.5q-12 20 -41 46t-86 48l43 146q10 20 48 45t98 38zM470 571h-172q54 -42 76.5 -82.5t22.5 -84.5v-12q51 -16 96.5 -51.5t82.5 -89.5q1 -3 4 -3q8 0 8 7
q0 2 -2 4q-50 75 -116 115v197z" />
    <glyph glyph-name="ya_beng" unicode="&#x9af;" horiz-adv-x="684" 
d="M47 330l18 11t47.5 28.5t67 38.5t76.5 41q-36 74 -96 122h-170v51h85l-38 17l40 43q60 -25 121 -60h496v-51h-77v-597l-33 26q-51 40 -100 67.5t-102.5 46t-114 31t-135.5 24.5zM415 352l-72 -43q-24 -14 -49.5 -27.5t-48.5 -29.5q72 -20 153 -58t159 -107q2 -2 5 -2
q7 0 7 7q0 3 -3 5q-53 49 -107 80v394h-181q63 -47 100 -100.5t37 -116.5v-2z" />
    <glyph glyph-name="ra_beng" unicode="&#x9b0;" horiz-adv-x="685" 
d="M47 330q5 4 12 10q6 5 15 12t21 18l117 96l132 105h-354v51h705v-51h-77v-597l-34 27q-99 78 -196 110q-8 34 -29 51t-41 17q-11 0 -22 -2.5t-19 -2.5q-11 0 -18 1.5t-8 1.5l-10 2l-7 -7q0 -1 -4 -6t-8 -13q-21 4 -43.5 8t-46.5 8zM566 97q-26 24 -52.5 44t-54.5 36v270
q-55 -43 -112.5 -90.5t-117.5 -99.5q42 -11 88 -28.5t97 -42.5l103 -65q4 -3 10.5 -9l13 -12t12.5 -10.5t9 -4.5q7 0 7 7q0 3 -3 5zM310 162q3 1 8 1q11 0 21 -7t18 -17.5t12.5 -24.5t4.5 -27q0 -26 -21.5 -44.5t-56.5 -18.5q-18 0 -32 6.5t-23.5 16.5t-14.5 22.5t-5 23.5
q0 14 4 26t9 21q5 11 13 20q2 0 10 -1.5t19 -1.5q8 0 16.5 1t17.5 4z" />
    <glyph glyph-name="la_beng" unicode="&#x9b2;" horiz-adv-x="822" 
d="M-10 571v51h842v-51h-77v-592l-162 103v159q-13 8 -24 11.5t-21 3.5q-24 0 -40 -18t-25 -40t-12.5 -39.5l-3.5 -17.5l-124 70q0 58 -13.5 99.5t-59.5 64.5q-24 11 -43 11q-12 0 -26 -5t-27 -13.5t-21.5 -20.5t-8.5 -26q0 -8 1.5 -12.5t1.5 -3.5q8 18 26 31.5t41 13.5
q9 0 23 -5.5t27 -17t22.5 -30t9.5 -45.5q0 -20 -8 -38.5t-22 -32.5t-34 -23.5t-44 -12.5q-10 0 -19 9.5t-24 22.5t-38 25t-60 17l2 138q1 10 8 25t18.5 31.5t28 32t37.5 27.5q63 30 118 30q67 0 118 -37.5t77 -95.5q45 51 100 51q40 0 74.5 -22t63.5 -63q3 -3 6 -3q7 0 7 7
q0 3 -1 4q-50 70 -111 86v141h-603z" />
    <glyph glyph-name="sha_beng" unicode="&#x9b6;" horiz-adv-x="835" 
d="M-10 622h105q15 -1 47 -4t68 -14t70.5 -31.5t54.5 -56.5q36 27 76 38t70 11q16 0 44 -4t60 -18.5t64 -43t56 -76.5q2 -5 6 -5q7 0 7 7v3q-44 89 -112 121v93l162 32v-52h77v-51h-77v-574l-162 102l-1 257q-5 28 -18 49t-30.5 34.5t-38.5 20.5t-42 7q-19 0 -38.5 -6
t-35.5 -18t-26 -29.5t-10 -40.5q0 -15 6 -27.5t15.5 -22t21 -15.5t21.5 -7l-2 3q-14 5 -25 21t-11 35q0 16 8 28t20 19.5t25 11.5t24 4q38 0 60.5 -27.5t22.5 -67.5q0 -27 -12 -48.5t-31 -36.5t-42 -22.5t-45 -7.5q-54 0 -90.5 27t-50.5 69q-29 -29 -60 -38.5t-57 -9.5
q-21 0 -42 7t-38 20.5t-27.5 34t-10.5 47.5q0 19 5 37t5 35q0 11 -3 21t-11 21q0 1 7 5t18.5 8t26 7t30.5 3q12 0 27 -3.5t28 -12t22 -23t9 -36.5q0 -20 -9.5 -38.5t-28.5 -30.5l-2 -3q26 2 47.5 23t21.5 56q0 46 -21 72.5t-51 40t-63.5 17t-58.5 3.5q-6 0 -12.5 -0.5
t-12.5 -0.5h-30v51z" />
    <glyph glyph-name="ssa_beng" unicode="&#x9b7;" horiz-adv-x="684" 
d="M78 680q30 -13 60 -27t60 -31h496v-51h-77v-597l-33 26q-51 40 -100 67.5t-102.5 46t-114 31t-135.5 24.5l-85 161l18 11t48 28.5t67.5 38.5t76.5 41q-37 75 -97 122h-170v51h83q-8 4 -16.5 7.5t-18.5 7.5zM569 92q0 3 -3 5q-53 49 -107 80v139q-30 16 -58 27l-156 -91
q72 -20 153 -58t159 -107q2 -2 5 -2q7 0 7 7zM459 571h-182q85 -63 123 -141q26 -13 51.5 -26t51.5 -30q1 -1 3 -1q7 0 7 7q0 3 -6.5 8t-15.5 10.5t-18 10.5t-14 8v154z" />
    <glyph glyph-name="sa_beng" unicode="&#x9b8;" horiz-adv-x="677" 
d="M0 160q59 20 97.5 45.5t61.5 54t32 58t9 58.5q0 61 -28.5 112t-72.5 83h-109v51h34q-8 5 -15 9.5t-15 9.5l54 33q26 -11 53 -24t55 -28h531v-51h-77v-592l-161 103v81q-45 61 -87 75q-32 -116 -144 -192zM449 571h-210q30 -21 53.5 -49t40 -58.5t26 -62.5t11.5 -62
q35 -9 79 -32v1q61 -32 107 -99q1 -3 5 -3q8 0 8 7q0 2 -2 4q-50 72 -118 107v247z" />
    <glyph glyph-name="ha_beng" unicode="&#x9b9;" horiz-adv-x="594" 
d="M577 13l-117 -103l-460 218l80 165q48 -26 90.5 -35.5t77.5 -9.5q34 0 63 8t49.5 22t32 33t11.5 41q0 33 -33 68q-9 9 -21.5 15t-23.5 9t-18.5 4.5l-7.5 1.5l-8 -9q14 -20 14 -39q0 -20 -10.5 -37t-27 -29.5t-36.5 -19.5t-39 -7q-23 0 -43.5 6t-36.5 18.5t-26.5 31
t-13.5 43.5q1 11 8 20.5t16 23t18.5 35t14.5 56.5h183q22 0 49 -8.5t53.5 -21.5t48 -28.5t33.5 -28.5q26 -29 37.5 -60t11.5 -62q0 -37 -15.5 -71.5t-43 -62.5t-66 -48t-83.5 -27q-29 0 -59 -5t-60 -6q-7 0 -7 -7t7 -7q35 1 67.5 4.5t64.5 8.5zM-10 571v51h614v-51h-614z
" />
    <glyph glyph-name="signnuktacomb_beng" unicode="&#x9bc;" 
d="M-380 9q3 1 9 1q11 0 20.5 -6.5t17 -17t12 -24t4.5 -26.5q0 -26 -19.5 -44.5t-56.5 -18.5q-18 0 -32 7t-23.5 17.5t-14.5 22.5t-5 23q0 13 4 25t9 21q5 11 13 19q5 -1 9 -2q5 -1 21 -1q17 0 32 4z" />
    <glyph glyph-name="signavagraha_beng" unicode="&#x9bd;" horiz-adv-x="594" 
d="M229 622q30 -17 61.5 -38t54.5 -44q54 -12 92.5 -35.5t62.5 -52.5t35 -60t11 -58q0 -37 -15.5 -71.5t-43 -62.5t-66 -48t-83.5 -27q-29 0 -59 -5t-60 -6q-7 0 -7 -7t7 -7q35 1 67.5 4.5t64.5 8.5l226 -100l-117 -103l-460 218l80 165q48 -26 90.5 -35.5t77.5 -9.5
q34 0 63 8t49.5 22t32 33t11.5 41q0 15 -7 30t-19 28t-28.5 23t-36.5 15q-9 0 -11 2h-2l-8 -9q14 -20 14 -39q0 -20 -10.5 -37t-27 -29.5t-36.5 -19.5t-39 -7q-23 0 -43.5 6t-36.5 18.5t-26.5 31t-13.5 43.5q1 11 8 20.5t16 23t18.5 35t14.5 56.5h88q-12 13 -30 28h-198v51
h239z" />
    <glyph glyph-name="vowelsignaa_beng" unicode="&#x9be;" horiz-adv-x="298" 
d="M-10 622h18q28 0 52 -11l7 -3q61 -28 96 -118q2 -5 7 -5q7 0 7 7v3q-39 98 -110 128v20l164 30v-51h77v-51h-77v-596l-164 106v413q-10 27 -21 42t-22 23q-12 9 -24 12h-10v51z" />
    <glyph glyph-name="vowelsigni_beng" unicode="&#x9bf;" horiz-adv-x="296" 
d="M-10 622h16q29 0 54 -11l6 -3q60 -28 97 -118q2 -5 7 -5q7 0 7 7q0 2 -1 3q-41 98 -110 129q-13 18 -22 42.5t-9 51.5q0 26 10.5 52t36 49t69 41.5t108.5 30.5q29 5 56 7.5t53 2.5q57 0 105.5 -9t83.5 -19.5t54.5 -19t19.5 -7.5l-66 -50l-10.5 4.5t-30 10t-45.5 10.5
t-56 5q-26 0 -59.5 -7t-63.5 -22.5t-51 -39.5t-21 -58q0 -24 7.5 -45t13.5 -32h57v-51h-77v-596l-162 106v413q-10 27 -22 42.5t-22.5 23t-17 9.5l-6.5 2h-9v51z" />
    <glyph glyph-name="vowelsignii_beng" unicode="&#x9c0;" horiz-adv-x="296" 
d="M-10 622h17q26 0 53 -11l6 -3q60 -28 97 -118q2 -5 7 -5q7 0 7 7q0 2 -1 3q-39 98 -109 128q-1 7 -1 14v15q0 21 2 43.5t2 43.5q0 32 -7.5 56t-27.5 35q-28 12 -54 16.5t-49 4.5q-28 0 -51.5 -5t-40 -11t-25 -11l-8.5 -5l-1 -20q-1 -13 12 -21.5t39 -22.5t64.5 -39.5
t88.5 -73.5h-119q-16 21 -44 42.5t-55.5 43t-47.5 42.5t-20 42q0 7 -0.5 11.5t3 9t13.5 11t32 19.5q29 17 76.5 30.5t114.5 13.5q89 0 145 -16.5t87.5 -41t43 -52.5t11.5 -51q0 -20 -4.5 -39.5t-8.5 -36.5l-8 -34v-14h77v-51h-77v-596l-162 106v413q-11 27 -22 42t-22 23
q-12 9 -24 12h-9v51z" />
    <glyph glyph-name="vowelsignucomb_beng" unicode="&#x9c1;" 
d="M-257 -91q-29 -9 -44 -26t-15 -31q0 -10 7.5 -16.5t22.5 -6.5q24 0 39.5 22.5t18.5 62.5q-11 0 -29 -5zM-229 22v93l162 -55v-50q36 -8 69.5 -23t62 -33t51 -37t36.5 -34l25 -27l-43 -178q-42 90 -94.5 139.5t-106.5 70.5q-11 -51 -32.5 -84.5t-50 -53.5t-63 -28
t-71.5 -8q-32 0 -59 9t-46.5 26t-31 41.5t-11.5 56.5q0 28 13.5 56t39.5 52.5t64 42t86 24.5z" />
    <glyph glyph-name="vowelsignuucomb_beng" unicode="&#x9c2;" 
d="M-229 21v94l162 -55v-39q5 -13 5 -29q0 -40 -52 -59q-30 -14 -48 -32.5t-18 -38.5q0 -8 6 -15.5t19 -7.5q17 0 31 14.5t24 32t16 32l6 14.5h13q59 -5 111.5 -23t92 -39t64 -39t26.5 -22l-37 -155q-45 75 -94.5 114.5t-94.5 61.5q-7 -19 -20 -37t-32.5 -32.5t-44.5 -23.5
t-55 -9t-61.5 11t-57.5 30.5t-43 47t-17 61.5q0 21 8.5 43.5t22 42t31.5 35t37 22.5z" />
    <glyph glyph-name="vowelsignvocalicrcomb_beng" unicode="&#x9c3;" 
d="M-67 -21l-44 -27q-33 -20 -65 -43t-65 -46q102 -27 194 -101l54 -80q-41 32 -75.5 53.5t-68 34t-70.5 17.5t-82 5q-8 0 -16.5 -0.5t-16.5 -0.5l-113 88l1 1q5 5 21.5 18t39 29t47 34t45.5 33t35.5 25t16.5 11v85l162 -55v-81z" />
    <glyph glyph-name="vowelsigne_beng" unicode="&#x9c7;" horiz-adv-x="372" 
d="M-38 571v51h457v-51h-49q-2 -8 -9 -17t-16 -17.5t-17 -15t-12 -8.5q-22 -17 -47 -43t-46.5 -63.5t-35.5 -88t-14 -115.5q0 -51 10 -82.5t23.5 -49t27.5 -23t21 -5.5h4l1 1q-14 20 -14 38q0 27 22.5 44.5t56.5 17.5q9 0 22.5 -4.5t26.5 -14t22 -25.5t9 -39q0 -11 -5 -29.5
t-5 -42.5v-12l-153 -33q-54 16 -96.5 54t-69.5 80q-8 12 -16.5 33t-16 47.5t-12.5 57.5t-5 63q0 70 21 132.5t74 124.5q21 24 26 35h-185z" />
    <glyph glyph-name="vowelsignai_beng" unicode="&#x9c8;" horiz-adv-x="372" 
d="M212 727q52 -7 85 -16.5t52 -21.5t26 -27t7 -31v-9h37v-51h-49q-5 -14 -20 -28t-27 -24l-7 -6q-22 -17 -47 -43t-46.5 -64t-35.5 -88.5t-14 -115.5q0 -51 10.5 -82t24 -48.5t27 -23t19.5 -5.5h4l1 1q-13 19 -13 39q0 23 21 42t59 19q10 0 22.5 -4t23.5 -13.5t20 -24.5
t13 -37q0 -11 -5 -31t-5 -45v-12l-154 -33q-53 16 -96.5 54t-69.5 80q-8 12 -16.5 32.5t-15.5 47.5t-12 58t-5 63q0 70 20.5 132.5t73.5 124.5q23 26 27 35h-187v51h240q2 6 2 12q0 22 -16 33.5t-36.5 16.5t-39.5 5h-25l-22 38l7 0.5t19 1t27 1t32 0.5q35 0 64 -3z" />
    <glyph glyph-name="vowelsigno_beng" unicode="&#x9cb;" horiz-adv-x="1300" 
d="M-38 571v51h457v-51h-49q-2 -8 -9 -17t-16 -17.5t-17 -15t-12 -8.5q-22 -17 -47 -43t-46.5 -63.5t-35.5 -88t-14 -115.5q0 -51 10 -82.5t23.5 -49t27.5 -23t21 -5.5h4l1 1q-14 20 -14 38q0 27 22.5 44.5t56.5 17.5q9 0 22.5 -4.5t26.5 -14t22 -25.5t9 -39q0 -11 -5 -29.5
t-5 -42.5v-12l-153 -33q-54 16 -96.5 54t-69.5 80q-8 12 -16.5 33t-16 47.5t-12.5 57.5t-5 63q0 70 21 132.5t74 124.5q21 24 26 35h-185zM459 266q-17 0 -29.5 12t-12.5 30q0 19 12.5 30.5t29.5 11.5q18 0 30 -11.5t12 -30.5q0 -18 -12 -30t-30 -12zM919 266
q-17 0 -29.5 12t-12.5 30q0 19 12.5 30.5t29.5 11.5t29.5 -11.5t12.5 -30.5q0 -18 -12.5 -30t-29.5 -12zM646 538q0 18 13 30.5t30 12.5t29 -12.5t12 -30.5t-12 -30t-29 -12t-30 12t-13 30zM646 78q0 18 13 30.5t30 12.5t29 -12.5t12 -30.5q0 -17 -12 -29t-29 -12t-30 12
t-13 29zM768 529q5 10 15.5 15.5t21.5 5.5q20 0 30 -13.5t10 -30.5q0 -19 -13 -29.5t-28 -10.5q-17 0 -30 11.5t-13 30.5q0 11 7 21zM537 131q6 9 16.5 15t20.5 6q18 0 30 -14t12 -30q0 -19 -13.5 -30t-29.5 -11q-20 0 -30.5 13t-10.5 29q0 10 5 22zM867 459q10 7 20 7
q18 0 30 -11.5t12 -30.5q0 -18 -11 -30t-31 -12q-15 0 -28.5 11t-13.5 32t22 34zM468 230q10 5 21 5q17 0 30 -12t13 -29t-12.5 -29.5t-29.5 -12.5t-29.5 12t-12.5 29q0 22 20 37zM909 230q20 -14 20 -36q0 -19 -12 -30.5t-30 -11.5q-19 0 -30.5 12.5t-11.5 28.5
q0 20 13.5 31t28.5 11q9 0 22 -5zM510 459q22 -10 22 -35q0 -19 -13 -30.5t-30 -11.5t-29 12t-12 31q0 16 12.5 28.5t29.5 12.5q13 0 20 -7zM841 131q4 -7 4 -21q0 -16 -10 -29.5t-30 -13.5q-16 0 -30 11.5t-14 30.5q0 16 12.5 29.5t30.5 13.5q10 0 20.5 -5.5t16.5 -15.5z
M611 529q5 -12 5 -20q0 -17 -12 -30t-30 -13q-16 0 -29 11.5t-13 30.5q0 16 10.5 29t30.5 13q24 0 38 -21zM997 622h18q28 0 52 -11l7 -3q61 -28 96 -118q2 -5 7 -5q7 0 7 7v3q-39 98 -110 128v20l164 30v-51h77v-51h-77v-596l-164 106v413q-10 27 -21 42t-22 23
q-12 9 -24 12h-10v51z" />
    <glyph glyph-name="vowelsignau_beng" unicode="&#x9cc;" horiz-adv-x="1300" 
d="M-38 571v51h457v-51h-49q-2 -8 -9 -17t-16 -17.5t-17 -15t-12 -8.5q-22 -17 -47 -43t-46.5 -63.5t-35.5 -88t-14 -115.5q0 -51 10 -82.5t23.5 -49t27.5 -23t21 -5.5h4l1 1q-14 20 -14 38q0 27 22.5 44.5t56.5 17.5q9 0 22.5 -4.5t26.5 -14t22 -25.5t9 -39q0 -11 -5 -29.5
t-5 -42.5v-12l-153 -33q-54 16 -96.5 54t-69.5 80q-8 12 -16.5 33t-16 47.5t-12.5 57.5t-5 63q0 70 21 132.5t74 124.5q21 24 26 35h-185zM459 266q-17 0 -29.5 12t-12.5 30q0 19 12.5 30.5t29.5 11.5q18 0 30 -11.5t12 -30.5q0 -18 -12 -30t-30 -12zM919 266
q-17 0 -29.5 12t-12.5 30q0 19 12.5 30.5t29.5 11.5t29.5 -11.5t12.5 -30.5q0 -18 -12.5 -30t-29.5 -12zM646 538q0 18 13 30.5t30 12.5t29 -12.5t12 -30.5t-12 -30t-29 -12t-30 12t-13 30zM646 78q0 18 13 30.5t30 12.5t29 -12.5t12 -30.5q0 -17 -12 -29t-29 -12t-30 12
t-13 29zM768 529q5 10 15.5 15.5t21.5 5.5q20 0 30 -13.5t10 -30.5q0 -19 -13 -29.5t-28 -10.5q-17 0 -30 11.5t-13 30.5q0 11 7 21zM537 131q6 9 16.5 15t20.5 6q18 0 30 -14t12 -30q0 -19 -13.5 -30t-29.5 -11q-20 0 -30.5 13t-10.5 29q0 10 5 22zM867 459q10 7 20 7
q18 0 30 -11.5t12 -30.5q0 -18 -11 -30t-31 -12q-15 0 -28.5 11t-13.5 32t22 34zM468 230q10 5 21 5q17 0 30 -12t13 -29t-12.5 -29.5t-29.5 -12.5t-29.5 12t-12.5 29q0 22 20 37zM909 230q20 -14 20 -36q0 -19 -12 -30.5t-30 -11.5q-19 0 -30.5 12.5t-11.5 28.5
q0 20 13.5 31t28.5 11q9 0 22 -5zM510 459q22 -10 22 -35q0 -19 -13 -30.5t-30 -11.5t-29 12t-12 31q0 16 12.5 28.5t29.5 12.5q13 0 20 -7zM841 131q4 -7 4 -21q0 -16 -10 -29.5t-30 -13.5q-16 0 -30 11.5t-14 30.5q0 16 12.5 29.5t30.5 13.5q10 0 20.5 -5.5t16.5 -15.5z
M611 529q5 -12 5 -20q0 -17 -12 -30t-30 -13q-16 0 -29 11.5t-13 30.5q0 16 10.5 29t30.5 13q24 0 38 -21zM997 622h17q28 0 53 -11l7 -3q62 -29 98 -118q2 -5 6 -5q7 0 7 7v3q-40 96 -108 127v5q0 10 -2 21t-9.5 20t-23 15t-42.5 6q-19 0 -37 2t-33 8.5t-26.5 19
t-16.5 33.5l132 59q-1 -1 -1 -2v-4q0 -6 2.5 -15.5t12 -19t27 -18t47.5 -12.5q41 -5 67 -17.5t41 -28.5t20.5 -35t5.5 -37h74v-51h-77v-599l-164 106v416q-15 41 -32 56.5t-35 20.5h-10v51z" />
    <glyph glyph-name="signviramacomb_beng" unicode="&#x9cd;" 
d="M-255 -101l101 60l16.5 -4t38.5 -17t44 -37.5t33 -66.5l-58 -20q-76 82 -175 85z" />
    <glyph glyph-name="khandata_beng" unicode="&#x9ce;" horiz-adv-x="640" 
d="M264 -24q13 30 18.5 55t5.5 45q0 43 -21.5 72t-52 52.5t-64.5 44t-59 46.5q-20 20 -31.5 50.5t-11.5 65.5q0 33 14.5 67.5t46.5 64.5t82.5 52.5t122.5 31.5l184 -1q7 -48 23 -77t32 -48t28 -31t12 -27q-5 -60 -38 -100t-83 -40q-35 0 -60 13.5t-41.5 32.5t-24 40t-7.5 37
q0 26 13 48t35 31l-2 4.5t-4 10.5t-4.5 11t-4.5 5q-5 1 -10 1h-10q-27 0 -50 -10t-39 -26t-25 -36t-9 -40q0 -43 23.5 -69t59.5 -44.5t77 -35t77 -41.5t59.5 -63.5t23.5 -99.5v-13.5t-1 -14.5z" />
    <glyph glyph-name="aulength_beng" unicode="&#x9d7;" horiz-adv-x="298" 
d="M-10 622h17q28 0 53 -11l7 -3q62 -29 98 -118q2 -5 6 -5q7 0 7 7v3q-40 96 -108 127v5q0 10 -2 21t-9.5 20t-23 15t-42.5 6q-19 0 -37 2t-33 8.5t-26.5 19t-16.5 33.5l132 59q-1 -1 -1 -2v-4q0 -6 2.5 -15.5t12 -19t27 -18t47.5 -12.5q41 -5 67 -17.5t41 -28.5t20.5 -35
t5.5 -37h74v-51h-77v-599l-164 106v416q-15 41 -32 56.5t-35 20.5h-10v51z" />
    <glyph glyph-name="rra_beng" unicode="&#x9dc;" horiz-adv-x="691" 
d="M312 73q3 1 10 1q12 0 22 -6.5t17.5 -17t11.5 -24t4 -26.5q0 -28 -20.5 -46.5t-56.5 -18.5q-19 0 -33 7t-23.5 17.5t-14.5 23t-5 23.5q0 13 4 25t9 21t9 14.5l4 5.5q5 -1 9 -2q5 -1 21 -1q17 0 32 4zM233 323v248h-243v51h711v-51h-306v-199q25 13 41.5 27t26 25.5
t13.5 18.5l4 7l123 -34q41 -80 41 -150q0 -57 -20 -102t-54 -78t-79.5 -54t-97.5 -30q-3 43 -25 66t-45 23q-11 0 -22.5 -3t-21.5 -3t-16.5 1t-7.5 1l-10 3l-7 -8q-1 0 -13 -18t-17 -44q-98 33 -182 134l96 258q19 -78 49 -128t63.5 -79.5t68.5 -40.5t65 -11q36 0 63 11
t45 29t27 40.5t9 44.5v8.5t-1 8.5q6 5 17 14t22 18.5t19 19t8 14.5q0 7 -7 7q-3 0 -11.5 -8t-20 -19t-22.5 -22t-18 -17l-3 -2q-3 -2 -6 -5t-7 -5l-8 -6l-1 -1q-54 -34 -106 -44l-58 37z" />
    <glyph glyph-name="rha_beng" unicode="&#x9dd;" horiz-adv-x="650" 
d="M241 91q3 1 10 1q11 0 20.5 -6.5t17 -17t12 -24t4.5 -26.5q0 -23 -18.5 -43.5t-62.5 -20.5q-18 0 -31 7t-22 17.5t-13.5 23t-4.5 22.5q0 13 4 25.5t9 21.5t9 14l4 5l8 -2q5 -1 21 -1q17 0 33 4zM67 82v489h-77v51h670v-51h-432v-364q-42 8 -85 24q-1 1 -3 1q-7 0 -7 -7
q0 -6 14.5 -12t34 -10.5t38 -8t26.5 -4.5l30 -5q5 0 11 -0.5t11 -0.5q55 0 97.5 14t73.5 55q12 15 10 31q0 6 -1 11t-2 9l-2 8q-8 -17 -29.5 -27t-47.5 -10q-20 0 -39 6t-34 18.5t-24 31.5t-9 45q0 53 38 88t114 35q13 -2 24 -14.5t27.5 -27.5t42 -30t66.5 -22v-135
q-6 -35 -27.5 -69.5t-58.5 -65t-87 -54t-113 -35.5q-2 15 -9.5 27t-17 20t-20 12t-19.5 4q-11 0 -22.5 -2.5t-20.5 -2.5q-13 0 -17 1q-4 0 -7 1l-11 3l-7 -8q-1 -1 -10 -13.5t-16 -32.5q-33 7 -66 23z" />
    <glyph glyph-name="yya_beng" unicode="&#x9df;" horiz-adv-x="683" 
d="M312 162q3 1 9 1q11 0 21 -7t17.5 -17.5t12 -24.5t4.5 -27q0 -26 -21 -44.5t-56 -18.5q-18 0 -32 7t-23.5 17t-14.5 22t-5 23q0 14 4 26t9 21t9 14.5l4 5.5q2 0 9.5 -1.5t19.5 -1.5q7 0 15.5 1t17.5 4zM255 449q-36 74 -95 122h-170v51h88q-11 5 -22.5 10.5t-24.5 10.5
l41 42q64 -26 129 -63h492v-51h-77v-597l-33 27q-96 75 -193 108q-8 36 -27.5 53t-42.5 17q-10 0 -20.5 -2.5t-19.5 -2.5q-14 0 -18 1t-7 2l-11 3l-7 -8q0 -1 -4 -6t-9 -13q-22 4 -45 8t-48 8l-84 161l18 11t47 28.5t66.5 38.5t76.5 41zM458 571h-178q61 -47 97.5 -100.5
t36.5 -116.5l1 -2l-73 -43q-24 -14 -49.5 -27.5t-48.5 -29.5q72 -20 154.5 -58.5t157.5 -106.5q2 -2 5 -2q7 0 7 7q0 3 -2 5q-56 49 -108 80v394z" />
    <glyph glyph-name="zero_beng" unicode="&#x9e6;" horiz-adv-x="663" 
d="M326 514q75 -12 129.5 -38t90.5 -61t53 -75t17 -79q0 -1 -2.5 -19t-14 -45.5t-35.5 -59t-66 -58.5t-106 -45t-155 -18q-30 0 -64 14t-62.5 43t-47.5 74.5t-19 107.5q0 23 2.5 46.5t27.5 48.5q9 9 19.5 23t20 33.5t17.5 46t12 61.5h183zM346 179q16 9 27.5 23.5t19 31.5
t11 35t3.5 34q0 15 -8.5 34t-22.5 36t-31 29t-34 12q-20 0 -26 -26q-6 -23 -15 -45t-18.5 -40.5t-18.5 -32.5t-13 -20q-31 -45 -79 -82q-3 -2 -3 -6q0 -6 6 -6q3 0 4 1q44 34 76 75q5 -9 12.5 -19.5t18 -19.5t24 -15.5t30.5 -6.5q15 0 37 8z" />
    <glyph glyph-name="one_beng" unicode="&#x9e7;" horiz-adv-x="663" 
d="M381 630q-21 -50 -21 -83t22 -54.5t54.5 -40t68.5 -37.5t64 -47q23 -23 35.5 -58.5t11.5 -84.5q0 -33 -18 -68.5t-54 -66.5t-90 -54.5t-126 -31.5h-185q-8 48 -23.5 77t-32 47.5t-28.5 30.5t-12 24q3 30 14.5 55.5t29.5 43.5t41.5 28.5t50.5 10.5q39 0 66 -15.5t44 -37
t24.5 -43.5t7.5 -35q0 -48 -42 -67l2 -4.5t4.5 -10.5t5 -11t4.5 -5q5 -1 9.5 -1.5t9.5 -0.5q34 0 57 15t36.5 36.5t19 45t5.5 40.5q0 43 -21.5 69t-53.5 45t-69 35.5t-69 39.5t-53.5 57t-21.5 88q0 4 0.5 7.5t0.5 7.5z" />
    <glyph glyph-name="two_beng" unicode="&#x9e8;" horiz-adv-x="595" 
d="M335 172l252 -101l-87 -85l-500 209l61 164q34 -30 72 -42t74 -12q38 0 65 8t44 19.5t25 25t8 24.5q0 22 -18.5 36t-46 25.5t-60 22.5t-61 26.5t-48.5 38t-23 56.5l221 42q-4 -12 -4 -24q0 -25 17.5 -43.5t44.5 -35t57.5 -32.5t57.5 -36.5t44.5 -47t17.5 -62.5
q0 -78 -80 -124t-254 -46h-28q-7 0 -7 -7q0 -4 3.5 -5.5t8.5 -2t10 0t9 0.5q33 0 64 1.5t61 6.5z" />
    <glyph glyph-name="three_beng" unicode="&#x9e9;" horiz-adv-x="726" 
d="M442 50q-27 -5 -52 -7.5t-48 -2.5q-53 0 -97 11t-79.5 27t-61.5 35t-43.5 35t-26 26l-8.5 10l109 297q16 -75 41 -127.5t56 -85.5t65.5 -48t69.5 -15q37 0 69 12t56 32t37.5 47t13.5 56q0 46 -16 72.5t-36 40.5q-23 16 -52 21l7.5 -7.5t15.5 -21t15 -31.5t7 -39
q0 -16 -7.5 -36.5t-22 -38.5t-35.5 -30t-48 -12q-24 0 -47.5 10t-41.5 26.5t-29 37.5t-11 42q0 19 7 36q26 60 34.5 90.5t7.5 44.5q0 7 -2 11q-1 2 -1 3l227 19q81 -48 122.5 -115.5t41.5 -145.5q0 -38 -11 -72t-24 -59.5t-24.5 -40t-11.5 -12.5q-59 -71 -166 -95z" />
    <glyph glyph-name="four_beng" unicode="&#x9ea;" horiz-adv-x="751" 
d="M71 460q3 10 16.5 19t29.5 22t31.5 33t22.5 52l195 -1q78 -7 136.5 -22.5t97.5 -36t58.5 -44.5t19.5 -46q0 -3 -2.5 -16t-15.5 -31t-40.5 -37.5t-76.5 -36.5q85 -28 123 -64.5t38 -71.5l-3 -11.5t-15 -29t-38 -38.5t-72 -38.5t-116 -29.5t-171 -12q-34 0 -76 7t-79 24.5
t-62 47.5t-25 77v17t4.5 17t15.5 19.5t34 24.5q14 8 27.5 17.5t27.5 20.5q29 -11 57 -18.5t55 -9.5h1q7 0 7 7t-7 7q-32 3 -67.5 12.5t-65.5 27.5t-49.5 45t-19.5 65q0 8 1 16t3 16zM393 127q38 11 54 35.5t16 44.5q0 12 -10.5 23t-26.5 19.5t-34 13.5t-34 5q-15 0 -17 -5
q-11 -17 -28 -34t-32 -30.5t-26 -21.5t-10 -8q0 1 6 -6.5t19.5 -16.5t33 -17t46.5 -8q19 0 43 6zM333 509q-6 -17 -19.5 -32.5t-28 -27.5t-25 -19.5l-10.5 -7.5l2.5 -9t11 -20t26.5 -20t50 -9q20 0 40.5 12.5t37 29t27 33t10.5 24.5q-2 9 -12 20t-24 20t-30 15.5t-29 6.5
q-22 0 -27 -16z" />
    <glyph glyph-name="five_beng" unicode="&#x9eb;" horiz-adv-x="613" 
d="M176 72q-21 8 -44 26.5t-41.5 46t-31 63.5t-12.5 79q0 19 1 38t7 41.5t18.5 50.5t35.5 66q40 67 150 141l156 -76l-6 -14q-2 -6 -4 -13t-2 -15q0 -14 9 -24.5t37 -10.5q16 0 29.5 7t22.5 14.5t14 13t5 2.5l76 -112q-48 -37 -78.5 -61t-49.5 -43t-29 -37t-18 -43
q-2 -8 -2 -10q0 -21 23 -32t50.5 -16.5t50.5 -6.5l23 -1l-30 -74q-66 -22 -118.5 -30.5t-92.5 -8.5q-41 0 -69 6t-46 13.5t-26 13.5zM197 262v-12.5t3.5 -28.5t13.5 -36.5t30 -36.5t52 -28t80 -11h11q-1 0 -15.5 3t-31.5 14.5t-31 34t-14 60.5q0 43 24 86t63 83
q38 -11 70 -11h15.5t8.5 8q0 7 -7 7h-12q-44 0 -81 13t-57 49l-4 10q-40 -32 -63.5 -68t-36 -66t-15.5 -50z" />
    <glyph glyph-name="six_beng" unicode="&#x9ec;" horiz-adv-x="689" 
d="M545 95q-40 -30 -95 -48.5t-118 -18.5q-39 0 -79 8.5t-79.5 27t-77 48t-70.5 72.5l96 259q18 -78 47.5 -128.5t63 -80t69 -40.5t65.5 -11q36 0 63 11.5t45 29.5t27.5 41t9.5 46q0 10 -1 15q36 28 63 60v1q1 1 1 4q0 7 -7 7q-3 0 -11.5 -8.5t-19.5 -19t-22 -21.5t-18 -16
l-15 -12l-9 -6q-1 0 -2 -1q-50 -35 -105 -45l-133 85v244h161v-196q25 14 41.5 28t26 25t13 18l3.5 7l125 -33q39 -80 39 -151q0 -64 -27 -116.5t-70 -84.5z" />
    <glyph glyph-name="seven_beng" unicode="&#x9ed;" horiz-adv-x="637" 
d="M170 224l-135 123q-9 16 -9 35q0 25 15.5 51.5t41.5 51.5t59.5 47.5t70.5 40.5t74.5 29t70.5 14q10 -1 34 -7t52.5 -14t58 -17.5t51.5 -17.5l36 -13v-539h-168v204q-35 11 -67.5 15t-63.5 4q-20 0 -39 -1t-37 -3zM422 524q-168 -59 -230 -203q9 1 21 1.5t26 0.5
q31 0 66.5 -3.5t73.5 -13.5t78.5 -27t81.5 -44q1 -1 4 -1q7 0 7 7q0 4 -3 6q-61 40 -125 63v214z" />
    <glyph glyph-name="eight_beng" unicode="&#x9ee;" horiz-adv-x="639" 
d="M47 616h162v-143q47 -20 96 -29q30 2 61.5 9t58.5 21t47.5 35t29.5 52l113 -29q-19 -66 -53.5 -102t-68.5 -51l90 -91q9 -17 9 -35q0 -35 -32 -73.5t-80 -71.5t-104 -55.5t-105 -26.5q-10 0 -33 5t-51 13t-56.5 16.5t-49.5 15.5l-34 11v7v522zM251 375q-40 16 -79.5 40
t-77.5 58q-2 2 -5 2q-7 0 -7 -7q0 -3 2 -5q60 -52 125 -85v-268q159 54 221 209q-64 11 -177 55q-1 0 -2 1z" />
    <glyph glyph-name="nine_beng" unicode="&#x9ef;" horiz-adv-x="692" 
d="M451 240q10 -19 15.5 -40.5t5.5 -47.5q0 -5 -0.5 -9t-0.5 -9v-1q0 -7 7 -7q8 0 7.5 9t-0.5 15q0 64 -28 109q1 4 1 8v8q0 39 -21.5 72t-61.5 57t-95.5 37.5t-123.5 13.5h-18l115 160q25 -1 66 -10t96 -29q53 -19 95.5 -50t72.5 -69.5t46 -82.5t16 -89q0 -51 -21 -95.5
t-51 -77.5t-62 -52t-54 -19l-127 18q18 27 18 63q0 22 -6.5 44t-18.5 39.5t-28.5 28.5t-35.5 11q-5 0 -10.5 -1t-10.5 -3l-2 1q18 -12 29 -30.5t11 -42.5q0 -21 -12 -40t-30.5 -33.5t-41.5 -22.5t-44 -8q-55 0 -97 55q-4 5 -4 12q0 11 8 26.5t8 41.5q0 14 -4 32.5t-15 41.5
l131 87q13 6 40 6q44 0 82 -11t68 -29t52 -41t34 -46z" />
    <glyph glyph-name="ramiddlediagonal_beng" unicode="&#x9f0;" horiz-adv-x="676" 
d="M609 0q-62 50 -115 82t-108 52.5t-116.5 33.5t-139.5 24l-83 159l48 41q21 18 51.5 43.5t62.5 51t61.5 48.5t49.5 36h-330v51h695v-51h-76v-571zM453 467q-24 -19 -48.5 -39t-49.5 -40q48 -21 97 -49.5t97 -71.5q2 -2 5 -2q7 0 7 7q0 3 -3 5q-53 46 -105 78v112zM275 321
l-49 -42q35 -9 75.5 -23t83 -35t84.5 -48t80 -61q2 -2 5 -2q7 0 7 7q0 3 -3 5q-53 46 -105 78v60q-45 23 -86 35.5t-92 25.5z" />
    <glyph glyph-name="ralowerdiagonal_beng" unicode="&#x9f1;" horiz-adv-x="676" 
d="M453 467q-54 -43 -110.5 -89.5t-116.5 -98.5q35 -9 75.5 -23t83 -35t84.5 -48t80 -61q2 -2 5 -2q7 0 7 7q0 3 -3 5q-53 46 -105 78v267zM523 -6v-22q-82 41 -227 41q-41 0 -86 -3l-61 127q313 -47 374 -143zM609 0l-33 27q-51 39 -99.5 66t-101 45t-112 30.5t-133.5 23.5
l-83 159l48 41q21 18 51.5 43.5t62.5 51t62 48.5t50 36h-331v51h695v-51h-76v-571z" />
    <glyph glyph-name="rupeesign_beng" unicode="&#x9f3;" horiz-adv-x="607" 
d="M413 462q12 -2 22.5 -13t26 -25t38.5 -27.5t60 -20.5v-125q-6 -33 -31 -70t-67 -68.5t-101 -52t-134 -20.5h-13l-13.5 1.5t-34.5 5t-46 10.5t-46 18l1 3l-8 3v490h-80v51h80v5q0 9 -2 20t-9.5 20.5t-23 16t-43.5 6.5h-9q-18 0 -34.5 2t-30 8.5t-23.5 19t-15 32.5l132 59
q-1 -1 -1 -2v-4q0 -6 2.5 -15.5t11.5 -19t26.5 -18t46.5 -11.5q39 -5 65 -17t41 -28t21 -34t6 -35v-5h102v-51h-102v-378q-45 6 -91 24h-2q-7 0 -7 -7q0 -6 15.5 -11.5t35.5 -10.5t39 -8.5t26 -3.5l31 -2q52 0 92.5 11.5t69.5 49.5q5 8 7 15.5t2 15.5q0 5 -1 9.5t-2 8.5
t-2 7q-7 -17 -26.5 -25.5t-43.5 -8.5q-18 0 -35.5 5.5t-31 16.5t-22 28.5t-8.5 41.5q0 51 36.5 82t102.5 31z" />
    <glyph glyph-name="isshar_beng" unicode="&#x9fa;" horiz-adv-x="723" 
d="M543 440q-190 -163 -332 -163q-104 0 -181 89l163 200l11 -16.5t32 -36.5t52 -36.5t71 -16.5q45 0 82 16t65.5 39.5t49.5 51t34.5 50.5t20.5 37t8 11l78 -26q0 1 -8 -15.5t-27 -44.5t-48 -64t-71 -75zM372 520q-17 4 -28 12.5t-17 19t-8 21.5t-2 21q0 19 2.5 24.5t8.5 7
t17 5t28 19.5q8 7 23 7q12 0 24 -5.5t22.5 -15t17 -22t6.5 -25.5q0 -9 -5 -21t-15 -23t-25 -18.5t-35 -7.5h-6.5t-7.5 1z" />
    <glyph glyph-name="zwnj" unicode="&#x200c;" 
 />
    <glyph glyph-name="zwj" unicode="&#x200d;" 
 />
    <glyph glyph-name="endash" unicode="&#x2013;" horiz-adv-x="536" 
d="M67 258v87h402v-87h-402z" />
    <glyph glyph-name="emdash" unicode="&#x2014;" horiz-adv-x="786" 
d="M67 258v87h652v-87h-652z" />
    <glyph glyph-name="quoteleft" unicode="&#x2018;" horiz-adv-x="261" 
d="M245 661h-10q-9 0 -23.5 -1t-29 -4.5t-26.5 -10t-15 -18.5l38 -4q17 -14 23 -29t6 -29t-5 -26.5t-10 -22.5q-6 -11 -14 -21q-4 1 -9 2t-10.5 1.5t-12.5 0.5q-8 0 -18.5 -3t-21.5 -3q-10 0 -21 9t-20 23.5t-15 33.5t-6 40q0 19 6 38t20 35.5t36.5 30t56.5 21.5z" />
    <glyph glyph-name="quoteright" unicode="&#x2019;" horiz-adv-x="261" 
d="M10 558q3 0 17.5 0.5t32 3.5t33.5 10t21 21l-39 4q-16 14 -22 28.5t-6 28.5t4.5 27t9.5 23q6 11 14 21q2 0 10 -1.5t21 -1.5q9 0 19.5 2.5t21.5 2.5q10 0 21 -9t20.5 -23.5t15.5 -33.5t6 -40q0 -38 -26 -73t-94 -51z" />
    <glyph glyph-name="quotedblleft" unicode="&#x201c;" horiz-adv-x="451" 
d="M310 493q-2 -1 -5 -1q-11 0 -22 9t-20.5 23.5t-15.5 33.5t-6 40q0 19 6 38t20.5 35.5t37.5 30t57 21.5l79 -62h-9q-9 0 -23 -1t-29 -4.5t-27 -10t-16 -18.5l39 -4q17 -14 23 -29t6 -29t-4.5 -27t-9.5 -22.5t-10 -15l-5 -5.5q-2 0 -10.5 1.5t-21.5 1.5q-8 0 -16.5 -1
t-17.5 -4zM246 661h-9q-9 0 -23.5 -1t-29.5 -4.5t-27 -10t-16 -18.5l39 -4q17 -14 23.5 -29t6.5 -29t-4.5 -27t-10 -22.5t-10 -15l-4.5 -5.5q-2 0 -10.5 1.5t-21.5 1.5q-9 0 -19 -3t-19 -3q-11 0 -22 9t-20.5 23.5t-15.5 34t-6 40.5q0 19 6 37.5t20 35t36.5 30t56.5 21.5z
" />
    <glyph glyph-name="quotedblright" unicode="&#x201d;" horiz-adv-x="456" 
d="M9 557h16t33 3t34.5 10.5t21.5 22.5l-39 3q-17 13 -23 28t-6 29t4.5 27t9.5 23q6 11 14 22q4 -1 9 -2t10 -1.5t13 -0.5q9 0 19 3t21 3q10 0 21 -9t20.5 -24t15.5 -34t6 -40q0 -38 -26 -73t-94 -51zM336 726q2 0 2.5 0.5t2.5 0.5q10 0 21.5 -9t20.5 -23.5t15 -33.5t6 -40
q0 -19 -6 -38t-20 -35.5t-36.5 -30t-56.5 -21.5l-80 61q3 0 17.5 0.5t32.5 3.5t34 10.5t21 21.5l-40 3q-17 13 -23 27.5t-6 28.5t4.5 27.5t10 23.5t10 16l4.5 6q-1 0 8.5 -2t23.5 -2q8 0 16.5 1t17.5 4z" />
    <glyph glyph-name="indianrupeesign" unicode="&#x20b9;" horiz-adv-x="700" 
d="M47 571v51h606v-51h-172q19 -5 34.5 -16t27.5 -25t20.5 -29.5t13.5 -30.5h76v-33h-68q0 -5 0.5 -9t0.5 -9q0 -38 -15.5 -72t-42.5 -62t-65 -47t-83 -27l-10 -2q-53 -8 -107 -9q-7 0 -7 -7t7 -7q34 1 66.5 4.5t63.5 8.5l224 -99l-117 -102l-453 215l79 163
q47 -25 88 -34.5t75 -9.5q67 0 107.5 20t55.5 69l4 16h-409v33h412q0 19 -6.5 37.5t-19 32.5t-30 22.5t-39.5 8.5h-317z" />
    <glyph glyph-name="dottedcircle" unicode="&#x25cc;" horiz-adv-x="635" 
d="M87 266q-17 0 -29.5 12t-12.5 30q0 19 12.5 30.5t29.5 11.5q18 0 30 -11.5t12 -30.5q0 -18 -12 -30t-30 -12zM547 266q-17 0 -29.5 12t-12.5 30q0 19 12.5 30.5t29.5 11.5t29.5 -11.5t12.5 -30.5q0 -18 -12.5 -30t-29.5 -12zM274 538q0 18 13 30.5t30 12.5t29 -12.5
t12 -30.5t-12 -30t-29 -12t-30 12t-13 30zM274 78q0 18 13 30.5t30 12.5t29 -12.5t12 -30.5q0 -17 -12 -29t-29 -12t-30 12t-13 29zM396 529q5 10 15.5 15.5t21.5 5.5q20 0 30 -13.5t10 -30.5q0 -19 -13 -29.5t-28 -10.5q-17 0 -30 11.5t-13 30.5q0 11 7 21zM165 131
q6 9 16.5 15t20.5 6q18 0 30 -14t12 -30q0 -19 -13.5 -30t-29.5 -11q-20 0 -30.5 13t-10.5 29q0 10 5 22zM495 459q10 7 20 7q18 0 30 -11.5t12 -30.5q0 -18 -11 -30t-31 -12q-15 0 -28.5 11t-13.5 32t22 34zM96 230q10 5 21 5q17 0 30 -12t13 -29t-12.5 -29.5t-29.5 -12.5
t-29.5 12t-12.5 29q0 22 20 37zM537 230q20 -14 20 -36q0 -19 -12 -30.5t-30 -11.5q-19 0 -30.5 12.5t-11.5 28.5q0 20 13.5 31t28.5 11q9 0 22 -5zM138 459q22 -10 22 -35q0 -19 -13 -30.5t-30 -11.5t-29 12t-12 31q0 16 12.5 28.5t29.5 12.5q13 0 20 -7zM469 131
q4 -7 4 -21q0 -16 -10 -29.5t-30 -13.5q-16 0 -30 11.5t-14 30.5q0 16 12.5 29.5t30.5 13.5q10 0 20.5 -5.5t16.5 -15.5zM239 529q5 -12 5 -20q0 -17 -12 -30t-30 -13q-16 0 -29 11.5t-13 30.5q0 16 10.5 29t30.5 13q24 0 38 -21z" />
    <glyph glyph-name="ekar_initial_bn" horiz-adv-x="372" 
d="M151 622h267v-51h-49q-3 -7 -10 -16t-15 -17.5t-16 -15t-13 -9.5q-22 -17 -47 -43t-46.5 -63.5t-35.5 -88t-14 -115.5q0 -53 10.5 -84.5t24 -48t27.5 -22t20 -5.5h3l1 1q-13 19 -13 38q0 23 20.5 42.5t58.5 19.5q9 0 22.5 -4.5t26.5 -14t22 -25.5t9 -39q0 -10 -5 -27
t-5 -39v-8.5t1 -9.5l-155 -33q-52 16 -95 54t-70 80q-8 12 -17 33t-16.5 48t-12 58.5t-4.5 64.5q0 69 20.5 131t74.5 123q28 33 28 41z" />
    <glyph glyph-name="oikar_initial_bn" horiz-adv-x="372" 
d="M151 622h40q1 3 1 10q0 23 -15.5 35t-36 17t-39.5 5h-26l-22 38l7 0.5t19 1t27 1t32 0.5q71 0 116.5 -9.5t72 -24t36.5 -32.5t10 -34v-8h45v-51h-49q-3 -7 -10 -16t-15 -17.5t-16 -15t-13 -9.5q-22 -17 -47 -43t-46.5 -63.5t-35.5 -88t-14 -115.5q0 -53 10.5 -84.5
t24 -48t27.5 -22t20 -5.5h3l1 1q-13 19 -13 38q0 23 20.5 42.5t58.5 19.5q9 0 22.5 -4.5t26.5 -14t22 -25.5t9 -39q0 -10 -5 -27t-5 -39v-8.5t1 -9.5l-155 -33q-52 16 -95 54t-70 80q-8 12 -17 33t-16.5 48t-12 58.5t-4.5 64.5q0 69 20.5 131t74.5 123q28 33 28 41z" />
    <glyph glyph-name="k_ko_bn" horiz-adv-x="928" 
d="M938 571h-334v-6q62 -7 110.5 -24t83.5 -39.5t56 -49t27 -53.5l-1 -117q-38 -6 -61 -14.5t-38 -16t-25 -13t-23 -5.5q-59 0 -85.5 23.5t-26.5 59.5q0 20 8 35t20 25t27.5 15t30.5 5q20 0 36 -7t24 -21q1 2 2 6l2 6t1 8q0 19 -16.5 33t-39.5 23.5t-49 14t-44 4.5
q-5 0 -9.5 -0.5t-9.5 -0.5v-279q46 -5 82.5 -19t63.5 -32.5t42.5 -40t19.5 -42.5l-1 -94q-28 -5 -45 -11.5t-28 -12.5t-18.5 -10.5t-17.5 -4.5q-42 0 -62 18.5t-20 49.5q0 32 20.5 47.5t42.5 15.5q14 0 26.5 -5.5t18.5 -16.5q1 1 2 4q2 6 2 11q0 16 -12 27.5t-29.5 19
t-36.5 11t-33 3.5q-5 0 -9 -0.5t-8 -0.5v-229l-17 11q-45 28 -91.5 46.5t-92.5 30.5t-91.5 18t-87.5 9l-67 105q-1 0 22 9t60.5 23t85.5 29.5t99 27.5q-155 46 -294 54l-83 131q-1 -1 18 9.5t51.5 27.5t74 38.5t86.5 43t89.5 41t81.5 33.5v13h-458v51h948v-51zM246 307
q69 -13 145.5 -41.5t153.5 -84.5q1 -1 4 -1q7 0 7 7q0 5 -14 15.5t-32.5 21t-36.5 20t-25 13.5v152q-50 -23 -100 -48t-102 -54zM560 -59q7 0 7 7t-14.5 17t-33 20.5t-37 19.5t-26.5 12v53q-25 -8 -51 -16t-53 -18q57 -14 105 -35.5t99 -57.5q2 -2 4 -2z" />
    <glyph glyph-name="k_tto_bn" horiz-adv-x="989" 
d="M-10 571v51h777q7 8 13.5 20.5t6.5 28.5q0 22 -11.5 37.5t-31 25.5t-45.5 15t-54 5q-29 0 -56.5 -3t-49 -7t-35 -6.5l-13.5 -2.5l-37 42q-1 -1 11 2.5t32.5 8t48 10.5t57 11.5t59 9t55.5 3.5q78 -1 132.5 -15t88 -36.5t48.5 -50.5t15 -57q0 -5 -0.5 -11t-1.5 -11
l-160 -19h160v-51l-386 -1q63 -6 112.5 -21.5t85.5 -36.5t57.5 -45.5t27.5 -48.5l-1 -107q-39 -5 -62 -12.5t-38 -14.5t-25.5 -11.5t-23.5 -4.5q-59 0 -87 21t-28 54q0 18 8 31.5t20.5 22.5t28 13.5t30.5 4.5q20 0 37.5 -6.5t25.5 -17.5q-1 0 2 5t3 13q0 17 -16.5 30
t-40.5 21.5t-50 12.5t-45 4q-5 0 -10.5 -0.5t-10.5 -0.5l1 -339l-1 -107q-22 2 -44.5 7t-45.5 12h-2q-7 0 -7 -7q0 -6 14.5 -10.5t33.5 -8t37.5 -5.5t26.5 -3l19 -2q6 0 12.5 -0.5t12.5 -0.5q22 0 50 3.5t52 12t40.5 21.5t16.5 32q0 4 -1 8t-2 6q-1 3 -2 5
q-7 -11 -26.5 -17.5t-42.5 -6.5q-18 0 -35 4t-30.5 12t-22 21t-8.5 31q0 37 34 62t103 25q11 -1 21.5 -9.5t25.5 -19t38.5 -21t60.5 -15.5v-94q-6 -28 -31.5 -56.5t-70 -51.5t-105.5 -37.5t-137 -15.5q1 0 -12.5 1t-34.5 4t-45.5 8t-45.5 14h1l-7 3v239q-85 28 -166 41.5
t-157 19.5l-84 130q-1 0 18 10t51 26.5t74 37.5t88 42.5t92 41.5t86 34v8h-466zM562 200q-26 19 -53 34.5t-53 29.5v150q-51 -22 -102 -47t-104 -54q70 -13 147.5 -41.5t156.5 -82.5q1 -1 4 -1q7 0 7 6q0 3 -3 5v1z" />
    <glyph glyph-name="k_tt_ro_bn" horiz-adv-x="991" 
d="M-10 622h778q8 8 15 20.5t7 27.5q0 21 -11.5 36.5t-31.5 26t-46 16t-54 5.5q-29 0 -56.5 -3t-49.5 -7t-35.5 -6.5l-13.5 -2.5l-37 42q-1 -1 25.5 6t66.5 15.5t86 16t85 7.5q77 -1 131 -15t88 -36t49.5 -50t15.5 -57q0 -6 -0.5 -11.5t-1.5 -11.5l-159 -19h160v-51l-386 -1
q62 -6 112 -21.5t86 -36.5t57 -45.5t27 -48.5l-1 -107q-39 -5 -62 -12.5t-38 -14.5t-25 -11.5t-23 -4.5q-61 0 -88 21.5t-27 55.5q0 18 7.5 31t19.5 22t27.5 13t31.5 4q21 0 38.5 -6.5t23.5 -17.5q1 2 2 5q1 2 2 5.5t1 7.5q0 17 -16.5 30t-40 21.5t-49.5 12.5t-45 4
q-5 0 -10 -0.5t-10 -0.5v-446q-45 5 -91 18q-1 1 -2 1q-7 0 -7 -7q0 -5 14.5 -10t33.5 -9t38 -6.5t27 -2.5l18 -1q6 0 12.5 -0.5t12.5 -0.5q22 0 50 3.5t52.5 12t41 21.5t16.5 33q0 4 -1 7.5t-2 5.5q-1 3 -2 5q-6 -12 -25.5 -18.5t-42.5 -6.5q-19 0 -37 4t-31.5 13t-21.5 22
t-8 31q0 38 35 61.5t103 23.5q12 -1 22 -9.5t25 -19t38 -21t61 -14.5v-95q-4 -15 -16.5 -33t-31.5 -35t-44 -32.5t-53 -26.5l99 -19v-177l-14 8q-100 47 -219 47q-60 0 -116.5 -7t-110.5 -19l53 100q-1 -1 23.5 2t63.5 3q28 0 61 -3t67.5 -10.5t70.5 -20.5t71 -34q1 -1 4 -1
q7 0 7 7q0 5 -12 12t-28 14.5t-31.5 13.5t-22.5 8l1 64q-39 -11 -80 -16t-86 -5q1 0 -13 1t-35 4t-45.5 8t-45.5 13l-7 4v239q-82 28 -164 41.5t-157 19.5l-86 130q-1 -1 18.5 9.5t52 27t75 37.5t88 42.5t91 41.5t84.5 34v8h-466v51zM560 188q7 0 7 6q0 3 -3 5v1
q-26 19 -53 34.5t-55 29.5v150q-50 -22 -101 -47t-105 -54q71 -13 148 -41t158 -83q1 -1 4 -1z" />
    <glyph glyph-name="k_to_bn" horiz-adv-x="769" 
d="M-10 571v51h789v-51h-789zM373 -28q-9 -1 -18 -1.5t-17 -0.5q-44 0 -84 10t-74.5 25.5t-63 33.5t-48.5 33t-31 25t-11 9l79 170q30 -55 62.5 -89.5t64 -53.5t61 -26t53.5 -7q55 0 89 19t34 47q0 10 -10.5 21.5t-28.5 11.5q-14 0 -30 -7t-29.5 -15t-22.5 -15l-9 -7
l-119 50q0 25 14.5 48.5t33.5 45t38.5 43t29.5 42.5q4 8 4 18q0 9 -5.5 20.5t-15.5 22t-24 17.5t-31 7q-8 0 -13 -0.5t-6 -0.5q36 -14 36 -58q0 -11 -6.5 -24.5t-19 -25.5t-31 -20t-42.5 -8q-41 0 -69.5 26t-33.5 68q0 10 10 18t23.5 20t26 32t18.5 53h142q21 -2 51 -13
t57 -31t46.5 -47.5t19.5 -61.5q0 -31 -17 -59l1 1q-11 -22 -26.5 -43t-35.5 -41q-2 -2 -2 -5q0 -8 7 -8q3 0 5 2v1q54 54 77 118q26 23 56 31t53 8q33 0 58 -10l78 -54q-7 -17 -9.5 -29.5t-2.5 -22.5q0 -13 3.5 -20.5t3.5 -14.5q0 -2 -2 -8q-17 -26 -34 -37t-37 -11
q-29 0 -50.5 18.5t-21.5 44.5q0 25 17 41.5t37 16.5q0 1 -9 8.5t-25 7.5q-59 -12 -90 -61q38 -20 60 -51.5t22 -73.5q0 -25 -10 -52.5t-34.5 -52t-66.5 -43t-105 -25.5z" />
    <glyph glyph-name="k_t_bo_bn" horiz-adv-x="769" 
d="M-10 571v51h789v-51h-789zM535 -278l-17 13q-46 28 -93.5 47t-94.5 31t-93 18t-89 9l-67 108q15 6 34 14q17 6 39.5 14.5t51.5 17.5q-39 15 -72.5 34.5t-57.5 37t-37 29.5t-13 11l78 170q31 -55 63.5 -89.5t64 -53.5t61 -26t53.5 -7q57 0 90 20t33 47q0 9 -10.5 20.5
t-29.5 11.5q-15 0 -30.5 -7t-28.5 -15t-22 -15l-9 -7l-119 50q0 25 14 48t33.5 45t38.5 43t30 43q4 8 4 18q0 9 -5.5 20.5t-15 22t-23.5 17.5t-31 7q-8 0 -13.5 -0.5t-6.5 -0.5q37 -16 37 -58q0 -11 -6.5 -24.5t-19 -25.5t-31 -20t-43.5 -8q-41 0 -70 26t-32 68
q0 10 10 18.5t23 21t26 32t18 51.5h142q22 -2 52 -13t57 -31t46 -47.5t19 -61.5q0 -31 -17 -59l1 1q-23 -44 -63 -84q-2 -2 -2 -5q0 -8 7 -8q3 0 5 2v1q57 57 79 118q23 23 54 31t54 8q33 0 58 -10l79 -54q-7 -17 -9.5 -29t-2.5 -22q0 -14 3.5 -21.5t3.5 -14.5q0 -2 -2 -8
q-17 -26 -35 -37t-38 -11q-29 0 -50.5 19t-21.5 45q0 25 17.5 41t37.5 16q0 1 -9.5 8.5t-25.5 7.5q-58 -12 -89 -61q38 -20 59.5 -51.5t21.5 -72.5q0 -29 -13.5 -61t-48.5 -60h9v-303zM490 -206q7 0 7 7t-14.5 17.5t-34 21t-38 19.5t-25.5 12v54q-26 -8 -52.5 -16t-52.5 -18
q54 -14 104.5 -36t102.5 -59q2 -2 3 -2z" />
    <glyph glyph-name="k_t_ro_bn" horiz-adv-x="770" 
d="M-10 571v51h790v-51h-790zM516 -201l-13 7q-51 25 -105 36.5t-116 11.5q-60 0 -116.5 -7t-110.5 -19l54 100q-1 -1 22.5 2t61.5 3q29 0 62 -3t68.5 -10.5t71.5 -20.5t70 -33q1 -1 3 -1q7 0 7 7q0 5 -12 12t-28 14t-31 12.5t-22 7.5v56l-9 -2q-9 -1 -18 -1.5t-17 -0.5
q-43 0 -83 10t-74.5 25.5t-63 33.5t-49 33t-31.5 25t-11 9l80 170q30 -55 62.5 -89.5t64 -53.5t61 -26t53.5 -7q55 0 88.5 19.5t33.5 46.5q0 11 -10.5 22t-28.5 11q-15 0 -31 -7t-29 -15t-21.5 -15l-8.5 -7l-119 50q0 26 14.5 49t34 44.5t39 42.5t28.5 43q2 5 3 9t1 9
q0 9 -5.5 20.5t-15 22t-24 17.5t-32.5 7q-8 0 -12.5 -0.5t-5.5 -0.5q37 -15 37 -58q0 -11 -6.5 -24.5t-19.5 -25.5t-31.5 -20t-42.5 -8q-41 0 -69.5 26t-33.5 68q0 9 10 17t23 20.5t25.5 32.5t18.5 53h144q21 -2 50.5 -13.5t56.5 -31.5t46 -47.5t19 -60.5q0 -31 -17 -59l1 1
q-21 -43 -62 -84q-2 -2 -2 -5q0 -8 7 -8q3 0 5 2v1q56 56 78 118q26 23 55.5 31t53.5 8q34 0 57 -10l79 -54q-11 -29 -11 -48q0 -15 4 -23t4 -15q0 -5 -3 -9q-17 -26 -35 -37t-38 -11q-27 0 -49.5 18t-22.5 44t17.5 42.5t36.5 16.5q-1 0 -8.5 8t-24.5 8q-59 -12 -90 -61
q35 -19 58 -50t23 -71q0 -24 -6.5 -46.5t-22 -43t-41.5 -38.5t-65 -32l62 -11v-179z" />
    <glyph glyph-name="k_no_bn" horiz-adv-x="943" 
d="M953 571h-339v-7q63 -7 113 -24.5t85.5 -40.5t56.5 -50t27 -54l-1 -119q-38 -6 -61.5 -14.5t-38.5 -16.5t-26 -13.5t-23 -5.5q-60 0 -87 23.5t-27 60.5q0 21 8 36.5t20 26t27.5 15.5t30.5 5q20 0 37 -7.5t25 -21.5q-1 0 2 6.5t3 15.5q0 18 -16.5 32t-39.5 23.5t-49 14
t-44 4.5q-5 0 -11 -0.5t-11 -0.5v-626l-128 71v55q-14 48 -47.5 76.5t-81.5 28.5q-13 0 -28 -4.5t-28 -12t-21.5 -18t-8.5 -21.5q0 -6 1 -8t2 -3q7 14 25 24.5t40 10.5q9 0 22 -4t25 -12.5t21 -22t9 -32.5q0 -30 -28.5 -54t-72.5 -29q-12 0 -21 7t-22.5 16t-34 17.5
t-55.5 11.5v104q2 12 14.5 32t35.5 38.5t57.5 32t80.5 13.5q23 0 46.5 -4t46.5 -13h1q68 -29 109 -100q1 -4 6 -4q7 0 7 7v4q-37 65 -100 97v14q-91 38 -180.5 53.5t-174.5 22.5l-84 134q-1 0 18.5 10.5t52.5 28t75.5 39t88 43.5t91 41.5t83.5 33.5v14h-466v51h963v-51z
M558 173q6 0 6 7q0 6 -14 16.5t-32.5 21.5t-36.5 20t-25 13v154q-51 -23 -102 -49t-104 -55q69 -13 146 -41.5t158 -85.5q1 -1 4 -1z" />
    <glyph glyph-name="k_bo_bn" horiz-adv-x="944" 
d="M954 571h-339v-7q62 -7 112 -24t86 -40.5t57.5 -50.5t26.5 -54v-119q-40 -6 -63.5 -14.5t-38.5 -16.5t-25.5 -13.5t-23.5 -5.5q-59 0 -86.5 24t-27.5 61q0 20 8 35.5t20.5 26t28.5 15.5t32 5q20 0 36.5 -7.5t23.5 -21.5q1 2 2 6q1 3 2 7t1 9q0 18 -16.5 32t-39.5 23.5
t-49 14t-44 4.5q-5 0 -11 -0.5t-11 -0.5v-602l-18 12q-45 28 -92.5 47t-94.5 31t-93.5 18.5t-89.5 9.5l-68 107l23 9t61.5 22.5t87.5 29.5t101 30q-78 24 -153.5 36t-147.5 18l-84 134q-1 -1 18.5 10t52.5 28t75.5 39t88 44t91 41.5t83.5 33.5v14h-466v51h964v-51zM432 247
q31 -14 61.5 -32.5t61.5 -40.5q1 -1 4 -1q7 0 7 7q0 6 -14 16.5t-33 21t-37 20t-26 13.5v154q-51 -23 -102 -49t-104 -55q85 -15 182 -54zM570 -71q7 0 7 7t-15 17.5t-34 21t-38 19.5t-26 12v55q-26 -8 -52 -16.5t-54 -18.5q56 -14 106 -36t101 -60q1 -1 5 -1z" />
    <glyph glyph-name="k_mo_bn" horiz-adv-x="1088" 
d="M764 -6q1 -5 1.5 -9t0.5 -9q0 -18 -11 -35t-30 -29.5t-45.5 -20.5t-56.5 -8q-10 0 -18.5 0.5t-16.5 3t-17.5 8.5t-20.5 17q-13 18 -41.5 41t-87.5 41l45 127q5 8 14 16q-45 24 -90.5 39.5t-90.5 25.5t-88.5 16t-85.5 9l-78 134q-1 -1 17 9.5t48 27.5t69.5 39t81.5 44
t84 42t77 34v14h-434v51h1108v-51h-77v-744l-166 88v36q-6 24 -23 50t-42.5 47.5t-57 35t-67.5 13.5q-26 0 -43 -4.5t-27 -10.5t-13.5 -13t-3.5 -13v-6q0 -2 1 -3q11 11 31.5 18t43.5 7q34 0 65.5 -17.5t44.5 -60.5zM518 173q7 0 7 7q0 6 -13 16.5t-30.5 21t-34 20
t-23.5 13.5v154q-47 -23 -94 -49t-96 -55q65 -13 135.5 -41.5t144.5 -84.5q2 -2 4 -2zM571 469v-285q24 8 55 11.5t58 3.5q87 0 156 -35.5t123 -100.5q2 -2 5 -2q7 0 7 7q0 3 -1 4q-51 63 -119 100v399h-284v-6q54 -6 96.5 -21.5t73 -37t48.5 -46.5t23 -50l-1 -109
q-33 -5 -52.5 -12.5t-32.5 -14.5t-21.5 -12t-19.5 -5q-51 0 -73 21t-22 56q0 19 6.5 33t17 23t23.5 13t26 4q17 0 31 -6.5t20 -17.5q-1 0 2 5.5t3 13.5q0 18 -14 30.5t-34.5 21t-42 12.5t-36.5 4h-10.5t-10.5 -1z" />
    <glyph glyph-name="k_ro_bn" horiz-adv-x="952" 
d="M-10 571v51h972v-51h-972zM826 414q37 -21 57.5 -49t22.5 -46l-5 -120q-34 -4 -55.5 -14t-35.5 -20.5t-23.5 -19t-19.5 -9.5q-42 5 -68 31t-26 61q0 24 9 40.5t22 27t26.5 15t21.5 4.5q21 0 37.5 -11.5t23.5 -26.5q0 2 1 5q2 6 2 12q0 13 -7 23t-17.5 16.5t-22 9.5
t-21.5 3q-23 0 -43 -11t-37 -29t-30.5 -41.5t-21.5 -48.5l-6 -18v-247l-15 13q-77 51 -163.5 74t-190.5 23q-118 0 -215 -31l96 189q-2 0 21.5 -1t62 -6.5t88 -17.5t99.5 -34q40 -18 79 -44t79 -57q2 -2 4 -2q7 0 7 7q0 3 -3 5q-54 44 -106 75v216l-3 27l-7 14t-17 25.5
t-26.5 24t-34.5 10.5q-20 0 -32 -7.5t-12 -8.5l-16 -11q26 -7 47.5 -26.5t21.5 -45.5q0 -17 -10.5 -35t-29 -32.5t-44 -24t-56.5 -9.5q-12 0 -28 3t-30.5 9.5t-24.5 16t-10 22.5q0 11 4.5 26t4.5 35q0 15 -3.5 32.5t-13.5 38.5l108 92q35 8 67.5 11.5t61.5 3.5
q62 0 103.5 -14t68 -34.5t41 -43.5t22.5 -42q-44 -30 -69 -75q-1 -1 -1 -4q0 -7 7 -7q5 0 6 4q12 22 31 41.5t41.5 33.5t49 22.5t53.5 8.5q49 0 103 -27z" />
    <glyph glyph-name="k_lo_bn" horiz-adv-x="944" 
d="M566 180q0 6 -14.5 16t-33 21t-37 20.5t-25.5 13.5v154q-51 -23 -102 -49t-105 -55q71 -13 149 -42t156 -85q1 -1 4 -1q8 0 8 7zM614 -116l-112 48v45q-17 10 -31 10q-13 0 -22.5 -7.5t-16 -18t-10.5 -23t-6 -21.5l-2 -8q0 -1 -1 -2v-2l-86 51l-3 47q-5 29 -26 52t-52 23
q-8 0 -17.5 -3.5t-18.5 -9.5t-15 -14.5t-6 -18.5q0 -8 2 -10v-1q5 13 17.5 22.5t28.5 9.5q6 0 15.5 -3.5t19 -11.5t16 -20.5t6.5 -30.5q0 -30 -21.5 -52.5t-53.5 -25.5q-8 0 -14.5 7t-16.5 16t-25.5 17.5t-42.5 11.5l1 96q2 15 15 33t33 33.5t46 25.5t54 10q46 0 82 -26.5
t53 -66.5q32 35 71 35q6 0 13 -1t14 -3v1q37 -11 68 -52q1 -3 6 -3q7 0 7 7q0 2 -2 4q-36 48 -79 58v33q-96 42 -189.5 58.5t-180.5 23.5l-85 134h1q3 2 24 14t54.5 29t75 38.5t86 42.5t88 40t80.5 32v14h-466v51h964v-51h-340v-7q62 -7 112 -23.5t86 -40t57.5 -50.5
t27.5 -55l-1 -119q-39 -6 -62.5 -14.5t-38.5 -16.5t-25.5 -13.5t-23.5 -5.5q-60 0 -87 24t-27 61q0 21 8 36t20.5 25.5t28 15.5t30.5 5q20 0 37.5 -7.5t25.5 -21.5l1 2q0 2 1.5 7t1.5 12q0 19 -16.5 33t-40 23.5t-49.5 14t-44 4.5q-5 0 -11 -0.5t-11 -0.5v-575z" />
    <glyph glyph-name="k_sso_bn" horiz-adv-x="942" 
d="M63 684q85 -29 138 -62h751v-51h-312v-111q45 -4 90 -16t77 -36q40 -30 61.5 -61t26.5 -60v-103q-31 -6 -51.5 -18.5t-34.5 -24.5t-25 -21.5t-22 -9.5q-49 0 -73.5 24t-24.5 59q0 22 7 38t18 26t23.5 14.5t24.5 4.5q17 0 31.5 -7t23.5 -18v2q0 1 0.5 3t0.5 4q0 21 -15 37
t-37.5 27t-49.5 17.5t-51 7.5v-421l-166 89v73q-9 17 -22 33t-29 29t-34.5 20.5t-37.5 7.5t-31.5 -4t-20 -10t-10.5 -13t-3 -12t1 -6q0 -1 1 -2q9 11 23.5 17.5t31.5 6.5q10 0 24 -4.5t27 -15t21.5 -27t8.5 -39.5q0 -17 -7.5 -32.5t-21 -27.5t-32 -19.5t-41.5 -7.5
q-15 0 -28.5 3t-26.5 24q-10 16 -30.5 37t-64.5 38l33 116q7 15 33.5 34t68.5 31q0 15 -5.5 33t-15.5 33.5t-25 25.5t-33 10q-4 0 -6.5 -0.5t-4.5 -0.5q-3 -1 -5 -1q21 -2 34 -16.5t13 -34.5q0 -14 -8 -29t-23 -27.5t-36 -21t-47 -8.5q-76 0 -98 66q0 10 7.5 20.5t16.5 25.5
t16.5 34.5t7.5 47.5v14l87 17q6 19 6 39q0 39 -26 77h-172v51h106q-14 8 -29.5 15t-33.5 14zM417 571q-3 -12 -3 -28q0 -26 11 -44t49 -27v99h-57zM340 571h-73q41 -49 41 -98q0 -15 -3 -28q54 -32 81.5 -80t28.5 -98q89 -23 150 -117q1 -3 6 -3q7 0 7 7q0 3 -1 4
q-42 66 -103 100v106q-44 11 -71.5 31t-43 43.5t-21 47.5t-5.5 42q0 28 7 43z" />
    <glyph glyph-name="k_ss_nno_bn" horiz-adv-x="942" 
d="M64 684q85 -30 137 -62h751v-51h-312v-111q45 -4 90 -16t76 -36q78 -60 89 -121l-1 -103q-31 -6 -51.5 -18.5t-34.5 -24.5t-24 -21.5t-20 -9.5q-50 0 -75 23.5t-25 58.5q0 23 7 39t18 26t23.5 14.5t24.5 4.5q17 0 31.5 -7t22.5 -18v2q0 1 0.5 3t0.5 4q0 21 -14.5 37
t-37 27t-49 17.5t-51.5 7.5l1 -323v-277l-166 71v41q-19 29 -46.5 46t-61.5 17q-12 0 -25.5 -4.5t-25.5 -11.5t-19.5 -16.5t-7.5 -18.5q0 -5 1 -7t2 -3q7 13 22.5 22t35.5 9q8 0 20.5 -3.5t24 -11.5t19.5 -20t8 -30q0 -28 -26 -50t-67 -27q-9 0 -17 6.5t-21 15t-32.5 16.5
t-51.5 11v95q2 12 13.5 30.5t33.5 35.5t54 29.5t75 12.5q58 0 105.5 -27t80.5 -82q2 -2 6 -2q6 0 6 6q0 2 -1 3q-40 70 -105 97v91q-9 17 -22 33t-29.5 29t-35 20.5t-37.5 7.5t-31 -4t-19.5 -9.5t-10.5 -12t-3 -11.5t0.5 -7t0.5 -3q20 20 47 20q13 0 26.5 -4.5t24.5 -13.5
t18 -22.5t7 -32.5q0 -29 -24 -47t-65 -18h-15.5t-16.5 2t-15 7t-11 15q-6 13 -22 30.5t-60 34.5l23 98q7 15 34 34t69 31q0 16 -5.5 34t-16 33t-25.5 25t-33 10q-7 0 -11.5 -1t-3.5 -1q21 -2 34 -16.5t13 -34.5q0 -13 -8 -28t-22.5 -28t-35.5 -21.5t-48 -8.5q-76 0 -98 66
q-1 1 -1 4q0 8 7.5 18t17 25t17 35t7.5 49v11l86 17q6 21 6 40q0 40 -26 76h-172v51h107q-26 15 -64 29zM418 571q-2 -7 -3 -14.5t-1 -15.5q0 -26 12 -43.5t49 -25.5v99h-57zM340 571h-72q41 -49 41 -98q0 -15 -3 -28q54 -32 81.5 -80t27.5 -98q90 -23 151 -117q1 -3 6 -3
q6 0 6 7v4q-45 67 -103 100v106q-45 11 -72.5 31.5t-42.5 44t-20.5 48t-5.5 42.5q0 24 6 41z" />
    <glyph glyph-name="k_ss_bo_bn" horiz-adv-x="944" 
d="M65 684q43 -15 77.5 -30.5t60.5 -31.5h751v-51h-312v-111q45 -4 90 -16t77 -36q79 -61 88 -121v-103q-31 -6 -51.5 -18.5t-34.5 -24.5t-24.5 -21.5t-21.5 -9.5q-48 0 -74 24t-26 61q0 22 7.5 37t19 25t24.5 14.5t24 4.5q17 0 31 -7t22 -18q0 1 0.5 3.5t0.5 7.5
q0 22 -15.5 38t-38.5 26.5t-49.5 16t-48.5 6.5v-598l-16 10q-41 25 -83 42t-84 27.5t-83 16t-80 8.5l-60 96q-1 0 19.5 8t54.5 20t77.5 26t88.5 25v60q-9 17 -22 33t-29.5 29t-35 20.5t-37.5 7.5q-18 0 -30.5 -4t-20 -10t-10.5 -12.5t-3 -11.5q0 -4 1 -6q0 -2 1 -3
q18 20 47 20q13 0 26.5 -4.5t24 -13.5t17.5 -22.5t7 -31.5q0 -30 -23.5 -48t-65.5 -18h-15.5t-16.5 2t-15 7t-11 15q-6 13 -22 30.5t-60 34.5l23 98q8 15 34.5 34t68.5 31q0 16 -5.5 34t-16 33t-25 25t-32.5 10q-4 0 -6.5 -0.5t-4.5 -0.5q-3 -1 -5 -1q21 -2 34 -16.5
t13 -34.5q0 -14 -8 -29t-23 -27.5t-36 -21t-47 -8.5q-75 0 -99 66q-1 1 -1 4q0 8 8 18.5t17 24.5t17 34t8 47v14l87 17q6 19 6 39q0 39 -27 77h-173v51h108q-14 8 -29.5 15t-33.5 14zM606 -173q-50 34 -99 57v47q-23 -7 -46.5 -14.5t-47.5 -16.5q94 -19 184 -85q1 -1 5 -1
q7 0 7 7q0 4 -3 6zM419 571q-3 -12 -3 -28q0 -26 11 -44.5t49 -26.5v99h-57zM342 571h-74q42 -48 42 -98q0 -15 -3 -28q54 -32 81.5 -80.5t27.5 -97.5q90 -23 151 -117q1 -3 6 -3q7 0 7 7q0 3 -1 4q-42 66 -103 100v106q-44 11 -71.5 31t-43 43.5t-21 47.5t-5.5 42
q0 28 7 43z" />
    <glyph glyph-name="k_ss_mo_bn" horiz-adv-x="1162" 
d="M65 684q85 -30 137 -62h970v-51h-77v-843l-165 89v28q-9 19 -26.5 38t-40.5 34.5t-51 25.5t-59 10q-41 0 -70 -13t-29 -30q0 -6 1 -7q0 -2 1 -2q12 11 29.5 16.5t36.5 5.5q15 0 31 -5t29.5 -15.5t22 -28t8.5 -41.5q0 -35 -26.5 -58.5t-81.5 -23.5q-19 0 -39.5 3.5
t-35.5 25.5q-11 16 -36.5 37.5t-85.5 40.5l35 118l3 4l-70 37v73q-9 17 -22 33t-29.5 29t-35 20.5t-37.5 7.5t-31.5 -4t-20 -10t-10.5 -12.5t-3 -11.5q0 -4 1 -6q0 -2 1 -3q18 20 47 20q13 0 26.5 -4.5t24 -13.5t17.5 -22.5t7 -32.5q0 -29 -23.5 -47t-65.5 -18
q-14 0 -31.5 2t-25.5 22q-5 13 -22.5 30.5t-60.5 34.5l23 98q7 15 35 34t68 31q0 16 -5.5 34t-16 33t-25 25t-32.5 10q-4 0 -7 -0.5t-5 -0.5q-3 -1 -4 -1q21 -2 34 -16.5t13 -34.5q0 -14 -8 -29t-22.5 -27.5t-35.5 -21t-47 -8.5q-75 0 -99 66q-1 1 -1 4q0 8 7.5 18t17 24
t17 34t7.5 47v15l87 17q6 19 6 39q0 39 -26 77h-173v51h107q-28 16 -63 29zM641 349v-314q27 8 58.5 12.5t60.5 4.5q86 0 155 -34.5t123 -100.5q1 -3 5 -3q7 0 7 7q0 4 -1 5q-26 32 -56 56.5t-63 41.5v547h-289v-111q45 -4 90 -16t76 -36q79 -61 88 -121v-103
q-31 -6 -51.5 -18.5t-34.5 -24.5t-24.5 -21.5t-20.5 -9.5q-49 0 -74 24t-25 59q0 22 7.5 38t18.5 26t24.5 14.5t24.5 4.5q16 0 29.5 -6.5t21.5 -18.5q0 1 0.5 3.5t0.5 7.5q0 22 -15 38t-38 26.5t-49.5 15.5t-48.5 7zM418 571q-3 -12 -3 -28q0 -27 11.5 -44.5t49.5 -26.5v99
h-58zM341 571h-73q41 -49 41 -98q0 -15 -3 -28q54 -32 81.5 -80t27.5 -98q89 -22 152 -117q1 -3 6 -3q7 0 7 7q0 3 -1 4q-45 67 -103 100v106q-45 11 -73 31.5t-43 44t-20.5 47.5t-5.5 41q0 28 7 43z" />
    <glyph glyph-name="k_so_bn" horiz-adv-x="1111" 
d="M-10 571v51h1131v-51h-77v-709l-25 20q-74 53 -156 73t-180 20q-50 0 -99 -5.5t-94.5 -14.5t-86 -20t-73.5 -22l66 180q15 4 33 8q16 3 38 6t51 5q-49 28 -99 47t-99.5 31t-98 18.5t-94.5 9.5l-80 138q-1 0 17.5 11t49.5 28.5t71.5 40t83.5 44.5t86 42t79 34v15h-444z
M583 571q59 -10 105 -30t79 -45t52.5 -54t24.5 -57l-1 -126q-35 -6 -56 -15t-34 -17.5t-22.5 -14.5t-21.5 -6q-54 0 -78.5 25t-24.5 64q0 22 7 38t18.5 27t25.5 16.5t28 5.5q18 0 33 -8t22 -22q1 2 2 6q2 8 2 15q0 21 -15 36.5t-36 25t-44 14.5t-39 5q-7 0 -13.5 -0.5
t-13.5 -1.5v-338q45 0 94.5 -6.5t101 -22t103.5 -42.5t102 -68q2 -2 5 -2q7 0 7 6q0 4 -3 6q-56 46 -111 75v511h-299zM539 170q0 6 -13.5 16.5t-31.5 22t-35.5 21t-24.5 13.5v157q-97 -46 -196 -106q69 -13 142 -42.5t146 -86.5q2 -2 5 -2q2 0 5 2t3 5z" />
    <glyph glyph-name="kh_bo_bn" horiz-adv-x="718" 
d="M126 388l-96 73q13 24 17.5 44t4.5 35q0 14 -2.5 24t-2.5 19q0 12 8 21.5t19.5 16t23 9.5t19.5 3q18 0 36.5 -7t33 -19.5t23.5 -29t9 -35.5t-9 -35t-26 -25h2q49 11 70.5 41t21.5 73q0 7 -0.5 13.5t-1.5 13.5h5q19 -3 45 -18.5t50 -42t40.5 -63t16.5 -81.5
q0 -57 -25.5 -106.5t-69.5 -84.5q79 -26 154 -72v1q25 -16 50 -34.5t50 -40.5q1 -1 4 -1q7 0 7 7q0 3 -2 5q-27 23 -54 43t-55 37v473l159 30v-53h77v-51h-77v-379v-422l-16 11q-46 29 -93.5 48t-95 31t-94 18.5t-91.5 9.5l-67 108q-1 0 22.5 9.5t62 23.5t88 30t101.5 28
q-143 67 -340 79l-3 -1l-78 148q38 -7 67 -7q31 0 65 7.5t62.5 24t47.5 42t20 62.5q-18 -22 -51 -43t-78 -21q-38 0 -54 10zM500 -26l-52 -16t-54 -18q55 -14 106.5 -36.5t102.5 -60.5q1 -1 5 -1q7 0 7 7q0 6 -15 16.5t-34.5 21.5t-38.5 20t-27 13v54z" />
    <glyph glyph-name="kh_ro_bn" horiz-adv-x="719" 
d="M125 388l-95 73q12 23 16.5 42.5t4.5 34.5q0 14 -2 24t-2 20q0 13 8 22.5t19.5 16t23 9.5t19.5 3q18 0 36 -7t32.5 -19.5t23.5 -29t9 -35.5t-9 -35t-25 -25h1q50 11 71 40.5t21 72.5q0 7 -0.5 13.5t-1.5 14.5h5q18 -3 44.5 -18.5t50.5 -42t41 -63t17 -81.5
q0 -57 -25.5 -106.5t-68.5 -84.5q75 -26 153 -72v1q51 -33 98 -75q1 -1 5 -1q7 0 7 7q0 3 -2 5q-56 48 -108 80v473l160 30v-53h77v-51h-77v-748l-16 15q-73 54 -151.5 77.5t-168.5 23.5q-112 0 -213 -34l52 137q1 -1 36 5.5t90 6.5q36 0 73 -4.5t76 -17t79 -34.5t81 -56
q2 -2 4 -2q7 0 7 7q0 3 -2 5q-29 25 -57.5 44t-57.5 32v51q-150 75 -358 87h-1q-1 0 -2 -1l-76 148q20 -4 36 -5.5t31 -1.5q30 0 64 7.5t62.5 23.5t47.5 42t20 63q-20 -23 -52.5 -43.5t-76.5 -20.5q-38 0 -54 10z" />
    <glyph glyph-name="g_ukar_bn" horiz-adv-x="840" 
d="M374 282q13 -46 32.5 -78t43.5 -52.5t52 -29.5t57 -9q27 0 48.5 7t37.5 19t24.5 27t8.5 31q0 22 -9.5 35.5t-21.5 21t-23.5 10t-15.5 2.5h-1l3 -3t7 -9t7 -14t3 -18q0 -11 -6 -23.5t-17 -23t-26.5 -17.5t-34.5 -7q-18 0 -35.5 6t-31 16t-22 23.5t-8.5 27.5q0 11 6 23
q17 30 28.5 51t19.5 34l15 25h55q55 43 55 81q0 41 -62 63q1 0 -9 -11t-26 -26.5t-35 -31.5t-36 -24l-1 1q-31 48 -82.5 79t-112.5 31q-47 0 -89 -25h15q88 0 130.5 -36t42.5 -87q0 -30 -14.5 -62.5t-43.5 -63.5l-189 59q17 8 35 19.5t33 24t24.5 25t9.5 23.5q0 17 -20 23
t-71 6l-69 30l-8 73q9 19 28.5 36.5t47 31t60.5 21.5t69 8q37 0 89 -12t103 -47v1q5 -5 13.5 -15t17.5 -20.5t16 -18.5t9 -8q7 0 7 8q0 2 -1 3l-1 1q-23 37 -51 59l62 54q49 -16 94 -34.5t78.5 -41t53.5 -49.5t20 -60q0 -59 -71 -109q55 -38 79 -78t24 -78q0 -27 -10.5 -51
t-24 -41t-25.5 -27t-15 -10q-32 -23 -82.5 -38.5t-107.5 -15.5q-69 0 -126.5 22.5t-99 49.5t-64 48.5t-21.5 20.5z" />
    <glyph glyph-name="g_go_bn" horiz-adv-x="1035" 
d="M804 644l164 32v-54h77v-51h-77v-600l-164 104v309q-20 56 -61 88t-97 32q-52 0 -107 -33q96 -11 141.5 -55t45.5 -103q0 -42 -21.5 -86t-63.5 -85l-212 98q22 9 45 21.5t42 27t31.5 30t12.5 29.5q0 18 -23 28.5t-80 15.5l-77 45v73q-52 25 -100 25q-60 0 -106 -36h13
q46 0 81 -10.5t58 -29.5t34.5 -44t11.5 -54q0 -34 -15.5 -71t-45.5 -72l-195 68q18 9 37 21.5t34.5 26.5t25 28t9.5 26q0 17 -17.5 25t-60.5 8h-18l-70 34l-9 81q9 21 29 41t48 35.5t62.5 25t72.5 9.5q21 0 51 -4t64 -16q8 -8 30.5 -16t41.5 -21h1q5 -4 16 -17t22 -26.5
t20 -24t11 -10.5q8 0 8 7q0 2 -2 4q-26 45 -61 74q35 15 73.5 23.5t80.5 8.5q11 0 31.5 -2t45.5 -8t53.5 -17t56.5 -30.5t53.5 -48t44.5 -68.5q1 -4 6 -4q7 0 7 7q0 2 -1 3q-42 86 -108 127v56z" />
    <glyph glyph-name="g_do_bn" horiz-adv-x="1040" 
d="M636 676v-54h414v-51h-414v-310q48 38 80.5 79.5t53 75.5t30 56t9.5 21h164v-535l-164 104v185q61 72 98 144v4q0 6 -7 6q-4 0 -6 -2q-34 -70 -85 -131v1q-9 -10 -17 -21t-19 -21l-19 -18q-1 0 -1 -1q-57 -56 -117 -90h-164v270q-20 57 -65.5 90t-109.5 33
q-59 0 -113 -39q54 -3 93.5 -16.5t65.5 -35t38.5 -49.5t12.5 -59q0 -42 -21 -85.5t-63 -84.5l-213 98q22 8 45.5 21t42.5 27.5t31 29.5t12 29q0 19 -23.5 29.5t-80.5 15.5l-77 45v93q13 22 39 39.5t59.5 29.5t71.5 18.5t75 6.5q22 0 57.5 -5.5t75 -23t78 -51t65.5 -89.5
q1 -4 6 -4q7 0 7 7q0 2 -1 3h1q-43 87 -109 127v56z" />
    <glyph glyph-name="g_dho_bn" horiz-adv-x="947" 
d="M574 451q6 0 6 7v3q-43 85 -109 127v56l163 32v-54h323v-51h-323v-336q26 8 51 15.5t51 12.5h164v-450l-164 104v200q9 3 29 8t39.5 11t34.5 11.5t15 8.5q0 8 -7 8h-2q-57 -15 -108.5 -31.5t-101.5 -34.5v-298l-17 11q-45 29 -92.5 48t-95 31t-94.5 18t-90 9l-69 109
q-2 -2 21 11.5t63.5 35t95 48.5t114.5 54v213q-20 57 -65.5 90t-108.5 33q-59 0 -114 -39q54 -3 93.5 -16.5t65.5 -35t38.5 -49.5t12.5 -59q0 -42 -21.5 -85.5t-63.5 -84.5l-212 98q22 9 45.5 21.5t42 27t30.5 29.5t12 29q0 19 -23 29.5t-80 15.5l-76 45v93q12 22 38 39.5
t59.5 29.5t72 18.5t76.5 6.5q22 0 56.5 -5.5t73.5 -23t77.5 -51t67.5 -89.5q1 -4 6 -4zM594 -114q-27 20 -54.5 35.5t-55.5 28.5v89q-37 -16 -70.5 -31t-64.5 -31q57 -12 117.5 -36.5t119.5 -66.5q1 -1 4 -1q7 0 7 7q0 3 -3 5v1z" />
    <glyph glyph-name="g_dh_ro_bn" horiz-adv-x="968" 
d="M471 588v56l163 32v-54h344v-51h-344v-336q26 8 51 15.5t50 12.5h166v-450l-166 104v200q10 3 29.5 8t39.5 11t35 11.5t15 8.5q0 8 -7 8h-2q-54 -14 -106 -30.5t-104 -35.5v-409l-13 10q-57 44 -119.5 62.5t-133.5 18.5q-87 0 -166 -27l40 108l7 1.5t20 3.5t31 3.5
t40 1.5q27 0 59 -4t64 -15h1q59 -22 121 -71q1 -1 5 -1q7 0 7 7q0 2 -3 4q-47 40 -91 60v18q-137 42 -259 48l-69 109q-2 -2 21 11.5t63.5 35t95 48.5t115.5 54v213q-20 57 -65.5 90t-109.5 33q-59 0 -114 -39q54 -3 93.5 -16.5t66 -34.5t39 -49t12.5 -59q0 -42 -22 -86
t-64 -85l-211 98q21 8 44 20.5t42 27t31.5 30t12.5 29.5q0 19 -23 29.5t-80 15.5l-76 45v93q13 22 39 39.5t59 29.5t70.5 18.5t75.5 6.5q20 0 55 -5t74.5 -22t78.5 -51t68 -91q1 -4 6 -4q7 0 7 7q0 2 -1 3q-43 86 -108 127zM598 -120q0 3 -3 5v1q-54 38 -112 64v89
q-37 -16 -70.5 -31t-63.5 -31q57 -12 117.5 -36.5t120.5 -66.5q1 -1 4 -1q7 0 7 7z" />
    <glyph glyph-name="g_no_bn" horiz-adv-x="701" 
d="M591 7q7 0 7 7q0 3 -1 4q-53 73 -126 99v271q-20 57 -65.5 90t-108.5 33q-59 0 -114 -39q54 -3 93.5 -16.5t65.5 -35t38.5 -49.5t12.5 -59q0 -42 -21.5 -85.5t-63.5 -84.5l-212 98q22 9 45.5 21.5t42 27t30.5 29.5t12 29q0 19 -23 29.5t-80 15.5l-76 45v93
q13 22 38.5 39.5t58.5 29.5t71.5 18.5t76.5 6.5q19 0 54 -5t74.5 -22t78.5 -51t68 -91q1 -4 6 -4q8 0 8 7q0 2 -1 3q-43 85 -109 127v56l163 32v-54h77v-51h-77v-776l-127 73v54q-15 48 -49.5 76.5t-82.5 28.5q-13 0 -28 -4.5t-27.5 -12t-21 -18t-8.5 -21.5q0 -5 1 -7t2 -3
q8 14 25 24.5t38 10.5q9 0 22 -4t25.5 -13t21.5 -22.5t9 -32.5q0 -14 -7.5 -29t-21 -27t-33 -20t-44.5 -8q-8 0 -16 7.5t-21.5 16.5t-35 17.5t-55.5 11.5v104q2 13 14 33t35 39t58 32.5t83 13.5q58 0 107.5 -25t87.5 -79q1 -4 6 -4z" />
    <glyph glyph-name="g_bo_bn" horiz-adv-x="701" 
d="M634 -200l-17 11q-45 29 -92.5 48t-95 31t-94.5 18t-91 9l-69 109q0 -1 25.5 9.5t67.5 25.5t95.5 32t107.5 29v266q-20 57 -65.5 90t-108.5 33q-59 0 -114 -39q54 -3 93 -16.5t65 -35t38.5 -49.5t12.5 -59q0 -42 -21 -85.5t-63 -84.5l-213 98q23 9 46.5 21.5t42 27.5
t30.5 30t12 28q0 19 -23 29.5t-80 15.5l-76 45v93q12 22 38 39.5t59.5 29.5t72 18.5t76.5 6.5q22 0 57.5 -5.5t74.5 -23.5t76.5 -51.5t65.5 -88.5q1 -4 6 -4q7 0 7 7q0 2 -1 3q-43 86 -108 127v56l163 32v-54h77v-51h-77v-771zM589 -127q7 0 7 7q0 3 -2 5v1q-54 38 -112 64
v55q-25 -8 -51.5 -16.5t-54.5 -18.5q54 -14 105.5 -36t103.5 -60q1 -1 4 -1z" />
    <glyph glyph-name="g_mo_bn" horiz-adv-x="992" 
d="M758 571h-124v-373q72 -11 128.5 -44t104.5 -90q1 -3 5 -3q7 0 7 7q0 4 -1 5q-53 64 -120 100v398zM471 185v203q-21 57 -66.5 90t-108.5 33q-59 0 -113 -39q54 -3 93.5 -16.5t65.5 -35t38.5 -49.5t12.5 -59q0 -42 -21.5 -85.5t-63.5 -84.5l-212 98q22 9 45.5 21.5t42 27
t30.5 29.5t12 29q0 19 -23.5 29.5t-80.5 15.5l-75 45v93q13 22 39 39.5t59.5 29.5t72 18.5t76.5 6.5q22 0 57 -5.5t74 -23.5t76.5 -51.5t65.5 -88.5q1 -4 6 -4q7 0 7 7v3q-43 85 -109 127v56l163 32v-54h368v-51h-77v-746l-167 90v35q-6 25 -23.5 51t-43 47.5t-58 35.5
t-68.5 14q-49 0 -67.5 -13.5t-18.5 -27.5q0 -6 1 -7v-3q12 11 33 18.5t45 7.5q15 0 34 -5t36 -16.5t28.5 -30t11.5 -45.5q0 -18 -11 -35t-29.5 -29.5t-44.5 -20.5t-56 -8q-20 0 -39 3t-37 26q-7 9 -17 20t-25 21.5t-37 20.5t-52 19l46 130q7 13 33.5 30t71.5 32z" />
    <glyph glyph-name="g_ro_bn" horiz-adv-x="702" 
d="M635 676v-54h77v-51h-77v-693l-15 14q-72 52 -149 75t-165 23q-107 0 -206 -32l49 134q-1 0 8 1.5t24.5 3.5t38 4t48.5 2q35 0 72.5 -4.5t76.5 -17t79 -34t79 -54.5q1 -1 4 -1q7 0 7 7q0 3 -2 5q-59 48 -112 74v310q-22 57 -66.5 90t-108.5 33q-59 0 -114 -39
q54 -3 93.5 -16.5t65.5 -34.5t38.5 -49t12.5 -59q0 -42 -21 -86t-63 -85l-212 98q21 8 44 20.5t42 27t31.5 30t12.5 29.5q0 19 -23.5 29.5t-81.5 15.5l-75 45v93q13 22 39 39.5t59.5 29.5t71.5 18.5t76 6.5q23 0 58 -5.5t73.5 -23t76.5 -51t66 -89.5q3 -4 7 -4q7 0 7 7
q0 2 -1 3q-43 86 -108 127v56z" />
    <glyph glyph-name="g_lo_bn" horiz-adv-x="702" 
d="M635 676v-54h77v-51h-77v-750l-164 71v25q-25 16 -41 16q-15 0 -24.5 -10t-14 -22t-6.5 -22t-2 -9l-103 26q0 21 -4 43.5t-13.5 41t-27 30.5t-44.5 12q-9 0 -19.5 -3.5t-20 -9.5t-16 -15t-6.5 -19q0 -5 1 -7.5t1 -3.5q6 13 20.5 22.5t31.5 9.5q6 0 16.5 -3.5t20.5 -11.5
t17 -21t7 -31q0 -31 -22.5 -53.5t-59.5 -26.5q-8 0 -14.5 6.5t-17.5 15t-28.5 17t-46.5 13.5l1 100q2 14 15 32.5t34 34.5t49 27t61 11q51 0 90 -27t59 -69q34 37 77 37q58 0 104 -58q1 -3 4 -3q7 0 7 6q0 3 -1 4q-38 52 -84 62v329q-20 57 -64.5 90t-110.5 33
q-59 0 -113 -39q54 -3 93.5 -16.5t65.5 -35t38.5 -49.5t12.5 -59q0 -42 -21 -85.5t-63 -84.5l-213 98q22 8 45.5 21t42.5 27.5t31 29.5t12 29q0 19 -23 29.5t-80 15.5l-77 45v93q13 22 39 39.5t59 29.5t71 18.5t76 6.5q21 0 56.5 -5.5t75 -23t78 -51t65.5 -89.5q1 -4 6 -4
q7 0 7 7v3q-43 87 -109 127v56z" />
    <glyph glyph-name="gh_no_bn" horiz-adv-x="677" 
d="M687 622v-51h-77v-587v1v-207l-160 88v32q-3 13 -10.5 26t-19 23t-26 16t-31.5 6q-13 0 -18 -3.5t-6 -4.5q11 0 23.5 -5.5t22.5 -15t16.5 -22t6.5 -27.5q0 -11 -6 -25t-18 -27t-29 -22t-39 -9q-35 0 -63.5 18t-45.5 51q-2 4 -2 8q0 8 4 16.5t9.5 19t9.5 24t4 31.5
q0 23 -7 48l126 40q4 1 17 1q49 0 97 -29.5t80 -84.5q1 -3 5 -3q7 0 7 7q0 2 -1 3q-41 72 -106 103v27q-64 28 -134.5 37.5t-159.5 10.5l-109 139q15 11 34 23q16 11 38 24.5t48 30.5q6 0 11.5 -0.5t11.5 -0.5q12 0 33.5 1t43 4t37 7t15.5 10t-7 6h-1q-52 -13 -115 -13
q-81 0 -123.5 24.5t-42.5 71.5t50 108h-90v51h697zM554 94q7 0 7 7q0 4 -3 6q-51 46 -105 78v386h-175q-72 -63 -72 -107q0 -35 49 -35q9 0 21.5 2.5t25 6t25 6t21.5 2.5q17 0 27 -11l41 -96q-34 -20 -67 -43t-66 -49q63 -22 133.5 -57.5t132.5 -93.5q2 -2 5 -2z" />
    <glyph glyph-name="gh_bo_bn" horiz-adv-x="678" 
d="M689 622v-51h-78v-770l-17 12q-90 54 -182.5 75t-179.5 28l-66 105q-3 -1 17.5 7t55.5 21t80 27.5t91 27.5q-54 17 -117 24.5t-136 7.5l-110 139q16 11 35 23q17 11 38.5 24.5t47.5 30.5q6 0 11.5 -0.5t11.5 -0.5q12 0 33.5 1t43 4t37 7t15.5 10t-6 6h-2
q-52 -13 -115 -13q-81 0 -123.5 24.5t-42.5 70.5q0 50 50 109h-91v51h699zM285 247q67 -23 136 -58.5t132 -92.5q2 -2 4 -2q7 0 7 7q0 4 -2 6q-26 23 -53 42.5t-53 35.5v386h-175q-73 -63 -73 -107q0 -35 49 -35q12 0 27 1.5t33 6.5q9 4 18 6.5t17 2.5q18 0 26 -11l40 -96
q-34 -20 -67 -43t-66 -49zM568 -129q6 0 6 7t-14.5 17t-33 20.5t-37 19.5t-25.5 12v53q-25 -8 -51 -16t-52 -18q104 -23 202 -94q1 -1 5 -1z" />
    <glyph glyph-name="gh_ro_bn" horiz-adv-x="679" 
d="M689 622v-51h-77v-745l-16 14q-70 51 -146.5 74.5t-164.5 23.5q-108 0 -207 -33l51 133q-1 0 8 1.5t25.5 4t39 4.5t49.5 2q34 0 72 -5t76.5 -17.5t77 -33.5t74.5 -53q2 -2 5 -2q7 0 7 7q0 4 -3 6q-52 45 -112 71v66q-63 27 -133 36.5t-158 10.5l-110 139q16 11 35 23
q17 11 38.5 24.5t47.5 30.5q6 0 11.5 -0.5t11.5 -0.5q12 0 34 1t43 4t37 7t16 10t-7 6h-2q-52 -13 -115 -13q-81 0 -123.5 24.5t-42.5 70.5q0 24 12.5 51.5t38.5 57.5h-92v51h699zM557 94q7 0 7 7q0 4 -2 6q-51 46 -105 78v386h-175q-73 -63 -73 -107q0 -35 49 -35
q12 0 26.5 1.5t32.5 6.5q9 4 18 6.5t17 2.5q18 0 26 -11l42 -96q-68 -40 -134 -92q64 -22 133.5 -57.5t132.5 -93.5q2 -2 5 -2z" />
    <glyph glyph-name="ng_ko_bn" horiz-adv-x="908" 
d="M26 246q-1 -1 18 9t51.5 26.5t74.5 37t87 41.5t89.5 40t81.5 32v8q-14 11 -33.5 18t-39 11t-36 5.5t-23.5 1.5q-4 0 -6.5 -0.5t-4.5 -0.5h-4q2 -10 2 -19q0 -11 -5 -25t-19.5 -26t-41.5 -20t-71 -8q-43 0 -66 16t-23 66q0 18 5 28t13 15t19 7t23 4l33 4q-6 28 -66 54h-94
v51h928v-51h-78q-18 -40 -57.5 -65.5t-102.5 -25.5q-58 0 -143 18q-42 11 -65 33.5t-32 39.5h-248q58 -24 74 -55q46 -2 91.5 -5t69.5 -8q21 -5 43 -10.5t43 -13t38.5 -17t29.5 -21.5h3v-2q60 -6 109 -22t84 -38t56.5 -48t27.5 -52l-1 -114q-37 -5 -59.5 -13t-37.5 -15.5
t-25.5 -13t-24.5 -5.5q-58 0 -85 21.5t-27 58.5q0 19 7.5 34t19.5 24.5t27 14.5t30 5q20 0 37.5 -7.5t25.5 -19.5q-1 -1 1.5 4.5t2.5 14.5q0 18 -16.5 31.5t-39.5 22.5t-48.5 13.5t-44.5 4.5q-5 0 -9.5 -0.5t-9.5 -0.5v-358l-21 13q-56 33 -114 55.5t-116 36.5t-114.5 21.5
t-109.5 11.5zM701 571h-190q6 -6 16 -14.5t23.5 -16t30.5 -12.5t37 -5q43 0 60.5 15t22.5 33zM533 79q-53 36 -105 63v147q-99 -44 -204 -99q69 -13 147 -40.5t154 -81.5q1 -1 4 -1q7 0 7 6q0 4 -3 6z" />
    <glyph glyph-name="ng_k_ro_bn" horiz-adv-x="908" 
d="M528 -60q6 0 6 7q0 4 -3 6q-55 47 -112 72v37q-79 26 -157 39t-153 18l-83 127q-1 -1 18 9t51.5 26.5t74.5 37t87 41.5t89.5 40t81.5 32v8q-13 10 -32 17t-38.5 11.5t-36 6t-24.5 1.5q-5 0 -7.5 -0.5t-4.5 -0.5h-3q1 -4 1 -8v-9q0 -11 -4.5 -24.5t-19 -26.5t-41.5 -21.5
t-71 -8.5t-67 16.5t-23 66.5q0 17 5 27t13.5 15t19 7t22.5 4l33 4q-6 28 -66 54h-94v51h928v-51h-78q-18 -39 -57 -65t-103 -26q-58 0 -143 18q-42 11 -65 33.5t-31 39.5h-249q58 -24 74 -55q46 -2 91.5 -5t69.5 -8q21 -5 43 -10.5t42.5 -13t38 -17t29.5 -21.5h3v-2
q60 -6 109 -22t85 -38t57.5 -48t26.5 -52l-1 -114q-38 -5 -60.5 -13t-37 -15.5t-25 -13t-24.5 -5.5q-58 0 -85 22.5t-27 59.5q0 19 8 33.5t20.5 23.5t27.5 13.5t30 4.5q20 0 36.5 -6.5t24.5 -19.5q0 -1 2.5 5t2.5 14q0 18 -16.5 31.5t-40 22.5t-49.5 13.5t-45 4.5
q-5 0 -9.5 -0.5t-9.5 -0.5l1 -358v-154l-17 13q-70 54 -148.5 76.5t-166.5 22.5q-108 0 -204 -31l49 132q-1 0 8 1.5t25.5 4t39.5 4.5t50 2q34 0 72 -4.5t76.5 -17t77.5 -34t77 -54.5q2 -2 5 -2zM701 571h-189q5 -6 15 -14.5t23.5 -16t30.5 -12.5t37 -5q44 0 61.5 15
t21.5 33zM529 67q7 0 7 6t-14 15.5t-32 20t-36 20t-26 13.5v147q-50 -22 -100.5 -46.5t-102.5 -52.5q69 -13 146 -40.5t155 -81.5q1 -1 3 -1z" />
    <glyph glyph-name="ng_kho_bn" horiz-adv-x="1047" 
d="M1057 622v-51h-77v-589l-31 26q-53 40 -107 70t-112.5 50t-123.5 31.5t-138 16.5h-3l-57 107q-24 -33 -71.5 -53.5t-102.5 -20.5q-53 0 -107 23.5t-101 81.5l66 177q13 -54 33 -88t43 -54t47.5 -27.5t45.5 -7.5q25 0 43.5 7.5t30.5 19t18.5 25t6.5 24.5l15 7.5t17 9.5
t14 9.5t6 8.5q0 7 -6 7q-3 0 -9 -3.5t-13 -8l-14 -9t-12 -6.5q-54 -25 -113 -32l-90 57v80q-21 3 -38 6.5t-29 6.5q-14 4 -24 7l-13 53q13 -6 29 -11q14 -5 33 -11t42 -11v53q6 16 24.5 25.5t39 14.5t38.5 7t23 2h2h12q33 0 58.5 -7t43 -19t27 -27t9.5 -31q25 19 52 19
q15 0 30 -6t27 -16.5t19.5 -25t7.5 -30.5q0 -37 -29 -53h1q66 15 76 67l1 82q20 -3 45.5 -19.5t48.5 -43t39 -61.5t16 -75q0 -51 -23.5 -94.5t-65.5 -76.5q60 -20 121.5 -54.5t121.5 -86.5q2 -2 5 -2q7 0 7 7q0 3 -3 5v1q-53 47 -106 78v459l157 32v-52h77zM265 577v-39
q40 2 53.5 13t13.5 23q0 10 -4 16.5t-10 10t-12 4.5t-9 1q-9 0 -15 -4t-9.5 -9.5t-5.5 -10t-2 -5.5zM415 464q8 20 8 40q0 11 -2 20t-2 17q-10 -12 -28.5 -19.5t-40 -12t-44 -6t-41.5 -1.5v-50q20 6 34 11t22 9q10 4 16 9zM515 318q48 6 83.5 33t44.5 64
q-18 -20 -46.5 -34.5t-65.5 -14.5q-29 0 -43 8l-39 30v-12q0 -43 -19 -78h20q16 0 31 1t34 3z" />
    <glyph glyph-name="ng_go_bn" horiz-adv-x="763" 
d="M746 571q-18 -40 -57.5 -65.5t-102.5 -25.5q-57 0 -142 18q-42 11 -65.5 33.5t-32.5 39.5h-356v51h783v-51h-27zM521 523q45 0 63.5 14.5t21.5 33.5h-189q12 -13 38 -29t66 -19zM639 384v2q0 6 -7 6q-5 0 -6 -3q-18 -48 -53.5 -93t-95.5 -79q-52 -26 -98 -44.5
t-100 -25.5q-36 -5 -67.5 -6.5t-59.5 -1.5q-57 0 -86.5 4.5t-28.5 2.5l46 123q42 -16 100 -16q36 0 68 6.5t56 20t38 35t14 51.5q0 12 -6 27.5t-15.5 29t-23 23t-28.5 9.5q-5 0 -8 -0.5t-4 -0.5l-7 -9q13 -17 13 -38t-10.5 -38t-26.5 -29t-36 -18.5t-39 -6.5q-48 0 -82.5 24
t-38.5 73q1 12 8.5 21.5t16.5 23t18 34.5t13 56h184q22 0 46.5 -8.5t47 -21.5t41.5 -28t30 -28q46 -54 51 -104q23 36 23 57v20l170 48v-495l-170 106v140q84 68 113 151z" />
    <glyph glyph-name="ng_mo_bn" horiz-adv-x="859" 
d="M792 -107l-167 89v62q-10 19 -26.5 37t-38 32t-46.5 23t-52 9q-44 0 -62 -13t-18 -24q0 -4 1 -6q0 -2 1 -3q11 10 30 16.5t41 6.5q14 0 31.5 -4.5t33 -15t26 -27.5t10.5 -41q0 -16 -9.5 -31.5t-26.5 -27.5t-40.5 -19.5t-50.5 -7.5q-17 0 -34.5 2t-36.5 26q-7 8 -16 17.5
t-23 19t-33.5 19t-47.5 18.5l31 88q-64 0 -126 27.5t-117 94.5l76 203q14 -62 37 -101.5t49.5 -62.5t54 -31.5t51.5 -8.5q30 0 52 9t36 22.5t20.5 29t6.5 28.5q32 15 58 35h1q2 2 2 6q0 6 -7 6q-2 0 -9 -4t-15.5 -9.5l-17 -11t-14.5 -8.5v1q-61 -29 -128 -38l-105 67v92
q-24 4 -43 8t-33 8q-16 4 -29 8l-15 60q15 -7 33 -13q16 -5 38 -12t49 -13v61q8 19 31 30t47.5 17t44.5 8t22 2q106 0 151 -45v19h399v-51h-77v-678zM301 561v-45q23 1 38 5t23.5 10t12 12.5t3.5 13.5q0 12 -5 19.5t-12 11t-13.5 4.5t-10.5 1q-11 0 -18.5 -5t-11.5 -11
t-5 -11zM601 216q77 -30 136 -102q2 -2 6 -2q7 0 7 6q0 2 -2 4q-55 67 -123 98v351h-134q3 -9 3 -17q0 -21 -19 -36t-47.5 -25t-62.5 -14.5t-64 -4.5v-58q23 7 38.5 13.5t25.5 11.5q11 5 19 10l113 -27v1q15 -42 15 -81q0 -55 -32 -105q32 -1 62.5 -6.5t58.5 -16.5z" />
    <glyph glyph-name="ng_ro_bn" horiz-adv-x="687" 
d="M540 453q-81 -25 -167 -25v-72q29 9 48.5 17t32.5 14q15 7 24 13l141 -33q21 -51 21 -101q0 -41 -13.5 -78t-37.5 -68.5t-57 -55t-72 -37.5l86 -22v-191l-13 10q-56 43 -119 61.5t-133 18.5q-86 0 -165 -27l40 108q-1 -1 26.5 4t69.5 5q28 0 60 -3.5t65 -14.5v-1
q61 -23 120 -69q2 -2 5 -2q7 0 7 7q0 2 -3 4q-23 20 -46 34.5t-46 24.5v40q-39 -10 -83 -10q-82 0 -159 35.5t-146 118.5l95 255q19 -77 48.5 -127t63.5 -78.5t68.5 -39.5t64.5 -11q37 0 64.5 11.5t45.5 28.5t26.5 36.5t8.5 34.5v6q7 4 19.5 10t24.5 13t21 13.5t9 10.5
q0 7 -7 7q-2 0 -4 -2q-55 -34 -111 -55.5t-118 -29.5l-132 84v116q-30 5 -54.5 9.5t-41.5 9.5q-20 5 -36 10l-20 77q19 -8 43 -16q20 -7 47.5 -15t61.5 -16v75q7 17 23.5 29t37 20t42.5 12.5t40 7t29.5 3.5l11.5 1q6 0 12 0.5t12 0.5q44 0 79.5 -10.5t61 -27.5t39.5 -38.5
t14 -42.5q0 -23 -18 -43.5t-57 -33.5zM373 539v-57q29 1 48 6t30 12t15.5 15.5t4.5 17.5q0 15 -6.5 24t-15 13.5t-17.5 6t-13 1.5q-14 0 -23 -6.5t-14 -14t-7 -13.5t-2 -5z" />
    <glyph glyph-name="c_nyo_bn" horiz-adv-x="1167" 
d="M1177 571h-972v-48q18 -11 37 -18.5t40.5 -13t46.5 -10t57 -9.5l37 -6l42 -82q0 26 -16 59l95 86q32 8 61 11.5t55 3.5q44 0 75.5 -8t53.5 -21t37 -30.5t26 -35.5q-38 -35 -57 -75v-4q0 -6 7 -6q1 0 8.5 10t17 23t20.5 26.5t19 20.5q16 13 37 22t45 9q14 0 32.5 -4.5
t35 -14t27.5 -24t11 -34.5q0 -18 -5 -36.5t-13 -35.5l12 2l60 -51q12 -23 12 -49q0 -35 -19 -59.5t-47 -41t-60.5 -24t-59.5 -7.5q-32 0 -63 6l1 -120l-15 11q-67 49 -144 70t-168 21q-105 0 -192 -28l86 177q1 0 18 -0.5t44.5 -4.5t64 -13.5t78 -26t86 -42.5t87.5 -64
q2 -2 5 -2q7 0 7 7t-12.5 18.5t-29 23t-33 21.5t-23.5 14v200l-2 24q0 3 -5.5 14.5t-15.5 24t-24 22.5t-31 10q-8 0 -15 -2.5t-12 -5.5q-6 -4 -11 -7l-14 -9q23 -7 42 -24.5t19 -42.5q0 -17 -9 -34t-25.5 -31t-40 -23t-51.5 -9q-45 0 -75 35q-17 -15 -40.5 -36t-50 -44
t-53.5 -45.5t-50 -40.5t-40.5 -29t-24.5 -11q-10 0 -23.5 4t-28.5 10t-29.5 13t-27.5 15l-24 14l-3 2v413h-77v51h1187v-51zM927 383q-36 -12 -55 -40v-153q19 -10 40 -14.5t41 -4.5q31 0 53 11t22 34q0 5 -2 15l-7 1q-8 -13 -20 -18.5t-26 -5.5q-29 0 -46.5 17.5
t-17.5 43.5q0 17 10.5 34.5t33.5 32.5h4q5 0 8 -2l6 -3q0 3 0.5 6t0.5 6q0 19 -8.5 30t-24.5 11q-8 0 -12 -1zM258 429q-74 29 -146 93v-1q-1 1 -5 1q-7 0 -7 -6q0 -3 2 -5q52 -47 103 -72v-166l141 122q-19 5 -40.5 13t-44.5 18z" />
    <glyph glyph-name="c_ro_bn" horiz-adv-x="603" 
d="M613 571h-385v-60q22 -15 46.5 -24.5t54.5 -16.5t66.5 -13t83.5 -12l77 -155q0 1 -14 -12.5t-38 -35.5t-54.5 -49t-62.5 -53l108 -29v-331l-17 14q-71 52 -147.5 75t-164.5 23q-106 0 -207 -32l50 133l9 1.5t25.5 4t39.5 4.5t50 2q35 0 72 -4.5t75 -17t77 -34t78 -54.5
q2 -2 5 -2q6 0 6 7q0 3 -2 5q-55 49 -112 73v115q-38 -31 -68 -51.5t-39 -20.5q-11 0 -27 4.5t-33.5 12t-35 16t-31.5 16.5l-11 5q-5 4 -9.5 6t-6.5 4l-4 2v484h-77v51h623v-51zM288 399q-86 35 -170 108q-2 2 -4 2q-7 0 -7 -7q0 -3 2 -5q29 -26 58.5 -46.5t60.5 -36.5v-193
q40 33 79.5 69t81.5 74q-23 5 -47.5 14t-50.5 20q-1 1 -3 1z" />
    <glyph glyph-name="ch_bo_bn" horiz-adv-x="611" 
d="M621 571h-394v-55q71 -32 184 -36l84 -104h-1q37 -24 53.5 -48.5t16.5 -48.5t-15.5 -46.5t-41.5 -42t-62 -34t-76 -21.5q-20 -5 -40.5 -6.5t-40.5 -1.5q-23 0 -48.5 2.5t-51.5 7.5h-1q-7 0 -7 -7q0 -5 13.5 -8.5t30.5 -5t34 -2t24 -0.5h15.5t15.5 1l238 -106l-23 -54
l-157 58v-192l-14 9q-36 23 -73.5 38t-75 24t-74 14t-70.5 8l-53 84q-1 0 17 7t47 18t67 23.5t78 22.5l-169 61q-1 0 -2 1h-1l-1 162q45 -32 92.5 -43t105.5 -11q34 0 64 4.5t52 12.5t35 19.5t13 25.5q0 11 -8 19q-36 -20 -78 -33.5t-84 -13.5q-11 0 -36 6t-52 13.5
t-50 14.5t-32 10l-2 1v253h-77v51h631v-51zM339 -109q-44 31 -87 51v39q-41 -11 -84 -27q40 -10 82 -27t81 -47q1 -1 4 -1q7 0 7 7q0 3 -3 5zM240 460q-61 30 -122 77q-2 2 -5 2q-7 0 -7 -7q0 -5 3 -6q59 -47 118 -75v-97q64 22 130 73q-50 4 -117 33z" />
    <glyph glyph-name="ch_ro_bn" horiz-adv-x="612" 
d="M67 318v253h-77v51h632v-51h-394v-55q70 -31 184 -36l83 -104h-1q38 -23 54.5 -47.5t16.5 -47.5q0 -25 -16 -48.5t-43 -43t-62.5 -33.5t-74.5 -21q-16 -5 -38.5 -6.5t-42.5 -1.5q-23 0 -48.5 2.5t-51.5 7.5h-2q-6 0 -6 -7q0 -5 13.5 -8.5t31 -5t34.5 -2t24 -0.5h15.5
t15.5 1l239 -106l-25 -54l-72 26v-107l-13 8q-99 47 -217 47q-60 0 -115.5 -7t-109.5 -19l53 99q-1 -1 23.5 2t63.5 3q29 0 62 -3t68 -11t69.5 -21t66.5 -32q1 -1 4 -1q7 0 7 7q0 5 -11.5 12t-27.5 14t-31.5 12.5t-23.5 8.5v37l-273 100l-2 1v18l-2 144q45 -32 93.5 -43
t105.5 -11q34 0 64 4.5t52 13t35 19.5t13 25q0 11 -8 19q-37 -20 -78.5 -33.5t-83.5 -13.5q-11 0 -36 6t-52 13.5t-50 14.5t-32 10zM114 539q-7 0 -7 -7q0 -4 2 -6q59 -46 119 -75v-97q64 22 130 73q-50 5 -114 33.5t-126 76.5q-2 2 -4 2z" />
    <glyph glyph-name="ch_ro_alt_bn" horiz-adv-x="612" 
d="M114 539q-7 0 -7 -7q0 -4 2 -6q59 -46 119 -75v-97q64 22 130 73q-50 5 -114 33.5t-126 76.5q-2 2 -4 2zM324 30l-273 100l-2 1v18l-2 144q45 -32 93.5 -43t105.5 -11q34 0 64 4.5t52 13t35 19.5t13 25q0 11 -8 19q-37 -20 -78.5 -33.5t-83.5 -13.5q-11 0 -36 6t-52 13.5
t-50 14.5t-32 10l-3 1v253h-77v51h632v-51h-394v-55q70 -31 184 -36l83 -104h-1q38 -23 54.5 -47.5t16.5 -47.5q0 -25 -16 -48.5t-43 -43t-62.5 -33.5t-74.5 -21q-16 -5 -38.5 -6.5t-42.5 -1.5q-23 0 -48.5 2.5t-51.5 7.5h-2q-6 0 -6 -7q0 -5 13.5 -8.5t31 -5t34.5 -2
t24 -0.5h15.5t15.5 1l239 -106l-25 -54l-48 17v-173l-16 13q-68 54 -174.5 86t-242.5 32q-164 0 -384 -53l48 130l53 11q51 11 106 15.5t113 4.5q27 0 61 -1t74 -6.5t86.5 -16t99.5 -29.5q59 -22 117 -74l4 -1q7 0 7 7q0 3 -2 5q-54 47 -106 69v39z" />
    <glyph glyph-name="j_jo_bn" horiz-adv-x="1134" 
d="M342 241q48 17 61 53q7 1 17.5 4t21 6.5t18 7t7.5 7.5q0 6 -7 6h-2q-57 -23 -126 -26h-2q-34 0 -59 6v1q-5 3 -21.5 10.5t-35 20.5t-33 32t-15.5 45q0 29 7 54t16.5 45.5t20.5 35t20 22.5h-240v51h1154v-51h-728q4 -23 13.5 -37t21.5 -22.5t26.5 -11.5t28.5 -3t25.5 2
t21.5 4q11 3 21 7l2 -2l214 -56l-1 -1q4 -24 14.5 -39.5t23.5 -24.5t28.5 -12t30.5 -3q24 0 44 5l137 40v-449l-137 88v237q8 1 21 4l26 6t22 7t9 9q0 6 -7 6h-2q-51 -18 -109 -21q-108 0 -169 66l-18 -28q-23 -43 -29 -83q15 -4 32 -4t32.5 3.5t26.5 8t17.5 7.5l6.5 3
l100 -42q6 -30 6 -56q0 -42 -17 -78.5t-48 -63.5t-74.5 -42.5t-96.5 -15.5q-66 0 -134.5 30t-124.5 101l9 23q-56 -27 -122 -27q-76 0 -139 30.5t-122 100.5l77 210q16 -65 40 -106t52 -64t56.5 -32t52.5 -9q20 0 38 5zM415 404l100 -42q6 -30 6 -56q0 -39 -14 -73
q19 -36 40 -60.5t43.5 -38.5t45.5 -20t46 -6q35 0 61 18.5t34 41.5q6 1 17 3t21.5 5t18 7t7.5 8q0 7 -6 7q-2 0 -3 -1q-54 -22 -127 -25h-1q-32 0 -59 6v1l-1 -1q-4 0 -20 7.5t-33.5 22t-32.5 34.5t-17 45q1 88 18 135q9 1 21.5 3.5t24.5 6t20.5 7t8.5 8.5q0 6 -7 6
q-1 0 -2 -1q-59 -20 -127 -21q-95 8 -152 66l-17 -28q-13 -20 -19 -42t-11 -42q15 -4 32 -4t32.5 3.5t27 8t18 8z" />
    <glyph glyph-name="j_j_bo_bn" horiz-adv-x="1081" 
d="M1091 622v-51h-675q4 -23 13.5 -37t22 -22.5t27 -11.5t28.5 -3q13 0 25 2t22 4q11 3 21 7l3 -2l188 -50l-1 -1q5 -21 14 -34.5t21 -22t25.5 -11.5t26.5 -3q11 0 21 2t18 4l123 35v-573l-13 9q-64 39 -131 54t-130 19l-47 76q-1 0 16 7t45 17.5t63.5 21t72.5 18.5v240
q8 1 20 3t23.5 5t20 7t8.5 8q0 7 -7 7h-3q-52 -20 -113 -20q-1 0 -1 -1q-85 7 -133 61l-16 -25q-21 -39 -27 -75q8 -2 15.5 -3t14.5 -1q15 0 28.5 3.5t23.5 7.5t15.5 7l5.5 3l89 -38q2 -14 3.5 -26t1.5 -24q0 -39 -15.5 -71.5t-43 -56.5t-66.5 -37t-86 -13q-56 0 -113.5 24
t-107.5 82q-61 -37 -142 -37q-74 0 -137 30t-122 101l77 210q15 -65 39.5 -106t52.5 -64t56.5 -32t52.5 -9q38 0 64 17t35 41q7 1 18 4t21.5 6.5t17.5 7t7 7.5q0 6 -7 6h-2q-57 -23 -126 -26h-2q-32 0 -59 6v1q-4 0 -20.5 8t-35 22t-33 34t-15.5 44q0 29 6.5 54t16 45
t21 34.5t20.5 23.5h-241v51h1101zM985 -81q-37 28 -77 45v33q-19 -5 -37 -11.5t-37 -13.5q33 -8 69.5 -22.5t73.5 -41.5q2 -2 4 -2q7 0 7 7q0 4 -3 6zM499 431q-97 6 -152 66q-19 -33 -30.5 -57.5t-16.5 -54.5q15 -4 32 -4t32.5 3.5t26.5 8t17.5 8l6.5 3.5l100 -42
q7 -28 7 -56q0 -25 -6 -46q35 -63 73.5 -85.5t79.5 -22.5q32 0 54.5 15.5t30.5 35.5q7 1 17 3.5t19.5 5.5t16.5 6.5t7 7.5q0 7 -7 7q-2 0 -3 -1q-53 -20 -112 -23q-3 0 -4 -1q-28 0 -50 6h-1q-3 0 -18 7.5t-31.5 20.5t-30 30.5t-13.5 38.5q0 69 14 111q7 1 20 3.5t25.5 5.5
t21.5 7t9 9q0 6 -7 6q-1 0 -2 -1q-57 -20 -126 -21z" />
    <glyph glyph-name="j_jho_bn" horiz-adv-x="1190" 
d="M806 -51q7 0 7 7t-16 16.5t-37 18.5t-41.5 16t-29.5 10v78l-54 -32t-55 -33q50 -9 109 -27.5t114 -52.5q1 -1 3 -1zM1200 622v-51h-77v-676l-121 45q-41 44 -79 60.5t-77 22.5v-128l-75 30q-54 21 -117.5 36t-138.5 27l-59 78h1q0 1 1 1l22 13q23 14 58 34.5t75 40.5
l63 32v240q11 1 27.5 3.5t31.5 6t26 7t11 7.5q0 7 -7 7h-2q-70 -19 -158 -21q-2 0 -4 -2q-112 7 -180 65q-23 -30 -38 -55t-20 -54q19 -4 41 -4q24 0 44.5 5t35.5 10l19 7l124 -40h1q6 -27 6 -52q0 -93 -86 -145l-18 -10q-79 -44 -180 -44q-41 0 -83 7t-84 23t-82 40t-75 59
l96 203q19 -62 48.5 -101.5t63 -62.5t68.5 -31.5t65 -8.5q48 0 79.5 16t43.5 40q8 1 21 3.5t25.5 5.5t21.5 7t9 8q0 7 -7 7q-1 0 -2 -1q-67 -20 -156 -25h-3q-40 0 -71 6l-1 1h-3q-17 8 -37.5 17t-39 21t-32 28t-16.5 39q1 28 9 52.5t20 44t25 33.5t24 22h-287v51h1210z
M954 571h-448q5 -22 16.5 -36t27 -22t33.5 -11t35 -3t32 2.5t26 4.5l170 40v-480q66 -5 122.5 -21.5t99.5 -43.5q1 -1 4 -1q7 0 7 7t-15.5 15.5t-36 16.5t-41.5 14.5t-32 9.5v508z" />
    <glyph glyph-name="j_nyo_bn" horiz-adv-x="924" 
d="M815 318l56 -59q3 -10 5 -20.5t2 -22.5q0 -36 -13 -62t-34 -43t-47.5 -25.5t-53.5 -8.5q-35 0 -69 10.5t-64 28.5q-34 -52 -100.5 -85t-151.5 -33q-40 0 -82 9t-83 28t-80.5 49.5t-73.5 73.5l95 256q19 -77 48.5 -127t63.5 -79t68.5 -40t64.5 -11q50 0 81.5 20.5
t42.5 52.5q8 1 21 4.5t26 7.5t22 8.5t9 8.5q0 7 -7 7q-2 0 -3 -1q-36 -14 -76.5 -23t-80.5 -9t-73 9h-1q-5 0 -25 9.5t-42 27t-40.5 42t-20.5 54.5q1 38 9.5 70t21 56.5t26.5 42.5t25 27h-291v51h944v-51h-431q-7 -4 -17 -16q18 -54 47.5 -80t59.5 -33l-11.5 -11.5
t-12.5 -14t-10.5 -14.5t-4.5 -11q0 -7 7 -7q1 0 9.5 9t19 21t22 24t20.5 18q17 12 38.5 19.5t44.5 7.5q15 0 34.5 -5.5t37 -16t30 -27t12.5 -37.5t-8 -42t-21 -37h15zM363 340q23 -5 42 -5q32 0 58.5 10t34.5 16q-57 29 -90 97l-10 -14q-14 -26 -22.5 -52t-12.5 -52z
M632 212q19 -23 46 -35.5t50 -12.5q22 0 36.5 11t14.5 37v7l-8 3q-15 -22 -41 -22q-31 0 -49.5 19.5t-18.5 44.5q0 23 12 41t41 32h2q1 0 11 -4l6 -3q3 10 3 20q0 18 -9.5 28.5t-27.5 10.5q-20 0 -34 -10t-22 -24t-11.5 -30.5t-3.5 -28.5q2 -14 3.5 -27.5t1.5 -26.5
q0 -8 -0.5 -15t-1.5 -15z" />
    <glyph glyph-name="j_bo_bn" horiz-adv-x="912" 
d="M922 622v-51h-417q4 -25 16.5 -40.5t29 -24.5t35.5 -12t38 -3q31 0 54 5q12 2 23 5l144 39v-743l-17 10q-45 29 -92.5 48t-95 31t-94 18t-89.5 10l-67 107q-1 0 23.5 10t65 24.5t92 30.5t104.5 28v291q10 1 26.5 4t32 7t26.5 8t11 9q0 7 -7 7h-2q-72 -25 -157 -26h-2
q-113 7 -182 73l-23 -30q-29 -47 -36 -93q22 -5 39 -5q21 0 40 4.5t33 9.5t22 9t8 3l123 -47q6 -32 6 -60q0 -48 -21 -89t-59 -71t-91 -46.5t-118 -16.5q-40 0 -82 8t-83 25t-80 44.5t-73 66.5l96 232q18 -70 47.5 -115t63 -71.5t69 -37t65.5 -10.5q49 0 80.5 19t42.5 48
q8 1 21 4t25.5 6.5t21.5 7.5t9 8q0 7 -7 7h-3q-35 -13 -76 -20.5t-84 -7.5q-38 0 -69 6h-1q-4 0 -23.5 9t-42 24.5t-41.5 37.5t-21 49q1 34 9.5 62.5t20.5 51t25.5 38t24.5 24.5h-289v51h932zM807 -125q0 3 -3 5q-55 41 -110 65v55q-26 -8 -52 -16.5t-54 -18.5
q55 -13 106 -35.5t102 -59.5q1 -1 4 -1q7 0 7 6z" />
    <glyph glyph-name="j_ro_bn" horiz-adv-x="912" 
d="M922 622v-51h-418q5 -25 17.5 -40.5t29 -24.5t36 -12t37.5 -3q31 0 54 5q12 2 23 5l144 39v-739l-16 13q-73 52 -152 76t-170 24q-112 0 -214 -33l52 134q3 0 38.5 6t88.5 6q35 0 74 -5t79 -17.5t79.5 -34t77.5 -53.5q2 -2 5 -2q7 0 7 7q0 4 -2 6q-56 46 -116 72v405
q10 1 26 4t31 6.5t26 8t11 9.5q0 7 -7 7h-2q-72 -25 -156 -26h-2q-113 7 -182 73q-48 -61 -58 -123q22 -5 39 -5q21 0 39.5 4.5t32.5 9.5t21.5 9t7.5 3l125 -47q6 -32 6 -58q0 -49 -21 -90t-59 -71t-91.5 -47t-118.5 -17q-40 0 -82 8t-83 25t-80 44.5t-73 66.5l95 232
q19 -70 48.5 -115t63 -71.5t68.5 -37t65 -10.5q49 0 81 19t43 48q8 1 21 4t25.5 6.5t21.5 7.5t9 8q0 7 -7 7h-2q-35 -13 -75.5 -20.5t-85.5 -7.5q-38 0 -69 6q-5 0 -24.5 8.5t-42 24t-41.5 38t-21 49.5q1 34 9.5 62.5t20.5 51t25.5 38t24.5 24.5h-289v51h932z" />
    <glyph glyph-name="jh_ro_bn" horiz-adv-x="971" 
d="M791 71q-20 48 -43.5 79.5t-47.5 51t-47 30t-41 16.5v-387l-16 11q-67 39 -140.5 57t-157.5 18q-52 0 -100.5 -5.5t-96.5 -18.5l47 101l8.5 1t24.5 3t38 3.5t48 1.5q33 0 68 -3.5t71 -12.5t73.5 -25.5t75.5 -42.5q1 -1 4 -1q7 0 7 7t-14.5 16.5t-33 19t-37 16.5t-26.5 10
v68q-66 33 -144.5 51.5t-180.5 34.5l-83 160q5 4 12 10l15 12.5t21 18.5l115 96q34 28 66.5 53.5t64.5 49.5h-351v51h622v-289q44 -5 78.5 -14.5t63 -25t52.5 -38t45 -53.5q1 -3 5 -3q7 0 7 7q0 3 -1 4q-49 70 -116 103v330l158 30v-51h77v-51h-77v-592zM557 89q8 0 8 7
q0 4 -3 6q-26 23 -52.5 42t-54.5 36v268q-55 -43 -112 -90t-117 -99q35 -9 76 -23t84 -35t86 -48.5t81 -61.5q2 -2 4 -2z" />
    <glyph glyph-name="ny_co_bn" horiz-adv-x="783" 
d="M456 -20q-42 33 -81.5 54.5t-82 36t-91.5 24t-110 18.5l-65 113q4 4 31.5 25t65 49t78.5 57.5t73 51.5q13 8 36 10v48l-3 20q0 3 -5 13t-14.5 21t-22 19.5t-27.5 8.5q-16 0 -26 -6.5t-11 -6.5l-13 -9q23 -6 40 -22t17 -37q0 -14 -8.5 -28.5t-24 -26.5t-37 -20t-46.5 -8
q-9 0 -22 3t-25.5 8.5t-21 13.5t-8.5 19q0 8 4 20.5t4 29.5q0 11 -2.5 25t-10.5 31l88 76q29 6 56.5 8.5t50.5 2.5q54 0 91 -15t60 -34.5t33.5 -40t12.5 -30.5v-4q-41 -38 -63 -83q-1 -1 -1 -3q0 -8 7 -8q1 0 8 10t17 23t20 26.5t17 19.5q18 17 47 31t58 14q17 0 37.5 -6
t38 -17.5t29.5 -28t12 -36.5q0 -22 -6 -42t-16 -37l16 2l65 -56q12 -26 12 -55q0 -41 -21.5 -69t-53 -45.5t-67.5 -25.5t-65 -8q-35 0 -69 6v-134zM522 425q-40 -14 -62 -46v-169q21 -11 44 -16t45 -5q35 0 60.5 12.5t25.5 37.5q0 7 -3 16l-7 2q-8 -15 -21 -21t-28 -6
q-32 0 -52.5 19t-20.5 47q0 19 11 39t37 37h2q3 0 11 -3l8 -2q0 3 0.5 6t0.5 6q0 21 -10 34.5t-28 13.5q-5 0 -13 -2zM304 282q-35 -26 -70 -52.5t-70 -54.5q52 -12 113.5 -38t124.5 -75q1 -1 5 -1q6 0 6 7q0 3 -3 5q-26 20 -52.5 37t-53.5 31v141z" />
    <glyph glyph-name="ny_cho_bn" horiz-adv-x="740" 
d="M305 -29q-7 0 -7 -6q0 -5 13.5 -8.5t31.5 -5.5t35.5 -2.5t25.5 -0.5h15.5t15.5 1l245 -111l-25 -55l-491 182l-1 1l-17 164q46 -32 98.5 -43t116.5 -11q36 0 67.5 4.5t55.5 12.5t37.5 19.5t13.5 26.5q0 21 -45 38q-41 -20 -90.5 -37.5t-94.5 -17.5h-13.5t-16.5 4l-18 7
l-112 41q-6 19 -6 38q0 37 21.5 74t48 70.5t48 63.5t21.5 53q0 25 -21 45t-51 20q-7 0 -11 -0.5t-5 -0.5q16 -8 25.5 -23t9.5 -34q0 -11 -5.5 -25.5t-17 -28.5t-30 -23.5t-44.5 -9.5q-41 0 -69 28t-33 71q0 9 10 17.5t22.5 22t25 34.5t18.5 56h142q8 -1 23.5 -5.5t34 -12
t37 -18.5t33.5 -24q-27 -38 -37 -75v-2q0 -6 7 -6q6 0 7 4q4 20 17 44.5t32.5 46.5t44.5 36.5t54 14.5q13 0 29.5 -4.5t30.5 -13t23.5 -21t9.5 -29.5q0 -33 -16 -65l12 2l62 -49q7 -19 7 -41q0 -35 -10 -59.5t-27.5 -41.5t-41 -27t-50.5 -14l4 -4q89 -33 126 -67.5t37 -69.5
q0 -27 -17 -52t-46 -45.5t-67.5 -35t-82.5 -21.5l-40 -4q-9 -1 -18 -1h-19q-23 0 -47 2t-50 7h-1zM285 208q76 18 138 61q-17 5 -35.5 10t-38.5 15l-12 6q-17 8 -32.5 19t-32.5 22q-1 1 -4 1q-7 0 -7 -7q0 -3 8.5 -9.5t19.5 -13.5t22 -13.5t17 -9.5q-13 -20 -24 -40.5
t-19 -40.5zM470 322q42 3 69 20.5t27 53.5q0 3 -0.5 6t-0.5 6l-7 1q-6 -11 -16.5 -16t-22.5 -5q-26 0 -42.5 14.5t-16.5 38.5q0 15 9 30.5t31 29.5h2q1 0 9 -2l5 -3q1 4 1 12q0 17 -8 27t-24 10q-14 0 -25.5 -7.5t-21.5 -18t-17.5 -23t-12.5 -22.5q-4 -61 -42 -121
q34 -25 103 -31h1z" />
    <glyph glyph-name="ny_jo_bn" horiz-adv-x="746" 
d="M623 255l88 -8q-45 -54 -45 -135q0 -67 33 -124l-150 25q-9 22 -13 42.5t-4 40.5q0 28 6.5 53t15.5 45q-10 2 -18.5 5.5t-16.5 8.5q-2 -45 -20 -81.5t-49 -62.5t-73.5 -40t-92.5 -14q-66 0 -133.5 30t-124.5 101l79 209q14 -64 38 -105t51.5 -64t56.5 -32t53 -9
q35 0 58 13.5t34 31.5q7 1 19 4t23 7t19.5 8t8.5 8q0 7 -7 7h-3q-20 -8 -40 -12.5t-41 -11.5h-2q-17 -4 -33.5 -5t-31.5 -1q-31 0 -56 6l-66 74v5q0 27 19.5 52.5t43 50t43 47.5t19.5 46q0 9 -5 21t-15 22.5t-23.5 17.5t-31.5 7q-8 0 -12 -0.5t-5 -0.5q17 -7 26.5 -22.5
t9.5 -34.5q0 -11 -5.5 -26t-17.5 -28.5t-31 -23t-45 -9.5q-42 0 -69 28t-32 71q0 9 10 18t22.5 22.5t25 34.5t18.5 55h141q9 -1 26 -6t36 -13t38 -19.5t33 -24.5l-13 -19.5t-13 -22t-10 -22t-4 -19.5q0 -1 2 -3.5t5 -2.5q5 0 7 6q5 21 19 47t34.5 49t47.5 38.5t58 15.5
q15 0 32.5 -5t32 -15t24.5 -25t10 -35q0 -17 -5 -33t-13 -30l13 2l56 -47q11 -22 11 -63q0 -48 -20 -77t-56 -43zM309 275q10 -3 19 -4t19 -1q29 0 54.5 9t42.5 19q-9 8 -22.5 27t-25.5 47q-13 -16 -26.5 -32t-29.5 -32zM457 426q11 -41 42 -63t64 -22q46 0 46 43v10l-6 1
q-7 -12 -19 -17.5t-26 -5.5q-27 0 -43 16t-16 41q0 16 9 32.5t32 30.5h3q5 0 8 -2l6 -2q0 3 0.5 6t0.5 5q0 18 -8.5 29t-24.5 11q-21 0 -35 -11t-21.5 -26t-10.5 -31t-3 -25q0 -11 2 -19v-1z" />
    <glyph glyph-name="ny_jho_bn" horiz-adv-x="923" 
d="M350 315h1q100 -32 195 -96q1 -1 4 -1q7 0 7 6t-14 16t-32.5 20t-36.5 18.5t-25 12.5v176l-3 20q-1 3 -7 13t-16.5 21t-25.5 19.5t-34 8.5q-20 0 -32.5 -7t-12.5 -6l-14 -9q24 -6 45.5 -22t21.5 -36q0 -14 -10 -29t-28.5 -27t-44 -20t-55.5 -8q-12 0 -28 3t-30.5 8.5
t-24.5 13.5t-10 19q0 8 5 20.5t5 28.5q0 12 -3.5 26t-13.5 31l106 76q36 6 68 8.5t61 2.5q48 0 83 -6.5t60 -17.5t42 -26t30 -32q-8 -6 -19 -14.5t-21 -18t-17.5 -19t-7.5 -15.5q0 -7 7 -7q2 0 10.5 8.5t20 20.5t24 24t23.5 19q17 11 40 18t49 7q18 0 38.5 -5t38 -14.5
t29.5 -23.5t12 -32q0 -14 -6 -28.5t-16 -27.5l16 2l65 -45q13 -20 13 -42q0 -15 -6 -30t-20 -29v-397l-113 52q-34 48 -69 68t-69 27l1 -170l-1 1q-45 27 -85.5 44.5t-84 29.5t-94 19.5t-113.5 13.5l-64 90q-1 -1 10.5 6t31 18.5t45 26t53.5 30.5t55.5 31.5t51.5 28.5
q-90 15 -175 15q-55 0 -107 -6.5t-103 -18.5l96 155q-2 0 16.5 -1t50.5 -4.5t74 -11t87 -20.5zM812 20q-51 43 -112 62v150h-23q-18 0 -36 1t-36 3v-149q59 -6 108 -24.5t90 -53.5h1q1 -1 4 -1q6 0 6 7q0 3 -2 5zM666 482q-40 -9 -61 -34v-134q42 -17 88 -17q35 0 60.5 10.5
t25.5 30.5q0 8 -2 12l-9 1q-8 -11 -21.5 -16t-28.5 -5q-30 0 -51 14.5t-21 37.5q0 14 11.5 29.5t38.5 29.5h4q6 0 15 -4q0 3 0.5 5.5t0.5 4.5q0 17 -9.5 26.5t-26.5 9.5q-9 0 -14 -1zM554 -51q-55 31 -105 50v111q-35 -20 -71 -41.5t-73 -44.5q51 -10 115.5 -30.5
t126.5 -56.5q1 -1 4 -1q7 0 7 7q0 5 -4 6z" />
    <glyph glyph-name="tt_tto_bn" horiz-adv-x="644" 
d="M100 22q38 -29 81.5 -41.5t87.5 -12.5t80.5 8t62 21.5t39.5 31.5t14 38q0 19 -7 34q-93 -54 -233 -56l-15 1.5t-37.5 6t-49 11.5t-49.5 19l-7 3v485h-77v51h386q8 6 14.5 18t6.5 28q0 22 -12 37.5t-31.5 25.5t-44.5 15t-52 5q-29 0 -56 -3.5t-48.5 -7t-34.5 -6.5l-13 -3
l-38 42q-1 0 25.5 6.5t66 15t85.5 15.5t84 8q76 -1 129.5 -15t86.5 -36t48 -50t15 -56q0 -5 -0.5 -11t-1.5 -11l-155 -17h204v-51h-427v-359q-20 4 -41 9t-43 13q-1 1 -3 1q-7 0 -7 -7q0 -6 15 -11.5t34 -10t37.5 -7.5t25.5 -4l29 -5q5 0 10.5 -0.5t10.5 -0.5q53 0 96.5 14
t73.5 52q6 8 8 17t2 16q0 6 -1 11t-2 9l-2 8q-8 -18 -28.5 -27.5t-46.5 -9.5q-20 0 -39 5.5t-34 17.5t-24 30.5t-9 44.5q0 53 37.5 88t112.5 35q12 -1 23 -13t27.5 -27.5t41.5 -30.5t66 -22v-134q-8 -48 -53 -99q49 -58 49 -120q0 -46 -23.5 -87t-66 -72t-103 -49.5
t-134.5 -18.5q-12 0 -24 0.5t-25 1.5z" />
    <glyph glyph-name="tt_bo_bn" horiz-adv-x="644" 
d="M171 -120l-63 100q-2 -1 15 6t45.5 17.5t66 23.5t78.5 24q-36 -6 -73 -6h-15l-14.5 1.5t-37 6t-49.5 11.5t-50 19l-7 3v485h-77v51h386q8 6 15 18t7 28q0 21 -11.5 36.5t-31 26t-45 15.5t-53.5 5t-55.5 -3t-48.5 -7t-34 -7l-13 -3l-38 42q-1 0 25 6.5t65.5 15t85 15.5
t84.5 8q76 -1 129 -14.5t86.5 -35.5t48.5 -49.5t15 -56.5q0 -6 -0.5 -11.5t-1.5 -11.5l-155 -17h204v-51h-426v-359q-21 4 -42.5 9t-43.5 13q-1 1 -2 1q-7 0 -7 -7q0 -6 14.5 -11.5t33.5 -10t37 -7.5t26 -4l30 -5q5 0 10.5 -0.5t10.5 -0.5q55 0 97.5 14t72.5 52q6 8 8 16.5
t3 16.5q0 6 -1 11t-2 9q-2 4 -3 8q-7 -18 -28 -27.5t-46 -9.5q-20 0 -39 5.5t-34 17.5t-24 30.5t-9 44.5q0 53 37.5 88t111.5 35q12 -1 23 -13t27.5 -27.5t41.5 -30.5t66 -22v-134q-4 -23 -18.5 -50t-36.5 -52.5t-50 -47.5t-59 -35h99v-316l-17 10q-42 27 -86 44.5
t-87.5 28.5t-87 16.5t-83.5 8.5zM392 -40q-25 -7 -49.5 -15t-49.5 -16l47 -13q37 -13 73.5 -32t72.5 -45q2 -2 4 -2q6 0 6 7t-13.5 17t-31.5 20t-35 18t-24 11v50z" />
    <glyph glyph-name="tt_mo_bn" horiz-adv-x="921" 
d="M854 -239l-164 87v34q-6 24 -23 50t-41.5 47t-56 34.5t-66.5 13.5q-48 0 -67 -14t-19 -26q0 -5 1 -7q0 -2 1 -3q11 11 30.5 18t42.5 7q15 0 34 -5t36 -16t29 -29t12 -43q0 -18 -10.5 -34.5t-29.5 -29.5t-44.5 -21t-56.5 -8q-20 0 -37 3.5t-35 25.5q-8 9 -17.5 19.5
t-24 21t-35.5 21t-51 19.5l44 124q-17 -2 -33.5 -3.5t-33.5 -1.5h-14l-15 1.5t-37.5 6t-49 11.5t-49.5 19l-7 3v485h-77v51h386q8 7 14.5 18.5t6.5 27.5q0 21 -11.5 37t-31 26t-45 15t-53.5 5t-55.5 -3t-48.5 -7t-34 -7l-13 -3l-37 42q7 3 35 9.5t66.5 14t81 13.5t77.5 8
q76 -1 129 -14.5t86.5 -35.5t49 -50t15.5 -57q0 -5 -0.5 -11t-1.5 -11l-156 -17h481v-51h-77v-810zM497 128h18q88 0 157.5 -35t123.5 -100v1q1 -3 5 -3q7 0 7 7q0 2 -2 4q-51 63 -116 98v471h-462v-359q-45 8 -85 22q-1 1 -3 1q-7 0 -7 -7q0 -6 14.5 -11t33.5 -9.5t38 -8
t27 -4.5l28 -5q5 0 10.5 -0.5t10.5 -0.5q56 0 98 14t71 52q11 15 11 32q0 12 -3.5 20.5t-2.5 8.5q-7 -18 -27.5 -27.5t-46.5 -9.5q-20 0 -39 6t-34 18t-24 30.5t-9 43.5q0 52 37.5 87.5t112.5 35.5q12 -1 23.5 -13t28 -27.5t41.5 -30.5t65 -22v-134q-5 -34 -32.5 -73.5
t-67.5 -71.5z" />
    <glyph glyph-name="tt_ro_bn" horiz-adv-x="644" 
d="M139 235q-7 0 -7 -7q0 -6 15 -11.5t34.5 -10t37.5 -7.5t25 -4l30 -5q5 0 10.5 -0.5t10.5 -0.5q54 0 96.5 14t73.5 52q6 8 8 16t2 16q0 11 -2.5 19t-2.5 10q-7 -18 -28 -27.5t-47 -9.5q-20 0 -39 5.5t-33.5 17.5t-23.5 30t-9 44t9.5 49t28 39.5t46.5 26t65 9.5
q12 -1 23 -13t27.5 -27.5t41.5 -30.5t66 -22v-134q-3 -21 -16.5 -46t-33 -49.5t-45 -46t-52.5 -35.5l110 -45v-229l-16 12q-68 47 -141 68t-158 21q-103 0 -196 -30l49 120q2 -1 33.5 4.5t81.5 5.5q32 0 67 -4t71.5 -15t74 -30t75.5 -49q2 -2 4 -2q7 0 7 7q0 3 -2 5
q-26 21 -52.5 37.5t-54.5 27.5v75q-42 -16 -86 -23t-93 -7q1 0 -14 1.5t-37.5 6t-49 11.5t-49.5 19l-7 3v485h-77v51h387q7 7 13.5 18.5t6.5 27.5q0 21 -11.5 37t-30.5 26t-44.5 15t-53.5 5t-55.5 -3t-49 -7t-34.5 -7l-13 -3l-37 42q-2 0 24.5 6.5t66 15t85 15.5t83.5 8
q77 -1 130 -15t86 -36t48 -49.5t15 -55.5q0 -6 -0.5 -11.5t-1.5 -11.5l-154 -17h204v-51h-427v-359q-20 4 -41.5 9t-43.5 13q-1 1 -3 1z" />
    <glyph glyph-name="tt_ro_alt_bn" horiz-adv-x="644" 
d="M403 75q-42 -16 -86 -23t-93 -7h-2q-9 3 -25.5 5.5t-36.5 6.5t-42.5 10t-43.5 16l-7 3v485h-77v51h387q7 7 13.5 18.5t6.5 27.5q0 22 -12.5 38t-32.5 26t-46 14.5t-54 4.5q-32 0 -61.5 -4t-52.5 -9h-3q-1 -1 -3 -1l-2 -1q-16 -3 -23 -5h-2l-37 42l43 11q21 5 47.5 10.5
t56 10.5t58.5 8.5t54 4.5q77 -1 130 -15t86 -36t48 -49.5t15 -55.5q0 -6 -0.5 -11.5t-1.5 -11.5l-154 -17h204v-51h-427v-359q-20 4 -41.5 9t-43.5 13q-1 1 -3 1q-7 0 -7 -7q0 -6 15 -11.5t34.5 -10t37.5 -7.5t25 -4l30 -5q5 0 10.5 -0.5t10.5 -0.5q54 0 96.5 14t73.5 52
q6 8 8 16t2 16t-2 15t-2 12l-1 2q-7 -18 -28 -27.5t-47 -9.5q-20 0 -39 5.5t-33.5 17.5t-23.5 30t-9 44t9.5 49t28 39.5t46.5 26t65 9.5q12 -1 23 -13t27.5 -27.5t41.5 -30.5t66 -22v-134q-3 -21 -16.5 -46t-33 -49.5t-45 -46t-52.5 -35.5l109 -44v-265l-16 13
q-68 54 -174.5 86t-242.5 32q-164 0 -384 -53l48 130l53 11q51 11 106 15.5t113 4.5q27 0 61 -1t74 -6.5t86.5 -16t99.5 -29.5q59 -22 117 -74l4 -1q7 0 7 7q0 3 -2 5q-54 47 -106 69v96z" />
    <glyph glyph-name="tth_ro_bn" horiz-adv-x="595" 
d="M605 622v-51h-270q13 -11 28 -24t33 -29l56 -49q51 -51 73.5 -104t22.5 -113t-25 -104t-72 -76l102 -42v-230l-16 13q-67 47 -141.5 67.5t-159.5 20.5q-103 0 -193 -28l47 118l8 1.5t23.5 3.5t36.5 4t47 2q67 0 141 -20t148 -79q1 -1 5 -1q7 0 7 7q0 3 -3 5
q-53 44 -107 66v62q-58 -25 -124 -25q-53 0 -109.5 17t-115.5 55l36 252q23 -38 44 -62q16 3 39 10.5t44 20.5t36 32.5t15 47.5q0 23 -9 45.5t-20.5 40.5t-20.5 28.5l-9 10.5l27 42q-1 0 10 -11.5t26 -29.5t31.5 -41t27.5 -46q12 -26 17 -50t5 -46q0 -45 -20.5 -80.5
t-56.5 -59.5q-41 8 -83 45q-1 1 -5 1q-7 0 -7 -7t10 -14.5t23.5 -14.5t26.5 -12.5t19 -6.5q21 -7 44 -7q29 0 51.5 9.5t38.5 24.5t24 34t8 39q0 35 -13 69t-32 63q1 0 -11.5 14.5t-31 35.5t-40 44t-38.5 39l-23 22h-240v51h191q-29 32 -48 69.5t-19 73.5q0 49 39 102l223 5
q0 -1 -19 -15t-42 -38t-42.5 -55.5t-19.5 -67.5q0 -18 6.5 -36.5t21.5 -37.5h324z" />
    <glyph glyph-name="dd_ddo_bn" horiz-adv-x="1050" 
d="M1060 571h-303v-197q24 13 40.5 27t26 25.5t13.5 18.5t4 6l121 -32q41 -80 41 -149q0 -62 -24.5 -111t-66.5 -83.5t-98 -53t-119 -18.5q-67 0 -136.5 26.5t-131.5 89.5q-64 -32 -139 -32t-138.5 30.5t-123.5 102.5l81 219q16 -66 41.5 -108.5t54.5 -67.5t59 -34.5
t56 -9.5q30 0 52.5 9.5t37.5 25t23 35t8 39.5v11q6 4 15.5 11.5t18 16t15 16t6.5 13.5q0 7 -7 7q-2 0 -4 -2q-40 -49 -100 -83q-11 -11 -32 -17.5t-36 -8.5l-113 71v207h-212v51h1070v-51zM834 287q-53 -33 -105 -45l-133 85v244h-256v-165q20 11 34 22.5t22 21.5
q10 11 15 22l106 -29q35 -67 35 -129q0 -12 -1 -23.5t-4 -22.5q44 -63 90.5 -87t96.5 -24q34 0 59.5 11t43 29t26.5 40t9 44v9t-1 9q7 5 18 14t21.5 18.5t18.5 18t8 13.5q0 7 -7 7q-3 0 -12 -8t-20 -18.5l-22 -21t-18 -16.5l-3 -3l-17 -13l-3 -2q-1 0 -1 -1z" />
    <glyph glyph-name="dd_ro_bn" horiz-adv-x="684" 
d="M694 571h-304v-197q25 13 41.5 27t26 25.5t13 18.5t3.5 6l122 -32q40 -80 40 -150q0 -33 -8.5 -64.5t-23.5 -59t-35.5 -49.5t-44.5 -36l96 -39v-229l-16 11q-67 46 -139.5 67.5t-156.5 21.5q-102 0 -198 -29l47 119q-1 0 7.5 1.5t23.5 3.5t36 3.5t46 1.5q68 0 141 -19.5
t152 -79.5q1 -1 4 -1q7 0 7 7q0 3 -2 5q-54 43 -108 66v60q-63 -26 -131 -26q-85 0 -161.5 36t-145.5 119l95 256q18 -78 47 -127.5t62 -78.5t68 -40t65 -11q37 0 64 11t44.5 29t26 40t8.5 44v8.5t-1 8.5q7 5 18 14t21.5 18.5t18.5 18t8 13.5q0 7 -8 7q-3 0 -12 -8
t-20 -18.5l-22 -21t-18 -16.5l-1 -2q-1 0 -1 -1l-17 -13l-3 -2q-1 0 -2 -1q-51 -33 -104 -45l-133 85v244h-240v51h704v-51z" />
    <glyph glyph-name="ddh_ro_bn" horiz-adv-x="652" 
d="M141 231q-7 0 -7 -7q0 -6 14.5 -11.5t34 -10.5t38.5 -8.5t28 -4.5l28 -3q6 0 12.5 -0.5t12.5 -0.5q54 0 96.5 13.5t71.5 53.5q11 15 11 32q0 12 -3.5 20t-2.5 8q-8 -17 -29.5 -27t-47.5 -10q-19 0 -38 6t-34 18t-24 31t-9 45q0 54 38.5 89t113.5 35q12 -2 24 -14.5
t29 -27.5t42 -30t64 -22v-135q-3 -20 -13.5 -41.5t-26.5 -43t-37 -42t-45 -37.5l-26 -16l110 -45v-233l-15 12q-69 47 -144 68t-162 21q-104 0 -194 -28l47 120q-1 0 7.5 1.5t24 3.5t37 4t47.5 2q33 0 69.5 -4.5t74 -15.5t75.5 -31t75 -50q1 -1 5 -1q7 0 7 7q0 3 -3 5
q-53 44 -108 67v77q-83 -31 -182 -31q1 0 -14 1.5t-38 5.5t-50 12t-50 20l-8 3v490h-77v51h672v-51h-432v-365q-44 8 -86 25h-3z" />
    <glyph glyph-name="nn_tto_bn" horiz-adv-x="999" 
d="M960 640l-154 -18h203v-51h-422v-355q-21 4 -42 9.5t-43 13.5q-1 1 -2 1q-7 0 -7 -7q0 -6 14 -11.5t33 -10t37.5 -8t26.5 -4.5l28 -5q5 0 10.5 -0.5t10.5 -0.5q54 0 96.5 14.5t71.5 52.5q6 8 8 16t2 16q0 5 -1 10t-2 9t-2 7q-7 -17 -28 -26.5t-47 -9.5q-20 0 -38.5 6
t-33 18t-23.5 30.5t-9 43.5q0 53 38 87.5t111 34.5q12 -2 23 -14t27.5 -27t41 -29.5t63.5 -21.5l1 -134q-6 -37 -33 -76.5t-72.5 -72.5t-108.5 -54t-140 -21h-14l-14.5 1.5t-37 5.5t-49.5 11t-50 19l-6 6v264q-6 28 -20.5 53t-35 43.5t-46.5 29t-56 10.5q-14 0 -33.5 -5
t-37 -14t-30 -21t-12.5 -27q0 -8 2.5 -13.5t4.5 -5.5q8 19 30.5 34t49.5 15q11 0 27.5 -5.5t31.5 -18t25.5 -32t10.5 -47.5q0 -20 -9 -41t-25.5 -38.5t-40 -29t-51.5 -11.5q-13 0 -24 10t-27.5 23.5t-43 26t-70.5 17.5v149q2 16 17 43t42.5 53t69.5 45.5t98 19.5
q79 0 148 -43.5t113 -137.5q1 -4 6 -4q7 0 7 7v1q-43 98 -121 147v50l160 30v-50h146q7 7 14 19t7 28q0 20 -11.5 35t-30.5 25t-45 15t-54 5t-55 -3t-48 -6t-33.5 -5.5t-11.5 -2.5l-38 40q7 3 35 10t66 14.5t80.5 13.5t77.5 6q76 -1 128.5 -14.5t85.5 -35.5t47.5 -49.5
t14.5 -55.5q0 -5 -0.5 -10.5t-1.5 -10.5z" />
    <glyph glyph-name="nn_ttho_bn" horiz-adv-x="714" 
d="M573 469q49 -48 71.5 -99.5t22.5 -111.5q0 -51 -20 -94t-56 -74t-85.5 -48.5t-109.5 -17.5q-52 0 -108.5 16t-115.5 53l34 250q22 -34 44 -62q12 3 29 9t34.5 15.5t32.5 23.5t23 33l-35 34q-8 57 -44 92t-88 35q-11 0 -25 -3.5t-26 -9.5t-20.5 -15t-8.5 -19q0 -5 2 -11
q1 -3 2 -4q7 14 22.5 25t34.5 11q7 0 17.5 -4t21 -12.5t18 -22t7.5 -32.5q0 -31 -24 -55.5t-62 -27.5q-9 0 -17.5 7.5t-20 16.5t-29.5 17.5t-47 10.5v104q0 11 10.5 29.5t30 36.5t49 31t67.5 13q29 0 58.5 -9.5t57.5 -30.5h1q0 -1 1 -1l2 -2q40 -32 63 -87q1 -4 7 -4
q7 0 7 7q0 2 -1 3q-31 69 -82 103v18q-32 33 -56 74.5t-24 82.5q0 49 39 100l220 5l-18.5 -13.5t-41.5 -37.5t-42 -55.5t-19 -67.5q0 -17 6 -35.5t21 -36.5h321v-51h-268l61 -53q17 -16 31.5 -27.5t24.5 -21.5zM498 207q41 32 41 79q0 27 -4.5 48.5t-15.5 43t-29.5 45.5
t-45.5 54l22 -63q5 -16 7 -32t2 -30q0 -49 -22.5 -88.5t-61.5 -66.5q-39 9 -82 44h-1q-2 2 -4 2q-7 0 -7 -7t10 -15t23.5 -15t26.5 -12.5t18 -6.5q11 -4 21.5 -5t21.5 -1q25 0 45 7.5t35 18.5z" />
    <glyph glyph-name="nn_ddo_bn" horiz-adv-x="776" 
d="M710 109q-8 -16 -19.5 -28.5t-23 -21.5t-19 -14l-7.5 -5q-38 -26 -95.5 -42.5t-125.5 -16.5q-81 0 -148 24t-115 53t-74 52.5l-26 23.5l162 178q14 -59 38.5 -99t55.5 -64.5t65 -35t67 -10.5t60 8t46.5 21t30.5 30t11 35q0 25 -13 40t-29 22.5t-29.5 9.5l-13.5 2l3.5 -4
t8 -10t8.5 -15t4 -19t-6.5 -23t-19 -25t-30.5 -20t-41 -8q-21 0 -42 6.5t-37.5 17t-26.5 25t-10 29.5q0 13 7 24q39 67 56 93q11 16 17 25h71q51 42 51 77q0 30 -39 50q1 0 -8.5 -12t-24.5 -28t-32.5 -32t-33.5 -24l-31 -6q-8 0 -12 6t-8 17l-6 17q-23 45 -56 69t-72 24
q-11 0 -23 -4t-22 -10.5t-16.5 -16t-6.5 -21.5q0 -7 1 -9q0 -2 1 -3q8 15 24 26.5t36 11.5q8 0 20 -4.5t23.5 -13.5t20 -23.5t8.5 -35.5q0 -15 -7 -30.5t-19.5 -28t-30 -21t-38.5 -8.5q-9 0 -17 7.5t-20.5 17t-32 18.5t-52.5 12v110q1 16 13.5 37t34.5 40t52 32t66 13
q91 0 155 -77l2 -3v-1q3 -3 7 -12.5t8.5 -19.5t8.5 -18t6 -8q7 0 7 7v2q-9 30 -24 53l56 77q39 -12 77 -29t68 -39t48.5 -48t18.5 -56q0 -49 -56 -96q72 -42 102.5 -86t30.5 -92q0 -36 -18 -66z" />
    <glyph glyph-name="nn_dd_ro_bn" horiz-adv-x="774" 
d="M607 365q64 -41 91.5 -81.5t27.5 -86.5q0 -27 -12 -51.5t-27 -43t-29 -30t-18 -11.5l-18 -10t-19 -10l91 -32v-208l-17 11q-72 42 -149 61t-166 19q-105 0 -203 -26l49 107q1 -1 35.5 4.5t88.5 5.5q69 0 146.5 -18.5t155.5 -71.5q2 -2 4 -2q7 0 7 7t-15.5 17t-35 19.5
t-38.5 17t-26 10.5v55q-26 -5 -57 -9t-59 -4q-53 0 -100 11.5t-87 28t-71 36.5t-53 36.5t-33.5 27.5t-11.5 10l161 178q14 -59 38.5 -98.5t55 -63.5t64 -34.5t66.5 -10.5q34 0 61 8t46.5 21.5t30 30.5t10.5 35q0 25 -13 39t-28.5 21t-29 9l-13.5 2l3.5 -4t8 -10t8.5 -15
t4 -19t-6.5 -23t-19 -25t-30.5 -20t-41 -8q-21 0 -42 6.5t-37.5 17.5t-26.5 25t-10 30q0 13 7 24q20 33 33.5 55.5t22.5 36.5q11 16 18 26h91q29 34 29 58q0 28 -38 48l-9 -12t-23.5 -27.5t-32.5 -31t-35 -24.5l-29 -6q-9 0 -12.5 6t-8.5 17l-7 17q-22 44 -54.5 68t-70.5 24
q-12 0 -24 -4t-22 -10.5t-16.5 -16t-6.5 -20.5q0 -6 1 -9.5t1 -2.5q7 15 23 26t36 11q7 0 19.5 -4t24 -13t20 -23.5t8.5 -34.5q0 -32 -24.5 -57.5t-67.5 -31.5q-10 0 -19 7.5t-21.5 17t-32.5 18.5t-51 11l-1 111q3 13 15 34t33 40t51.5 33t69.5 14q20 0 41.5 -5t42 -15.5
t38.5 -25.5t32 -36l3 -6q3 -5 6.5 -13t7.5 -16.5t7 -14.5t6 -6q7 0 7 7v2q-10 32 -25 53l58 76q42 -13 79.5 -30.5t66.5 -39t46 -47t17 -53.5q0 -21 -10 -43t-31 -43z" />
    <glyph glyph-name="nn_ddho_bn" horiz-adv-x="998" 
d="M587 672v-50h421v-51h-421v-355q-22 4 -43 9.5t-43 13.5q-1 1 -3 1q-7 0 -7 -7q0 -6 14.5 -11.5t33.5 -10t37.5 -8t26.5 -4.5l28 -5q5 0 10.5 -0.5t10.5 -0.5q54 0 96 14.5t72 52.5q11 14 11 31q0 11 -3.5 19t-2.5 8q-7 -17 -28 -26.5t-46 -9.5q-20 0 -38.5 6t-33 18.5
t-23.5 31t-9 44.5q0 53 38 86.5t110 33.5q11 -2 22 -14t27.5 -27t41.5 -29.5t65 -21.5v-134q-5 -36 -31.5 -75.5t-72 -72.5t-108.5 -54.5t-142 -21.5h-14q-26 3 -52 7q-23 4 -49 11t-49 19l-6 6v264q-7 28 -21.5 53t-35 43.5t-46.5 29t-56 10.5q-14 0 -33.5 -5t-36.5 -14
t-29 -21t-12 -27q0 -8 2 -14q1 -3 3 -5q9 19 31.5 34t49.5 15q11 0 27 -5.5t31 -18t26 -32t11 -47.5q0 -20 -9 -41t-25.5 -38.5t-40.5 -29t-53 -11.5q-11 0 -22 10t-28.5 23.5t-44 26t-68.5 17.5v149q2 16 17 43.5t43.5 53.5t70.5 45t97 19q79 0 148 -44.5t111 -136.5
q3 -4 7 -4q7 0 7 7q0 1 -1 1q-45 99 -120 147v50z" />
    <glyph glyph-name="nn_nno_bn" horiz-adv-x="653" 
d="M586 -146l-159 104v64q-3 13 -10.5 27t-19 25t-26 18t-30.5 7q-14 0 -19 -5t-6 -4q24 -3 45.5 -23.5t21.5 -52.5q0 -11 -5.5 -27t-16.5 -30t-28 -24t-39 -10q-36 0 -64 20t-45 56q-2 6 -2 8q0 8 4 17t9 20.5t9 26.5t4 35q0 25 -7 53l126 43q4 1 17 1q22 0 45.5 -7.5
t47 -22.5t45 -38t39.5 -55q1 -4 5 -4q7 0 7 6q0 2 -1 3q-20 40 -47 68t-59 45v161q-6 28 -20.5 53t-35 43.5t-46.5 29t-56 10.5q-14 0 -33 -5t-36.5 -14t-30 -21.5t-12.5 -27.5q0 -8 2 -13t4 -5q9 19 31.5 34t49.5 15q11 0 27 -5.5t31 -18t26 -32t11 -47.5q0 -20 -9.5 -41
t-26 -38.5t-40.5 -29t-52 -11.5q-11 0 -22.5 10t-28.5 23.5t-44 26t-69 17.5v149q2 16 17 43.5t43.5 53.5t70 45t97.5 19q78 0 147 -43.5t113 -137.5q1 -4 6 -4q8 0 8 7q0 1 -1 1q-45 99 -121 147v50l159 30v-50h77v-51h-77v-717z" />
    <glyph glyph-name="nn_bo_bn" horiz-adv-x="662" 
d="M577 -128q-49 31 -100 51.5t-101.5 33t-99.5 19t-95 10.5l-73 114q-1 0 27.5 11.5t75 28t105 34.5t117.5 30v151q-6 30 -21 55t-36 44t-48 29.5t-57 10.5q-14 0 -33.5 -5t-37 -13.5t-30 -21t-12.5 -27.5q0 -10 3 -16t3 -5q9 20 31.5 35t50.5 15q11 0 27.5 -5.5t32 -18.5
t26.5 -33t11 -48q0 -20 -9.5 -41.5t-27 -39t-41 -29t-51.5 -11.5q-12 0 -23.5 10.5t-29 24t-44.5 26t-70 17.5v151q2 16 17.5 44t44 54.5t70.5 46t98 19.5q80 0 150 -44.5t115 -139.5q1 -4 7 -4q7 0 7 7q0 1 -1 1q-44 99 -122 149v51l162 30v-51h77v-51h-77v-711zM433 77
q-27 -8 -55 -17t-57 -19q58 -14 112 -38t110 -64q1 -1 4 -1q7 0 7 6q0 4 -3 6q-59 44 -118 69v58z" />
    <glyph glyph-name="nn_mo_bn" horiz-adv-x="977" 
d="M656 -3q1 -5 1.5 -8.5t0.5 -8.5q0 -18 -10.5 -35t-29 -30t-43.5 -21t-55 -8q-20 0 -39 3t-37 27q-7 9 -16.5 19t-24 20.5t-35.5 21.5t-51 20l44 126q13 22 72 49v183q-6 30 -21 55t-36 44t-48 29.5t-57 10.5q-14 0 -33.5 -5t-37 -13.5t-30 -21t-12.5 -27.5q0 -10 3 -16
t3 -5q9 20 31.5 35t50.5 15q11 0 27.5 -5.5t32 -18.5t26.5 -33t11 -48q0 -20 -9.5 -41.5t-27 -39t-41 -29t-51.5 -11.5q-12 0 -23.5 10.5t-29 24t-44.5 26t-70 17.5v151q2 16 17.5 44t44 54.5t70.5 46t98 19.5q80 0 150 -44.5t115 -139.5q1 -4 7 -4q7 0 7 7q0 1 -1 1
q-44 99 -122 149v51l162 30v-51h392v-51h-77v-739l-165 87v34q-5 25 -22 51t-41.5 47t-56 34.5t-65.5 13.5q-26 0 -42.5 -4.5t-27 -11t-14.5 -13.5t-4 -13v-6q0 -2 1 -3q12 11 33 18t44 7q32 0 62.5 -17t43.5 -59zM595 571l-1 -372q86 -6 151 -44v1q61 -33 108 -92
q2 -2 5 -2q7 0 7 7q0 3 -1 4q-53 65 -119 99v399h-150z" />
    <glyph glyph-name="nn_ro_bn" horiz-adv-x="661" 
d="M594 673v-51h77v-51h-77v-670l-15 11q-69 42 -145.5 60t-164.5 18q-53 0 -102.5 -6.5t-97.5 -19.5l48 105q1 -1 34.5 4t85.5 5q33 0 70 -4t75 -13.5t77 -26.5t76 -42q1 -1 4 -1q7 0 7 7t-15 16.5t-34.5 19t-38 16.5t-25.5 10v295q-7 29 -22 54.5t-36 44t-47.5 29.5
t-57.5 11q-14 0 -33.5 -5t-37 -14t-29.5 -22t-12 -28q0 -8 2.5 -14t3.5 -5q9 20 31.5 35t50.5 15q11 0 27.5 -5.5t32 -18.5t26.5 -33t11 -48q0 -20 -9.5 -41.5t-27 -39t-41.5 -29t-52 -11.5q-12 0 -23.5 10.5t-28.5 24t-44 26t-70 17.5v151q2 16 17 43.5t43.5 54.5
t70.5 46.5t99 19.5q80 0 150 -44.5t115 -139.5q1 -4 6 -4q7 0 7 7v1q-46 100 -122 149v51z" />
    <glyph glyph-name="t_to_bn" horiz-adv-x="668" 
d="M466 276q32 -6 60 -18.5t49 -31t33 -43.5t12 -56q0 -25 -12 -56.5t-42 -59.5t-81.5 -47t-131.5 -19q-46 0 -88 10.5t-78.5 26.5t-66 34t-50.5 34t-32.5 26t-11.5 9l82 177q31 -53 62.5 -88t62 -56t60 -29.5t55.5 -9.5q74 0 110 19.5t36 49.5q0 10 -10 21t-30 11
q-16 0 -33 -7t-31 -15q-17 -10 -33 -22l-125 51v7q0 27 19.5 53t43 50.5t43 48t19.5 46.5q0 10 -6 21.5t-16.5 22t-26 17.5t-33.5 7q-8 0 -13 -0.5t-4 -0.5q37 -16 37 -59q0 -12 -7 -26t-20 -26t-33 -20.5t-45 -8.5q-42 0 -73 27t-36 69q0 10 10.5 18.5t24.5 21t27.5 33
t19.5 55.5h152q22 -2 53.5 -13.5t60.5 -32t49.5 -49t20.5 -62.5q0 -20 -6.5 -37.5t-17.5 -34t-26 -34t-31 -36.5l-10 -10q-1 -1 -1 -5q0 -8 8 -8q4 0 5 4l8 9q11 11 20.5 21.5t17.5 20.5zM-10 571v51h688v-51h-688z" />
    <glyph glyph-name="t_t_bo_bn" horiz-adv-x="668" 
d="M509 -224q9 0 9 8q0 3 -3 5q-51 38 -105 61v51q-25 -8 -49.5 -16t-50.5 -17q100 -21 195 -90q2 -2 4 -2zM553 0v-291l-17 12q-42 26 -86.5 43.5t-89.5 29t-88.5 17.5t-84.5 9l-63 101l1 1l30 12l36 13.5t46 15.5q-63 21 -110.5 49t-73.5 51l-2 1q-1 0 -1 1h-1l-3 3l-1 1
l-1 1q-9 7 -13 10.5t-5 4.5l83 177q32 -58 66 -93.5t67.5 -55.5t64.5 -27t57 -7q62 0 96 21t34 48q0 10 -10 21t-29 11q-22 0 -45.5 -12t-39.5 -23l-10 -7q-1 -1 -2 -1l-1 -1l-21 10l-103 41v7q0 27 19.5 53t43 50.5t43 48t19.5 46.5q0 10 -6 22t-17 22.5t-25.5 17.5
t-32.5 7q-15 0 -17 -2h-2q38 -17 38 -59q0 -12 -7 -26t-20 -26t-33 -20.5t-45 -8.5q-42 0 -73 27t-36 69q0 10 10.5 18.5t24.5 21t27.5 33t19.5 55.5h152q21 -2 52.5 -13.5t60.5 -31.5t50 -48.5t21 -63.5q0 -20 -6.5 -37.5t-17.5 -34t-26 -34t-31 -36.5l-10 -10q-2 -2 -2 -5
q0 -8 8 -8q5 0 6 4l8 9q11 11 20 21.5t17 20.5q32 -5 60.5 -17.5t49.5 -31t33 -43t12 -54.5q0 -35 -15 -68t-53 -62zM-10 571v51h688v-51h-688z" />
    <glyph glyph-name="t_tho_bn" horiz-adv-x="772" 
d="M705 681v-59h77v-51h-77v-644l-25 21q-60 46 -122.5 77.5t-130 53t-141.5 36t-158 27.5l-81 154q30 -5 52.5 -6.5t45.5 -1.5q65 0 113.5 14t81 35.5t48.5 47.5t16 51q0 17 -8.5 28.5t-23.5 11.5q-20 0 -31 -21t-11 -48l-76 -14v1l-1 -1q0 5 0.5 9.5t0.5 8.5q0 33 -8.5 52
t-19.5 29t-21.5 12.5t-14.5 2.5q-6 0 -10 -2q-2 -1 -4 -1q22 -9 35.5 -28t13.5 -45q0 -15 -8 -29t-22 -24.5t-32.5 -16.5t-38.5 -6q-46 0 -74 26t-33 73q0 11 10.5 21t24.5 25.5t27 39.5t19 65h89q10 -1 24.5 -3.5t29.5 -9t30.5 -17t27.5 -28.5q46 58 82 58h4q20 0 42 -17
t41 -45t31 -64.5t12 -75.5q0 -126 -131 -202q65 -24 131 -59.5t129 -92.5q2 -2 5 -2q7 0 7 8q0 3 -2 5q-55 51 -115 86v502z" />
    <glyph glyph-name="t_no_bn" horiz-adv-x="796" 
d="M-10 571v51h816v-51h-816zM454 -3q-8 -3 -21.5 -2.5t-23.5 0.5q-68 0 -124.5 17t-101.5 42t-77.5 52t-51.5 48l-1 1h-1q0 1 -1 1l-3 4l-22 25l127 309q18 -92 46.5 -153.5t64 -99.5t75.5 -54t80 -16q42 0 76 12t58.5 32t37.5 45t13 51q0 36 -14.5 59.5t-33 37t-36 18.5
t-24.5 5l-4 1l3 -3q3 -7 10.5 -15.5t15 -20.5t13 -27t5.5 -34q0 -16 -8 -35.5t-23.5 -37t-37.5 -29t-49 -11.5t-52.5 10t-45 26t-31 36t-11.5 41q0 8 1.5 18t6.5 19q28 58 37 93t8 52q0 8 -1 12t-1 6l-1 2h242q88 -47 132 -114.5t44 -144.5q0 -45 -17.5 -87t-36.5 -67h-1
q-11 -15 -20 -25t-18 -18t-19 -14.5t-23 -15.5v-390l-160 87v33q-7 27 -30.5 49t-58.5 22q-14 0 -21 -5l-3 -3q25 -2 47 -20.5t22 -47.5q0 -11 -5.5 -25.5t-17 -28t-28.5 -23t-40 -9.5q-72 0 -109 70q-2 4 -2 8q0 7 4 15.5t9 19t9 24.5t4 32q0 11 -1.5 23t-5.5 26l126 39
q5 1 18 1q48 0 96.5 -29t80.5 -85q1 -4 6 -4q7 0 7 7q0 3 -1 4q-40 71 -106 103v56z" />
    <glyph glyph-name="t_bo_bn" horiz-adv-x="796" 
d="M595 -217q-26 19 -52 34.5t-52 26.5v50q-25 -8 -49.5 -16t-50.5 -17q22 -5 45 -12l2 -2q75 -22 148 -77q1 -1 4 -1q8 0 8 8q0 2 -2 6h-1zM495 429q3 -7 10.5 -15.5t15 -20.5t13 -27t5.5 -34q0 -16 -8 -35.5t-23.5 -37t-37.5 -29t-49 -11.5t-52.5 10t-45 26t-31 36
t-11.5 41q0 8 1.5 18t6.5 19q28 58 37 93t8 52q0 8 -1 12t-1 6l-1 2h242q88 -47 132 -114.5t44 -144.5q0 -45 -17.5 -87t-36.5 -67h-1q-11 -15 -18.5 -23.5t-13.5 -14t-12.5 -10t-15.5 -11.5l-1 -359l-16 11q-87 52 -177.5 73t-172.5 26l-63 102l1 1q7 1 29 9.5t54.5 20.5
t72.5 25t83 25q-9 -1 -18 -1h-17q-68 0 -124.5 17t-101.5 42t-77.5 52t-51.5 48l-1 1h-1q0 1 -1 1l-3 4l-22 25l127 309q18 -92 46.5 -153.5t64 -99.5t75.5 -54t80 -16q42 0 76 12t58.5 32t37.5 45t13 51q0 36 -14.5 59.5t-33 37t-36 18.5t-24.5 5l-2 1zM-10 571v51h816v-51
h-816z" />
    <glyph glyph-name="t_lo_bn" horiz-adv-x="796" 
d="M-10 571v51h816v-51h-816zM489 22q-44 -6 -83 -6q-64 0 -119.5 15.5t-100 38.5t-77.5 49t-52 47l-30 32l-1 1l127 297q17 -88 46 -147.5t64.5 -96t75.5 -52t79 -15.5q40 0 74 11.5t58.5 29.5t38.5 41t14 47q0 37 -13.5 60.5t-32 37t-36.5 19t-27 5.5h-2l9 -10
q11 -12 24.5 -34.5t13.5 -50.5q0 -15 -8 -33.5t-23.5 -35.5t-37.5 -28.5t-50 -11.5q-27 0 -52 9t-44.5 24.5t-31 35.5t-11.5 41q0 17 7 34q29 53 37.5 86.5t8.5 50.5q0 9 -1 13t-1 6l-1 2h242q88 -45 132 -109t44 -139q0 -27 -7 -52t-17.5 -46t-21.5 -37t-19 -26l-10 -12
l-14 -12v-400l-171 74v45q-4 14 -12.5 27.5t-26.5 13.5q-14 0 -24 -11.5t-10 -36.5q0 -2 0.5 -5t0.5 -5l-105 -13q0 36 -8 56.5t-19.5 31.5t-24 14t-20.5 3t-13.5 -1.5t-10.5 -1.5l-2 -1q22 -10 35 -29t13 -45q0 -29 -27.5 -52.5t-71.5 -23.5q-48 0 -79.5 26.5t-36.5 72.5
q0 11 10 20.5t23.5 25t26.5 39.5t19 64h100q18 0 36.5 -2.5t36.5 -9.5t34 -19.5t28 -31.5q39 44 76 44h4h6q20 0 40 -7.5t37.5 -21.5t31 -34t20.5 -45q2 -5 7 -5q8 0 8 7v3q-30 87 -102 112v43z" />
    <glyph glyph-name="t_mo_bn" horiz-adv-x="958" 
d="M-10 571v51h978v-51h-77v-809l-176 95v36q-6 26 -25 54t-46 50.5t-61.5 37t-72.5 14.5q-27 0 -44 -4.5t-27.5 -11t-14.5 -13.5t-4 -13q0 -5 1 -8t1 -2q13 11 34 18.5t46 7.5q16 0 36.5 -5t39 -17t31 -31.5t12.5 -47.5q0 -19 -11 -37t-31 -32t-47.5 -22.5t-59.5 -8.5
q-22 0 -41.5 3.5t-38.5 28.5q-15 19 -45 43t-93 44l47 135q5 8 19 19q-65 7 -117.5 30t-90 48.5t-60 48.5t-26.5 30l109 254q15 -74 39.5 -124.5t54.5 -82t64.5 -45.5t69.5 -14q37 0 66.5 10t50.5 26t32.5 36.5t11.5 42.5q0 34 -15.5 54t-33.5 30t-33 12.5t-14 3.5l6 -6.5
t14 -17.5t14.5 -26t6.5 -32q0 -13 -7 -29t-20 -30.5t-32 -24t-44 -9.5q-22 0 -43.5 8t-38.5 21t-27.5 30t-10.5 35q0 15 7 28q24 48 31.5 76.5t7.5 42.5q0 8 -2 14q-1 3 -1 4h208q75 -38 113 -93.5t38 -119.5q0 -32 -10 -59t-22 -47t-22 -31.5l-10 -11.5l-24 -19
q85 -8 150 -43.5t119 -100.5q1 -3 7 -3q7 0 7 7q0 3 -2 5q-56 67 -126 105v443h-725z" />
    <glyph glyph-name="t_ro_bn" horiz-adv-x="673" 
d="M-10 571v51h693v-51h-693zM606 408v-444l-17 14q-74 53 -158.5 77t-187.5 24q-117 0 -217 -33l96 185q-1 -1 23 -2t64 -7t91 -19.5t104 -39.5q37 -19 72.5 -44.5t70.5 -55.5q1 -1 5 -1q7 0 7 7q0 3 -3 5q-54 48 -106 79v209l-3 27q0 2 -6 14.5t-17 26.5t-26.5 25.5
t-34.5 11.5q-9 0 -17.5 -3t-14.5 -6t-9 -5.5l-3 -2.5l-16 -12q27 -8 48 -28.5t21 -46.5q0 -18 -10.5 -36.5t-29.5 -33.5t-44 -24.5t-55 -9.5q-11 0 -26.5 3.5t-30 10t-25 16.5t-10.5 23q0 11 5 26t5 37q0 16 -3.5 34t-13.5 39l106 95q35 8 67.5 11.5t61.5 3.5q32 0 58 -3.5
t44 -8.5q34 -10 59 -31t41.5 -43.5t25 -41t9.5 -22.5z" />
    <glyph glyph-name="th_bo_bn" horiz-adv-x="733" 
d="M177 312q32 5 59.5 16.5t48 28.5t32 38.5t11.5 46.5q0 13 -5.5 28.5t-16 28t-25.5 21t-35 8.5q-8 0 -13.5 -1t-4.5 -1q17 -8 28 -25t11 -38q0 -12 -6 -28t-19.5 -31t-34.5 -25t-50 -10q-45 0 -76 30.5t-34 79.5q0 10 9.5 19.5t22.5 24.5t25 38t18 60h164q21 -3 55 -21.5
t64 -56.5q51 -66 51 -136q0 -54 -27.5 -100t-75.5 -79q65 -24 128 -58t125 -88q2 -2 5 -2q7 0 7 7q0 2 -2 4q-56 50 -110 82v490l160 32v-73h77v-51h-77v-776l-16 12q-46 29 -93.5 48t-95 31t-94.5 18t-90 9l-69 108q-2 -1 16 6.5t49.5 19.5t73 26t86.5 26q-67 22 -141 39
t-157 29q-4 -1 -7.5 -1h-6.5l-77 147q37 -6 66 -6q17 0 32.5 1.5t34.5 3.5zM514 0l-52 -16t-54 -18q51 -12 103.5 -34t106.5 -60q2 -2 4 -2q7 0 7 7q0 4 -3 6q-57 42 -112 64v53z" />
    <glyph glyph-name="th_ro_bn" horiz-adv-x="733" 
d="M177 312q32 5 59.5 16.5t48 28.5t32 38.5t11.5 46.5q0 13 -5 28t-15 28t-25.5 21.5t-35.5 8.5q-9 0 -15 -1t-5 -1q19 -7 29.5 -24t10.5 -37q0 -12 -6.5 -28.5t-20 -31.5t-34 -25.5t-49.5 -10.5q-21 0 -40.5 8t-35 23t-25 35.5t-9.5 45.5q0 9 9.5 18t22 24t24.5 38t18 60
h166q10 -2 24 -7t30 -14.5t32.5 -23.5t31.5 -33q51 -66 51 -136q0 -54 -27.5 -100t-75.5 -79q65 -24 128.5 -58t124.5 -88q2 -2 4 -2q7 0 7 7q0 2 -2 4q-26 25 -53.5 45t-55.5 37v490l160 32v-73h77v-51h-77v-723l-16 12q-68 39 -142 57.5t-159 18.5q-108 0 -204 -25l48 104
l8.5 1.5t24.5 3.5t38 3.5t48 1.5q33 0 70 -4t75 -13.5t76 -26.5t75 -43q1 -1 4 -1q7 0 7 8q0 7 -15 16.5t-34 19t-38 16.5t-26 10v63q-81 36 -173.5 58t-198.5 39q-4 -1 -7.5 -1h-6.5l-77 147q40 -6 68 -6q16 0 31.5 1.5t34.5 3.5z" />
    <glyph glyph-name="th_lo_bn" horiz-adv-x="735" 
d="M178 312q32 5 59.5 16.5t48 28.5t32 38.5t11.5 46.5q0 13 -5.5 28.5t-16 28t-25.5 21t-35 8.5q-8 0 -13.5 -1t-4.5 -1q17 -8 28 -25t11 -37q0 -12 -6 -28.5t-19.5 -31.5t-34 -25t-49.5 -10q-46 0 -76.5 31t-35.5 79q0 9 10 18.5t22.5 24.5t25 38t17.5 61h165
q20 -3 49 -20t55.5 -45t45.5 -65.5t19 -80.5q0 -55 -27 -101.5t-75 -80.5q64 -24 127 -57.5t126 -88.5q2 -2 5 -2q7 0 7 7q0 2 -2 4q-55 49 -109 82v490l160 32v-73h77v-51h-77v-793l-163 69v42q-3 14 -10.5 26.5t-25.5 12.5q-14 0 -24 -11t-10 -34q0 -2 0.5 -4.5t0.5 -4.5
l-99 -13v2l-1 -2q0 31 -6.5 50.5t-16.5 31t-21.5 15.5t-21.5 4q-6 0 -10.5 -1t-8.5 -2t-7 -2q21 -10 34 -28.5t13 -42.5q0 -13 -7 -26t-20 -23t-30 -16t-38 -6q-46 0 -75 25t-34 68q0 11 9.5 21t22.5 24.5t25.5 37t17.5 60.5h93q34 0 70 -12.5t59 -48.5q37 42 72 42h4h6
q18 0 37 -7t35.5 -20t29.5 -32.5t20 -43.5q2 -5 7 -5q7 0 7 7v2q-28 81 -97 107v31q-81 36 -172.5 58t-197.5 38q-4 -1 -7.5 -1h-5.5l-78 147q40 -6 68 -6q16 0 31.5 1.5t34.5 3.5z" />
    <glyph glyph-name="d_do_bn" horiz-adv-x="972" 
d="M-10 571v51h992v-51h-752v-297q48 39 81 80.5t53.5 75t30 55t9.5 20.5h164v-287q47 39 80 80t54 75t30 55.5t9 20.5h164v-487l-164 104v138q61 70 97 143q1 1 1 4q0 8 -7 8q-4 0 -6 -5q-17 -32 -37.5 -64.5t-47.5 -63.5l-35 -40q-9 -11 -20 -20l-1 -1q-57 -54 -117 -90
h-164v184q61 73 98 146v3q0 7 -7 7q-5 0 -6 -4q-21 -42 -52.5 -88t-68.5 -81l-19 -19q-29 -29 -59 -51t-60 -39h-163v438h-77z" />
    <glyph glyph-name="d_d_bo_bn" horiz-adv-x="973" 
d="M-10 571v51h993v-51h-751v-297q47 39 80 80.5t53.5 75t30 55t9.5 20.5h163v-287q48 39 81 80t53.5 75t29.5 55.5t10 20.5h164v-670l-18 11q-46 28 -93.5 47t-94.5 31t-94 18.5t-91 9.5l-68 108l25.5 10t67 25t94.5 32t108 30v103q30 35 54.5 70.5t43.5 72.5v4q0 8 -7 8
q-2 0 -13 -16.5t-25 -38.5t-29 -44t-24 -34q-8 -11 -18 -20t-19 -20l-18 -20q-1 0 -1 -1q-58 -55 -118 -90h-163v184q30 36 54 72.5t43 73.5q1 1 1 3q0 7 -7 7q-5 0 -6 -4q-23 -43 -53 -88.5t-68 -80.5l-19 -18q0 -1 -1 -1q-57 -57 -117 -90h-165v438h-77zM867 -141
q0 4 -3 6q-55 43 -110 65v53q-26 -8 -52.5 -16.5t-53.5 -18.5q48 -11 101.5 -32.5t107.5 -61.5q2 -2 3 -2q7 0 7 7z" />
    <glyph glyph-name="d_dho_bn" horiz-adv-x="880" 
d="M67 133v438h-77v51h900v-51h-659v-297q46 39 79 80.5t54 75t31 55t10 20.5h162v-321q26 8 51 15.5t50 12.5h165v-448l-165 103v199q10 3 29.5 8t39 11t34.5 11.5t15 9.5q0 7 -7 7h-2q-55 -15 -107 -31.5t-103 -34.5v-298l-17 12q-46 28 -93.5 47.5t-95 31.5t-93.5 18.5
t-90 9.5l-68 107q-2 -1 21 12t63.5 34.5t95 48.5t115.5 54v135q29 36 53.5 72.5t43.5 73.5q1 1 1 3q0 7 -7 7q-5 0 -6 -4h-1q-26 -49 -62 -100t-78 -87q0 -1 -1 -1q-57 -57 -117 -90h-164zM530 -171q0 6 -15 16.5t-34 21t-38 19.5t-26 13v89q-37 -16 -71 -31t-65 -31
q60 -12 119 -35.5t119 -67.5q1 -1 4 -1q7 0 7 7z" />
    <glyph glyph-name="d_dh_bo_bn" horiz-adv-x="879" 
d="M67 133v438h-77v51h899v-51h-658v-297q48 39 80.5 80.5t53 75t30 55t9.5 20.5h164v-264q51 16 100 27h164v-448l-164 103v200q53 17 113 31v1q5 0 5 6q0 7 -7 7h-2q-56 -14 -108.5 -30t-100.5 -33v-432l-15 10q-39 24 -80 40.5t-82 27t-81.5 15.5t-77.5 8l-59 93
q14 6 32 13q16 6 37.5 14t48.5 17q-29 4 -57.5 7.5t-55.5 5.5l-69 109q-2 -1 21 12t63.5 34t95 47.5t115.5 52.5v80q60 70 97 146q1 1 1 3q0 7 -6 7q-2 0 -13.5 -16.5t-26 -38.5l-29 -44t-23.5 -34q-13 -16 -26.5 -31t-28.5 -27q0 -1 -1 -1q-56 -57 -117 -90h-164zM536 -259
q0 7 -13 16.5t-29.5 18.5t-33 16.5t-23.5 10.5v46q-22 -7 -45 -14.5t-47 -15.5q51 -14 94 -32.5t85 -49.5q2 -2 5 -2q7 0 7 6zM529 -115q0 4 -3 6q-26 20 -53.5 36.5t-56.5 27.5v90q-74 -32 -135 -63q57 -12 117.5 -35t119.5 -67q2 -2 4 -2q7 0 7 7z" />
    <glyph glyph-name="d_no_bn" horiz-adv-x="635" 
d="M67 133v438h-77v51h655v-51h-414v-297q47 39 80 80.5t53.5 75t30 55t9.5 20.5h164v-533v-158l-164 90v34q-3 13 -11 25.5t-20 23t-26.5 17t-31.5 6.5q-12 0 -20 -4q-4 -2 -7 -4q13 -1 25.5 -7t22.5 -15t16 -21.5t6 -27.5q0 -12 -6 -26.5t-17.5 -28t-29 -22.5t-40.5 -9
q-76 0 -111 71q-2 4 -2 8q0 8 4 17t9 20t9 25t4 33q0 11 -1 22.5t-5 25.5l129 41q10 2 19 2q47 0 96.5 -30.5t83.5 -87.5q1 -4 6 -4q7 0 7 7v3q-44 75 -109 107v154q29 36 53.5 72.5t43.5 73.5q1 1 1 3q0 7 -7 7q-2 0 -13.5 -16.5t-26 -39t-29 -44.5t-22.5 -33
q-8 -12 -18 -21t-19 -19l-18 -19q-57 -56 -118 -90h-164z" />
    <glyph glyph-name="d_bo_bn" horiz-adv-x="635" 
d="M67 133v438h-77v51h655v-51h-415v-297q48 39 81 80.5t53.5 75t29.5 55t9 20.5h165v-726l-18 11q-46 28 -93 47t-94.5 31t-94 18.5t-90.5 9.5l-69 108q-1 0 24.5 10t67 25t95 32t107.5 30v158q60 70 97 146q1 1 1 3q0 7 -7 7q-4 0 -5 -4q-23 -42 -53 -88t-68 -81l-20 -19
q-29 -28 -57.5 -51t-60.5 -39h-163zM530 -141q0 4 -3 6q-56 42 -112 65v53q-25 -8 -51.5 -16.5t-54.5 -18.5q51 -11 105 -33.5t103 -60.5q2 -2 6 -2q7 0 7 7z" />
    <glyph glyph-name="d_bho_bn" horiz-adv-x="807" 
d="M67 133v438h-77v51h827v-51h-586v-297q48 39 80.5 80.5t53 75t30 55t9.5 20.5h164v-242q34 -25 34 -63q0 -31 -18 -48t-44 -17t-40.5 14t-14.5 31q0 7 3 15l-3 -1q-5 -10 -5 -20q0 -8 4 -17.5t13 -18t22.5 -14t31.5 -5.5q32 0 68 25t71 87l4 -3t10 -8t12.5 -12.5
t10.5 -14.5q33 -63 33 -119q0 -51 -20 -90.5t-54 -67.5t-79 -42.5t-95 -14.5q-63 0 -127 28t-118 96l77 207q14 -63 37.5 -103.5t50.5 -64t55.5 -32t52.5 -8.5q35 0 57.5 12.5t36.5 30.5q58 21 95 61v1q2 2 2 4q0 3 -2 6t-5 3q-1 0 -9.5 -7t-20.5 -16.5t-25 -19t-23 -13.5
q-24 -11 -47.5 -15.5t-45.5 -4.5q-31 0 -58.5 10t-48 28.5t-32.5 44t-12 56.5v13t2 13v70q61 73 98 146h-1q1 1 1 3q0 7 -7 7q-5 0 -6 -4q-21 -42 -52.5 -88t-68.5 -81l-19 -19q-29 -29 -59 -51t-59 -39h-164z" />
    <glyph glyph-name="d_bh_ro_bn" horiz-adv-x="824" 
d="M67 133v438h-77v51h844v-51h-603v-297q48 39 80.5 80.5t53 75t30 55t9.5 20.5h165v-239q20 -12 31.5 -30.5t11.5 -41.5q0 -31 -20 -49t-46 -18q-29 0 -44 15.5t-15 32.5q0 7 3 15l-2 -1q-6 -11 -6 -22q0 -8 4.5 -18t14.5 -19t24 -15t34 -6q32 0 70 26.5t76 92.5l4 -3
t10 -8.5t12.5 -13t11.5 -16.5q34 -67 34 -128q0 -26 -5.5 -49t-15.5 -44v-160l-14 9q-62 37 -129 53t-144 16q-96 0 -180 -22l43 93q-1 -1 29.5 4t78.5 5q38 0 83 -6t90 -23v2q47 -18 91 -49q1 -1 4 -1q7 0 7 7t-13.5 16t-31 17t-34 15t-23.5 9v48q65 19 112 57q2 2 2 5
q0 7 -7 7q-2 0 -4 -2q-42 -35 -103 -51v1q-14 -3 -27.5 -5t-26.5 -2q-33 0 -62 10.5t-50.5 30t-34.5 46.5t-13 59q0 9 1 18.5t4 20.5v65q60 70 97 146q1 1 1 3q0 7 -7 7q-5 0 -6 -4q-21 -43 -52.5 -88t-67.5 -81l-19 -19q-29 -29 -59.5 -51t-59.5 -39h-164z" />
    <glyph glyph-name="d_mo_bn" horiz-adv-x="955" 
d="M67 133v438h-77v51h975v-51h-77v-775l-167 89v35q-6 25 -23.5 51t-43 47.5t-57.5 35.5t-68 14q-48 0 -67.5 -14t-19.5 -25q0 -5 1 -7.5t1 -3.5q11 11 32 18t44 7q15 0 34 -5t36.5 -16t29.5 -29t12 -45q0 -19 -11 -36t-30.5 -30.5t-46 -21.5t-57.5 -8q-20 0 -37 3.5
t-35 26.5q-8 9 -18 19.5t-25 21.5t-36.5 21.5t-51.5 19.5l45 128q13 25 74 52v115q59 71 99 146q1 1 1 3q0 7 -9 7q-5 0 -6 -4q-20 -42 -52.5 -88.5t-68.5 -80.5l-18 -19q-57 -56 -118 -90h-164zM231 571v-297q47 39 79.5 80.5t53 75t30 55t9.5 20.5h164v-335
q84 -6 147 -39.5t115 -95.5q1 -3 6 -3q2 0 5 2t3 5q0 1 -2 3q-53 67 -120 101v428h-490z" />
    <glyph glyph-name="d_ro_bn" horiz-adv-x="634" 
d="M67 133v438h-77v51h654v-51h-414v-297q47 39 80 80.5t53.5 75t29.5 55t9 20.5h165v-670l-17 14q-70 52 -145.5 75.5t-163.5 23.5q-110 0 -210 -33l51 133l8.5 1.5t25 4t39 4.5t49.5 2q34 0 71 -4.5t75 -16.5t77 -33t79 -55q2 -2 5 -2q7 0 7 7q0 3 -2 5q-57 49 -114 74
v224q61 71 99 146q1 1 1 3q0 7 -8 7q-2 0 -13 -16.5t-25.5 -38.5t-29.5 -44.5t-24 -33.5q-8 -11 -17 -21t-18 -19l-19 -19q-29 -29 -59 -51t-59 -39h-163z" />
    <glyph glyph-name="d_ro_alt_bn" horiz-adv-x="634" 
d="M402 259q61 71 99 146q1 1 1 3q0 7 -8 7q-2 0 -13 -16.5t-25.5 -38.5t-29.5 -44.5t-24 -33.5q-8 -11 -17 -21t-18 -19l-19 -19q-29 -29 -59 -51t-59 -39h-163v438h-77v51h654v-51h-414v-297q63 54 101 107t55 89q0 1 1 2l4 8l10 23q0 1 1 1l165 1v-665l-25 17
q-68 54 -174.5 86t-242.5 32q-164 0 -384 -53l48 130l53 11q51 11 106 15.5t113 4.5q27 0 61 -1t74 -6.5t86.5 -16t99.5 -29.5q59 -22 117 -74l4 -1q7 0 7 7q0 3 -2 5q-54 47 -106 69v223z" />
    <glyph glyph-name="d_r_ukar_bn" horiz-adv-x="898" 
d="M908 622v-51h-678v-297q63 54 101 107t55 89q0 1 1 2l4 8l10 23q0 1 1 1l165 1v-97q8 -24 22 -47t31.5 -42t38.5 -30.5t42 -11.5q9 0 21.5 3.5t23.5 10t18.5 17t7.5 24.5q0 6 -1.5 10t-1.5 7l-1 2q-7 -18 -23.5 -30t-37.5 -12q-9 0 -23 5t-27.5 16t-23 28t-9.5 41
q0 37 27.5 63t69.5 31q10 0 19.5 -8.5t24 -19.5t36 -21.5t57.5 -14.5l5 -124q-2 -16 -17 -37t-39.5 -40t-57.5 -32.5t-70 -13.5q-64 0 -112 33v-380l-17 14q-70 52 -145.5 75.5t-163.5 23.5q-110 0 -210 -33l52 133l45 8q14 2 31 3.5t37 1.5q33 0 70.5 -4t77 -16t80.5 -33.5
t82 -56.5q2 -2 5 -2q7 0 7 7q0 3 -2 5q-57 49 -114 74v224q61 71 99 146q1 1 1 3q0 7 -8 7q-2 0 -13 -16.5t-25.5 -38.5t-29.5 -44.5t-24 -33.5q-8 -11 -17 -21t-18 -19l-19 -19q-29 -29 -59 -51t-59 -39h-163v438h-77v51h918z" />
    <glyph glyph-name="d_r_ookar_bn" horiz-adv-x="869" 
d="M879 622v-51h-649v-297q63 54 101 107t55 89q0 1 1 2l4 8l10 23q0 1 1 1l165 1v-116q22 8 44 14t45 11l166 1v-413l-166 106v199q8 3 25.5 7.5t35 9.5t30.5 9.5t13 7.5q0 7 -8 7h-1q-49 -12 -94 -26t-90 -31v-456l-17 14q-70 52 -145.5 75.5t-163.5 23.5q-110 0 -210 -33
l52 133l45 8q14 2 31 3.5t37 1.5q33 0 70.5 -4t77 -16t80.5 -33.5t82 -56.5q2 -2 5 -2q7 0 7 7q0 3 -2 5q-57 49 -114 74v224q61 71 99 146q1 1 1 3q0 7 -8 7q-2 0 -13 -16.5t-25.5 -38.5t-29.5 -44.5t-24 -33.5q-8 -11 -17 -21t-18 -19l-19 -19q-29 -29 -59 -51t-59 -39
h-163v438h-77v51h889z" />
    <glyph glyph-name="dh_no_bn" horiz-adv-x="684" 
d="M694 622v-51h-77v-823l-163 90v33q-4 13 -12 26t-20 23.5t-27 17t-32 6.5q-13 0 -18 -4t-6 -4q12 -2 24 -7.5t22.5 -15.5t17 -22.5t6.5 -27.5q0 -11 -6 -25.5t-17.5 -28t-29 -22.5t-40.5 -9q-36 0 -64.5 17.5t-47.5 54.5q-1 2 -1.5 4t-0.5 5q0 7 4 15.5t9.5 19.5t9.5 25
t4 32q0 23 -7 50l129 40q10 2 19 2q48 0 97 -30t83 -88q1 -3 6 -3q7 0 7 7q0 2 -1 3q-43 75 -108 106v34q-67 27 -144 43.5t-178 29.5l-85 163q15 10 33 21q16 10 38 23.5t49 30.5q77 -44 153 -47q7 0 7 7t-7 7q-42 1 -84 15.5t-75 41.5t-53.5 67t-20.5 94q4 44 22 80t35 49
l127 70q19 -26 37 -38.5t34 -18t29.5 -8t23 -7.5t15 -17t5.5 -37q0 -24 -10 -44.5t-26 -35t-36.5 -23t-41.5 -8.5q-45 0 -63.5 19.5t-18.5 43.5q0 26 18 49q0 -1 -7 -2t-15.5 -7t-15.5 -19t-7 -37q0 -44 31 -65.5t76 -21.5q39 0 80.5 18t78.5 47v89l159 32v-54h77zM562 80
q7 0 7 8q0 3 -2 5q-55 47 -109 78v187q-51 -29 -101.5 -60.5t-101.5 -63.5q34 -8 72 -20.5t77 -31t78 -43.5t75 -57q2 -2 5 -2z" />
    <glyph glyph-name="dh_mo_bn" horiz-adv-x="930" 
d="M296 397q7 0 7 6q0 7 -7 7q-36 1 -73.5 11.5t-68 31.5t-50 53.5t-19.5 77.5q3 36 19.5 65t32.5 39l114 57q27 -32 50.5 -40.5t41.5 -12t28.5 -11.5t10.5 -39q0 -19 -9 -35t-23.5 -28t-33 -18.5t-37.5 -6.5q-41 0 -57.5 15.5t-16.5 35.5q0 22 15 39q-1 0 -7 -1t-13 -6
t-13 -15.5t-6 -29.5q0 -34 27 -53t69 -19q36 0 72.5 15.5t71.5 38.5v76l144 25v-53h375v-51h-77v-783l-166 89v35q-6 25 -23.5 51t-43 47.5t-57 35.5t-67.5 14q-50 0 -69 -15t-19 -27q0 -4 1 -6q0 -2 1 -3q12 11 32.5 18t43.5 7q15 0 34.5 -5t36.5 -16t29 -29t12 -44
q0 -19 -11 -36t-30.5 -30.5t-46 -21.5t-56.5 -8q-24 0 -39.5 5t-34.5 25q-13 18 -41 40.5t-89 41.5l45 128q10 18 51.5 40.5t104.5 33.5q3 1 8 1h3q-33 18 -67.5 30t-71.5 20.5t-78 15t-89 12.5l-41 6l-78 133l108 57q71 -35 140 -36h1zM697 571h-132v-411q75 -9 133.5 -43
t106.5 -92h1q2 -2 5 -2q7 0 7 7q0 3 -1 4q-55 66 -120 100v437zM421 415q-46 -23 -91.5 -48.5t-92.5 -51.5q63 -12 134 -42t140 -81q2 -2 4 -2q7 0 7 7q0 1 -2 5q-25 19 -49.5 35t-49.5 29v149z" />
    <glyph glyph-name="dh_ro_bn" horiz-adv-x="685" 
d="M321 336q7 0 7 7t-7 7q-44 1 -85.5 15.5t-73.5 41.5t-52 67t-20 94q1 22 7 42.5t13.5 37.5t16.5 30t18 19l127 70q22 -29 44.5 -42t41 -18t31.5 -7.5t16 -11.5q5 -13 8 -24.5t3 -23.5q0 -24 -10 -44t-26 -34.5t-36.5 -23t-41.5 -8.5q-45 0 -63 19.5t-18 43.5q0 28 16 49
l-7 -1.5t-15 -8t-14.5 -19.5t-6.5 -35q0 -44 31 -66t76 -22q40 0 80 18t78 47v89l159 32v-54h77v-51h-77v-712l-16 11q-69 41 -144 59t-162 18q-53 0 -101.5 -6.5t-96.5 -18.5l47 104q1 -1 35 4t86 5q69 0 144.5 -17.5t149.5 -68.5q1 -1 4 -1q7 0 7 7q0 3 -3 5l1 1h-1
q-56 38 -109 57v53q-67 29 -145.5 45t-181.5 29l-85 163q16 10 34 21q16 10 38 23.5t48 30.5q77 -44 153 -47h1zM459 358q-51 -29 -101.5 -60.5t-102.5 -63.5q70 -17 149.5 -52t153.5 -101q1 -1 5 -1q7 0 7 8q0 3 -2 5q-57 47 -109 78v187z" />
    <glyph glyph-name="n_jo_bn" horiz-adv-x="1011" 
d="M773 88v297q10 1 26.5 4.5t32 7.5t26.5 8.5t11 9.5q0 7 -7 7q-1 0 -2 -1q-71 -26 -155 -27q-120 8 -187 82l-23 -33q-28 -54 -36 -104q11 -3 20.5 -4t19.5 -1q21 0 40 4.5t32.5 9.5t21.5 9l8 4l124 -51v1q3 -18 5 -35t2 -34q0 -54 -21 -99.5t-59.5 -78.5t-92.5 -51.5
t-119 -18.5q-76 0 -156 33.5t-147 110.5l115 173q24 -47 51 -77.5t55 -48t57 -24.5t57 -7q45 0 74.5 22.5t40.5 51.5q8 2 21 5.5t26 7.5t22 8t9 7q0 7 -7 7h-3q-35 -14 -76 -22.5t-83 -8.5q-37 0 -71 8l-1 1q-5 0 -24.5 9.5t-42 26.5t-41 40.5t-21.5 52.5q-8 29 -33 51
t-60 22q-17 0 -22.5 -6t-6.5 -5q12 0 25.5 -5t25 -14.5t18.5 -22.5t7 -29q0 -13 -6.5 -28.5t-19 -28.5t-30.5 -21.5t-40 -8.5q-65 0 -103 59q-3 4 -3 10q0 14 8.5 31t8.5 44q0 28 -13 64l123 54q6 2 15 3t20 1q49 0 94 -25t78 -71q1 -3 6 -3q7 0 7 7t-7.5 16.5t-18 19
t-20.5 17.5l-15 12q13 20 23.5 35t20.5 23h-387v51h1031v-51h-420q5 -28 17 -45.5t28.5 -27.5t35.5 -14t38 -4q16 0 30 2t25 4l24 6l145 43v-554z" />
    <glyph glyph-name="n_ttho_bn" horiz-adv-x="671" 
d="M450 873l-19 -14t-42 -38.5t-42.5 -57t-19.5 -68.5q0 -18 6 -36.5t21 -36.5h327v-51h-273l63 -54q40 -34 68.5 -64.5t47.5 -62t28 -66t9 -76.5q0 -50 -21 -93t-58 -74.5t-88 -49.5t-112 -18q-53 0 -110 16.5t-116 54.5l26 185l54 7q12 2 31.5 8t38.5 15t34.5 21.5
t20.5 28.5l-65 9v6q0 14 -5 29t-14.5 27.5t-24 20.5t-32.5 8q-11 0 -15.5 -3t-3.5 -3q20 -3 38 -20t18 -40q0 -9 -5 -21t-15 -23t-24.5 -18.5t-33.5 -7.5q-31 0 -55.5 16.5t-38.5 46.5q-1 2 -1 7q0 7 4 14t9 17t9 22.5t4 29.5t-4 36l110 28q3 1 11 1q22 0 57 -13q1 -1 2 -1
q57 -27 90 -93q1 -4 6 -4q6 0 6 7q0 2 -1 3q-27 57 -73 87l26 39q0 1 10.5 -11t26 -30.5t31.5 -41.5t27 -45q12 -26 17 -50t5 -46q0 -46 -21 -82t-56 -60q-41 9 -84 45q-2 2 -5 2q-7 0 -7 -7q0 -3 2 -5v-1q19 -16 38 -26.5t39 -17.5v-1q22 -6 42 -6q30 0 53.5 9.5t39.5 25
t24.5 34.5t8.5 38q0 34 -14 69.5t-33 64.5q1 -1 -11.5 14t-31 36.5t-39.5 45t-38 39.5l-24 22h-313v51h264q-28 31 -48 69.5t-20 75.5q0 48 41 101z" />
    <glyph glyph-name="n_ddo_bn" horiz-adv-x="722" 
d="M732 571h-306v-199q26 13 42.5 27t25.5 26t12.5 19l3.5 7l125 -34q40 -80 40 -151q0 -62 -24.5 -111t-66.5 -83.5t-98 -52.5t-120 -18q-72 0 -146 29.5t-140 100.5l119 162q23 -41 48.5 -68t51.5 -43t53.5 -22t54.5 -6q34 0 59.5 12t43 30.5t26 41t8.5 43.5q0 11 -1 16
q7 5 18 14t21.5 18t18 18t7.5 14q0 7 -6 7q-3 0 -12 -8t-20 -18.5l-22 -21t-18 -16.5l-4 -3l-18 -13q0 -2 -1.5 -2t-2.5 -1q-51 -33 -105 -45l-133 85v36q-4 31 -25.5 56t-58.5 25q-15 0 -21 -5.5t-6 -4.5q11 0 23 -4.5t21.5 -12.5t16 -19t6.5 -25q0 -12 -5.5 -25.5
t-16.5 -25t-27 -19t-36 -7.5q-56 0 -88 51q-2 3 -2 9q0 11 6.5 26t6.5 40q0 11 -2 25t-8 31l106 47q10 3 27 3q45 0 84.5 -21t68.5 -63q3 -3 6 -3q7 0 7 7q0 3 -1 4q-35 48 -82 71v50h-276v51h742v-51z" />
    <glyph glyph-name="n_dd_ro_bn" horiz-adv-x="722" 
d="M-10 571v51h742v-51h-305v-191q25 13 41.5 26.5t26 25t13 18l3.5 6.5l123 -33v1q41 -77 41 -144q0 -36 -10 -68.5t-27.5 -60t-41 -49t-50.5 -36.5l77 -30v-233l-15 13q-69 47 -143 68t-158 21q-104 0 -197 -30l47 121q0 -1 33 4.5t84 5.5q67 0 140.5 -20t150.5 -79
q1 -1 5 -1q7 0 7 7q0 3 -3 5q-55 43 -108 65v52q-45 -13 -96 -13q-79 0 -150 29t-140 98l120 156q23 -39 47.5 -65.5t50 -42t52 -22t53.5 -6.5q34 0 60.5 11t44.5 28.5t27 39.5t9 43v8.5t-1 8.5q7 5 18 14t21.5 18t18.5 17t8 13q0 7 -7 7q-4 0 -5 -3q-18 -19 -40.5 -38.5
t-48 -36t-53 -28.5t-56.5 -17l-58 34l-75 47v26q-4 30 -25.5 55.5t-58.5 25.5q-14 0 -20.5 -5.5t-6.5 -4.5q24 0 45.5 -16.5t21.5 -43.5q0 -13 -5.5 -26.5t-16.5 -25t-27 -19t-36 -7.5q-56 0 -88 51q-2 3 -2 10q0 11 6.5 26.5t6.5 39.5q0 26 -11 55l107 47q5 2 12 3t15 1
q17 0 45 -5l1 -1q63 -18 108 -79q1 -3 4 -3q7 0 7 7q0 3 -1 4q-34 49 -81 71v50h-276z" />
    <glyph glyph-name="n_to_bn" horiz-adv-x="733" 
d="M-10 571v51h753v-51h-285v-224h76q77 -40 114.5 -96.5t37.5 -118.5q0 -33 -10 -61t-22.5 -47.5t-23 -31l-10.5 -11.5q-35 -38 -94.5 -61.5t-134.5 -23.5q-62 0 -113.5 15.5t-91.5 37.5t-68 46t-43 40l112 201q18 -54 42.5 -91t53 -59.5t59.5 -32t61 -9.5q36 0 65.5 10.5
t50 27.5t31.5 37.5t11 41.5q0 35 -15.5 54t-33.5 30q-22 11 -49 16l6.5 -6t14 -17.5t14 -26.5t6.5 -33q0 -14 -7 -30.5t-20.5 -30.5t-32.5 -24t-43 -10t-45.5 8t-38.5 21.5t-27 30.5t-10 35q0 16 7 31q14 30 23 53t11 39l-26 15v32q-3 13 -11 26t-19.5 23t-26 16.5
t-31.5 6.5q-11 0 -19 -4q-4 -2 -6 -4q12 -1 24.5 -7t22.5 -15t16.5 -21.5t6.5 -27.5q0 -11 -6 -25t-18 -27.5t-29.5 -22.5t-40.5 -9q-72 0 -109 71q-2 6 -2 8q0 7 4 15t9 19t9 25t4 32q0 11 -1.5 23t-5.5 26l127 40q10 2 19 2q49 0 97 -29.5t81 -86.5q1 -4 6 -4q7 0 7 7
q0 2 -1 3h1q-42 73 -108 105v58h-305z" />
    <glyph glyph-name="n_t_bo_bn" horiz-adv-x="733" 
d="M-10 571v51h753v-51h-286v-215h76q76 -35 114.5 -86.5t38.5 -109.5q0 -30 -10.5 -54.5t-22.5 -42.5t-22.5 -28t-10.5 -9q-11 -10 -23 -18.5t-26 -16.5v-275l-14 10q-75 45 -155.5 63t-152.5 24l-57 89q18 7 39 15q18 7 43 16t55 20q-48 7 -89 22t-73.5 32t-56 34.5
t-36.5 31.5l113 183q19 -48 42.5 -81.5t51.5 -54.5t59.5 -30t66.5 -9q38 0 66.5 10.5t47.5 27t28.5 35.5t9.5 36q0 31 -15 48.5t-33.5 26.5t-33.5 12l-15 3q11 -10 20 -22q8 -11 14.5 -24.5t6.5 -29.5q0 -12 -7 -27t-20.5 -27.5t-33 -21t-43.5 -8.5q-23 0 -44.5 7t-38.5 19
t-27.5 27.5t-10.5 32.5q0 13 7 26q29 53 35 82l-26 13v30q-7 26 -30 48.5t-57 22.5q-14 0 -19.5 -4.5t-5.5 -3.5q11 -1 23.5 -6.5t22.5 -14.5t16.5 -21t6.5 -26q0 -10 -6 -24t-18 -26.5t-29.5 -21.5t-40.5 -9q-72 0 -109 67q-2 4 -2 8q0 7 4 14.5t9 18t9 24t4 31.5
q0 22 -7 47l128 38q10 2 18 2q50 0 98 -29t80 -83q3 -3 6 -3q8 0 8 7q0 2 -1 3q-41 69 -108 101v54h-304zM534 -227q7 0 7 7t-12.5 16t-28.5 18t-32 16t-22 10v44l-88 -28q46 -11 88 -31t84 -50q2 -2 4 -2z" />
    <glyph glyph-name="n_t_ro_bn" horiz-adv-x="768" 
d="M-10 571v51h788v-51h-320v-164h33q66 0 100 -10q33 -10 57 -28t40 -37t24 -35t9 -22l1 -414l-17 13q-72 47 -153.5 68t-178.5 21q-113 0 -206 -28l91 174l19.5 -1t53 -5.5t76.5 -14.5t90 -28q85 -33 168 -100q1 -1 4 -1q6 0 6 7q0 3 -2 5q-49 42 -103 71v193l-2 23
q0 2 -5.5 13t-16 23.5t-25 22.5t-31.5 10q-11 0 -19 -2.5t-13 -5.5l-11 -7l-15 -10q24 -6 44.5 -24.5t20.5 -42.5q0 -16 -10 -32t-28 -29t-42.5 -21.5t-52.5 -8.5q-11 0 -26 3t-29 8.5t-24 14.5t-10 21q0 11 4.5 24.5t4.5 31.5q0 14 -3.5 29t-11.5 35l26 22v24
q-4 13 -12 25.5t-19 22.5t-25.5 16.5t-30.5 6.5q-14 0 -21 -4.5t-6 -3.5q25 -2 47.5 -20.5t22.5 -47.5q0 -11 -6 -24.5t-18 -26.5t-29.5 -21.5t-40.5 -8.5q-71 0 -108 67q-2 4 -2 8q0 7 4 14.5t9 18t9 24t4 31.5q0 22 -7 47l127 38q10 2 18 2q49 0 98 -29t81 -83q1 -3 6 -3
q7 0 7 7v3q-41 69 -108 101v54h-305z" />
    <glyph glyph-name="n_tho_bn" horiz-adv-x="712" 
d="M296 517v54h-306v51h732v-51h-265l1 -220q19 0 42.5 -7.5t47 -19t43 -24.5t30.5 -25q23 -26 33.5 -54t10.5 -55q0 -30 -12 -58t-33 -52t-51 -41.5t-66 -26.5q-30 -6 -61.5 -9.5t-65.5 -4.5q-7 -2 -7 -7q0 -7 8 -7q30 1 59 3.5t58 7.5l199 -87l-105 -92l-404 192l-1 1l6 9
l64 137q42 -23 79 -31.5t68 -8.5q63 0 101.5 25t38.5 64q0 15 -7.5 31.5t-23.5 32.5q-8 8 -19 12.5t-20.5 7.5t-16 4l-6.5 1l-7 -8q12 -17 12 -34q0 -18 -9.5 -33.5t-24 -26t-32.5 -16.5t-34 -6q-41 0 -70.5 22.5t-34.5 65.5q1 9 7 17t13.5 19.5t15.5 29t13 44.5v14
q-4 13 -12 25.5t-19.5 22.5t-26.5 16.5t-31 6.5q-14 0 -19 -4.5t-6 -3.5q12 -1 24 -6.5t22.5 -14.5t17 -21t6.5 -26q0 -11 -6 -24.5t-18 -26.5t-29.5 -21.5t-40.5 -8.5q-72 0 -109 67q-2 4 -2 8q0 7 4 14.5t9.5 18t9.5 24t4 31.5q0 22 -7 47l127 38q10 2 18 2q48 0 97 -28.5
t83 -83.5q1 -3 5 -3q7 0 7 7q0 2 -1 3q-41 69 -107 101z" />
    <glyph glyph-name="n_dho_bn" horiz-adv-x="786" 
d="M319 517v54h-329v51h806v-51h-315v-233q25 7 48.5 13t46.5 11h163v-441l-163 103v195q10 3 29.5 9t39 11.5t34 10.5t14.5 7q0 8 -7 8q-1 0 -2 -1q-54 -11 -104.5 -27.5t-101.5 -35.5v-294l-17 12q-45 28 -92 47t-93.5 31t-92.5 18t-89 9l-68 106q-2 -1 22 12.5t66 35.5
t97.5 49.5t117.5 53.5v42l-10 4v30q-3 12 -11 25t-19.5 23t-25.5 16.5t-30 6.5q-14 0 -21 -4.5t-6 -3.5q12 -1 24.5 -6.5t22 -14.5t16 -21t6.5 -26q0 -11 -6 -25t-17.5 -26.5t-29 -21t-40.5 -8.5q-72 0 -110 67q-2 4 -2 8q0 7 4 14.5t9.5 18t9.5 24t4 31.5q0 22 -7 47
l128 38q10 2 18 2q50 0 98 -29t81 -83q1 -3 6 -3q7 0 7 7q0 2 -1 3q-41 69 -108 101zM441 -14q0 3 -3 5q-53 40 -109 64v88q-36 -16 -69 -31.5t-64 -31.5q60 -12 117.5 -35t116.5 -65q2 -2 4 -2q7 0 7 8z" />
    <glyph glyph-name="n_dh_ro_bn" horiz-adv-x="784" 
d="M319 517v54h-329v51h804v-51h-314v-233q46 13 95 24h162v-441l-162 103v195q10 3 29 8.5t38.5 11.5t34 11t14.5 7q0 8 -7 8q-1 0 -2 -1q-53 -12 -104 -28t-102 -35v-399l-13 10q-55 38 -114 54.5t-128 16.5q-42 0 -81 -5.5t-77 -17.5l38 97q-1 -1 26 4t68 5
q54 0 112.5 -16t120.5 -64q2 -2 5 -2q7 0 7 7q0 6 -12 15t-27 18t-29.5 16t-20.5 10v23q-67 24 -132.5 35t-126.5 16l-66 106q-2 -2 21.5 11.5t65 35.5t97 49.5t118.5 54.5v42l-9 4v30q-8 26 -31 48.5t-57 22.5q-14 0 -20.5 -4.5t-6.5 -3.5q25 -2 47.5 -20.5t22.5 -47.5
q0 -11 -6 -24.5t-18 -26.5t-29.5 -21.5t-40.5 -8.5q-72 0 -109 67q-2 6 -2 8q0 7 4 14.5t9 18t9 24t4 31.5q0 22 -7 47l128 38q5 1 9.5 1.5t9.5 0.5q49 0 96.5 -29t81.5 -83q1 -3 6 -3q7 0 7 7q0 2 -1 3q-41 69 -106 101zM439 -14q0 3 -3 5q-52 39 -108 64v88
q-36 -16 -69.5 -31.5t-64.5 -31.5q57 -12 115.5 -34.5t118.5 -65.5q2 -2 4 -2q7 0 7 8z" />
    <glyph glyph-name="n_no_bn" horiz-adv-x="628" 
d="M638 622v-51h-77v-764l-160 93v65q-4 13 -12 26.5t-19 24t-25.5 17t-31.5 6.5q-8 0 -12.5 -1.5t-7.5 -3.5q-4 -2 -6 -4q12 -1 24.5 -6.5t22.5 -15t16.5 -22t6.5 -27.5q0 -12 -6.5 -26.5t-18.5 -27.5t-29.5 -22t-39.5 -9q-73 0 -108 71q-2 6 -2 10q0 7 4 15t8.5 19t8.5 25
t4 32q0 11 -1 22t-5 25l127 40q10 2 19 2q23 0 48 -7.5t48.5 -22t44.5 -36t37 -49.5q3 -4 7 -4q7 0 7 7q0 3 -1 4q-44 72 -108 103v106l-1 -1q-6 37 -21.5 65.5t-36.5 48t-45.5 29t-48.5 9.5q-17 0 -34 -6t-31.5 -16t-23.5 -23t-9 -28q0 -14 4 -14q8 18 28 32t46 14
q10 0 24.5 -5t28.5 -16.5t24 -29.5t10 -44q0 -40 -31.5 -72.5t-83.5 -39.5q-13 0 -23.5 9.5t-26 22t-39.5 24t-64 15.5v138q2 17 16 43.5t41 51.5t66.5 43t92.5 18q26 0 52.5 -5.5t52.5 -17.5q1 0 2 -1q80 -37 130 -135q1 -4 6 -4q7 0 7 7q0 2 -1 3q-44 88 -111 128v92h-411
v51h648z" />
    <glyph glyph-name="n_bo_bn" horiz-adv-x="630" 
d="M563 -175l-16 12q-92 56 -187 77.5t-182 27.5l-67 106q-2 -1 21 11.5t62.5 33.5t93 47.5t113.5 52.5v43l-1 -1q-6 37 -21.5 65.5t-36.5 48t-45.5 29t-48.5 9.5q-17 0 -34.5 -6.5t-32 -17t-23.5 -23.5t-9 -27q0 -13 4 -13q8 18 29 32t47 14q10 0 25 -5.5t28.5 -16.5
t23.5 -29.5t10 -43.5q0 -42 -32 -73.5t-84 -38.5q-13 0 -23.5 9.5t-26 22t-39.5 24t-64 15.5v138q1 17 15.5 43.5t42 51.5t67.5 43t92 18q26 0 52 -5.5t52 -17.5q1 0 2 -1q81 -38 130 -135q1 -4 6 -4q7 0 7 7v3q-43 87 -112 128v92h-411v51h650v-51h-78v-329zM519 -104
q7 0 7 7q0 4 -3 6q-57 41 -110 63v88q-36 -15 -69 -30t-63 -31q55 -12 115 -35.5t119 -65.5q2 -2 4 -2z" />
    <glyph glyph-name="n_mo_bn" horiz-adv-x="934" 
d="M-10 571v51h954v-51h-77v-736l-165 89v44q-5 28 -22.5 57.5t-43 53.5t-58 39.5t-67.5 15.5q-25 0 -41.5 -5.5t-26 -13t-13.5 -15.5t-4 -13q0 -6 1 -8q0 -2 1 -3q11 13 31.5 20.5t43.5 7.5q15 0 34.5 -5.5t36.5 -18t28.5 -32.5t11.5 -49q0 -20 -10.5 -39.5t-29 -34.5
t-44.5 -24.5t-56 -9.5q-22 0 -40.5 4.5t-33.5 30.5q-12 20 -41.5 45t-86.5 47l43 142q15 30 87 63v13l-1 -1q-6 37 -21 65.5t-36 48t-45.5 29t-49.5 9.5q-17 0 -34.5 -6t-31.5 -16.5t-23.5 -23.5t-9.5 -28q0 -8 1 -10t2 -3q8 18 28.5 32t45.5 14q10 0 25 -5t29.5 -16.5
t25 -29.5t10.5 -44q0 -42 -32 -73.5t-84 -38.5q-12 0 -23 9.5t-26.5 22t-40 24t-64.5 15.5v138q2 18 17 45t42.5 51.5t67 42t91.5 17.5q26 0 52 -5.5t52 -17.5q1 0 2 -1q79 -37 130 -135q1 -4 5 -4q7 0 7 7q0 2 -1 3q-42 87 -110 128v92h-412zM702 571h-139l1 -324
q77 -9 138 -49v1q60 -38 106 -104q1 -3 6 -3q7 0 7 7q0 3 -1 4q-52 72 -118 112v356z" />
    <glyph glyph-name="n_ro_bn" horiz-adv-x="663" 
d="M595 673v-51h78v-51h-78v-761l-16 14q-69 51 -144.5 74t-163.5 23q-105 0 -203 -32l48 132q-1 0 8 1.5t25 4t38.5 4.5t49.5 2q34 0 70.5 -5t74 -17t76 -33t77.5 -54q1 -1 5 -1q7 0 7 7q0 3 -2 5q-56 47 -112 72v200q-8 38 -25 66.5t-39.5 48t-49 29.5t-51.5 10
q-20 0 -39 -7t-34.5 -18.5t-25 -26t-9.5 -29.5q0 -8 1.5 -12t1.5 -3q8 20 31 35.5t51 15.5q12 0 28.5 -6t32 -18.5t26.5 -33t11 -48.5q0 -21 -9.5 -43t-27 -39.5t-41.5 -28.5t-53 -11q-11 0 -22 10.5t-28.5 24t-44.5 26t-70 17.5v153q2 16 16.5 45t44 57t75 48.5t108.5 20.5
q37 0 73.5 -11t69.5 -33t62 -54.5t50 -75.5q1 -4 6 -4q7 0 7 7v3q-50 96 -126 141v108h-443v51h443v21z" />
    <glyph glyph-name="n_so_bn" horiz-adv-x="788" 
d="M280 495q-27 45 -69 76h-221v51h146l-30 18l55 33q51 -23 108 -51h529v-51h-77v-590l-161 101v82q-46 63 -87 76q-30 -115 -143 -192l-218 113q84 30 128 67.5t60 79.5q-1 16 -7.5 32t-18.5 29t-29 21.5t-39 8.5q-14 0 -20.5 -4.5t-7.5 -4.5q13 0 26 -5t23 -14t16.5 -21
t6.5 -26q0 -11 -6 -25.5t-17.5 -27.5t-29 -21.5t-40.5 -8.5q-70 0 -108 63q-1 2 -1.5 4t-0.5 5q0 7 3.5 14.5t8 17t8 21.5t3.5 28q0 21 -9 53l125 43q5 2 10.5 2h12.5q51 0 97.5 -26.5t81.5 -77.5q1 -3 6 -3q7 0 7 7q0 1 -2 3v1q-48 72 -119 99zM560 571h-208q29 -19 52 -47
t39.5 -59.5t26 -64t11.5 -60.5q46 -10 96 -41t90 -88q1 -4 5 -4q7 0 7 7q0 3 -1 4q-51 74 -118 108v245z" />
    <glyph glyph-name="p_tto_bn" horiz-adv-x="980" 
d="M26 314q30 28 50.5 62.5t20.5 69.5q0 42 -37 80t-129 63l38 40q38 -10 70.5 -23t60.5 -29l-13 33q12 3 27.5 5.5t32 4.5t32 3t27.5 1q10 0 30 -1t46.5 -6.5t56.5 -16.5t62 -30v1q56 -38 95 -114q1 -4 6 -4q7 0 7 7q0 2 -1 3q-44 87 -107 125v55l161 31v-52h150
q7 8 13.5 21t6.5 29q0 21 -13 36.5t-34 25t-47 14t-52 4.5q-28 0 -54.5 -3t-47.5 -7t-33.5 -6.5l-12.5 -2.5l-37 43q-1 0 25 6.5t65.5 14.5t85.5 15t85 7q77 0 130.5 -13.5t87 -35.5t48.5 -50t15 -57q0 -6 -0.5 -11.5t-1.5 -11.5l-155 -18h204v-51h-428v-362q-43 6 -86 24
h-3q-7 0 -7 -7q0 -5 14.5 -10.5t33.5 -10.5t37.5 -8.5t26.5 -4.5l30 -4q6 0 12.5 -0.5t12.5 -0.5q54 0 96 13.5t72 53.5q11 15 11 32q0 12 -3.5 20t-2.5 8q-8 -18 -29.5 -27.5t-47.5 -9.5q-20 0 -38.5 6t-33.5 18t-24 30.5t-9 44.5q0 52 37.5 88t113.5 36q13 -2 24 -14.5
t27.5 -27.5t41.5 -29.5t65 -21.5v-135q-6 -41 -34.5 -82t-76.5 -74t-115 -53.5t-149 -20.5q1 0 -14 1.5t-37.5 5.5t-49.5 12t-50 20l-6 6v300l-168 -97q-14 -30 -34 -51zM351 475q-52 49 -115 49q-27 0 -55 -9q49 -50 62 -103z" />
    <glyph glyph-name="p_to_bn" horiz-adv-x="756" 
d="M26 314q29 28 49.5 63t20.5 70q0 42 -37 80t-129 62l38 40q38 -10 70.5 -23t60.5 -29l-14 33q27 8 61.5 11t60.5 3q15 0 50 -3t77.5 -18.5t85.5 -49.5t73 -96q3 -4 7 -4q7 0 7 7q0 2 -1 3q-44 87 -107 125v55l161 32v-53h206v-51h-206v-207h17q66 -35 99 -84t33 -101
q0 -27 -9 -51t-19.5 -42t-19.5 -28l-9 -10q-31 -32 -83.5 -52.5t-115.5 -20.5q-53 0 -97 13.5t-78.5 32.5t-59 39.5t-37.5 34.5l97 173q34 -93 82 -129.5t107 -36.5q31 0 55.5 9.5t42 23.5t26.5 31.5t9 34.5q0 30 -13 47.5t-28.5 26.5t-29 12l-13.5 3l5 -5.5t12 -15.5
t12.5 -23t5.5 -28q0 -11 -6 -25t-17 -26.5t-27.5 -21t-38.5 -8.5q-19 0 -37.5 7t-33.5 18.5t-24 26t-9 30.5q0 13 6 25q21 42 27.5 67t6.5 38q0 8 -1 11t-1 4h3v23l-167 -97q-14 -30 -35 -51zM350 475q-52 49 -115 49q-28 0 -56 -9q50 -50 63 -103z" />
    <glyph glyph-name="p_t_ro_bn" horiz-adv-x="851" 
d="M803 256v-413l-16 12q-71 47 -152 68.5t-178 21.5q-111 0 -209 -29l93 175q2 2 41 -0.5t98 -17.5t130 -46t136 -85q2 -2 5 -2q7 0 7 7q0 4 -3 6q-48 40 -101 69v193l-3 24q-1 3 -6 14t-15 23.5t-25 22.5t-34 10q-3 0 -6 -0.5t-5 -0.5l-16 -5q-4 -2 -6.5 -3t-4.5 -3
q-3 -2 -4 -3l-15 -10q25 -8 45 -25.5t20 -40.5q0 -15 -9.5 -31.5t-27 -30t-41.5 -22t-54 -8.5q-11 0 -26.5 3t-29.5 9t-23.5 15t-9.5 21q0 10 5 23.5t5 31.5q0 13 -3.5 28.5t-13.5 34.5l49 40v55l-168 -97q-14 -30 -35 -51l-171 75q29 28 49.5 62.5t20.5 70.5q0 21 -8.5 41
t-28 38.5t-51.5 34.5t-78 28l38 40q38 -10 70.5 -23t60.5 -29l-13 33q12 3 27 5.5t31.5 4.5t32 3t27.5 1q15 0 50.5 -2.5t78 -18t86 -49.5t75.5 -97q1 -4 6 -4q7 0 7 7q0 2 -1 3q-44 87 -106 125v55l160 32v-53h301v-51h-301v-180q75 0 114 -11q33 -10 57 -28.5t39.5 -38
t23.5 -36t9 -21.5zM242 412l108 63q-52 49 -115 49q-28 0 -56 -9q50 -50 63 -103z" />
    <glyph glyph-name="p_no_bn" horiz-adv-x="628" 
d="M561 -109l-161 93v66q-8 27 -32 50t-57 23q-14 0 -19.5 -5t-5.5 -4q12 -2 24.5 -7.5t22 -15t16 -21.5t6.5 -27q0 -11 -5.5 -25.5t-17 -27.5t-28.5 -22.5t-40 -9.5q-74 0 -111 71q-2 6 -2 8q0 7 4 15.5t9 19.5t9 24.5t4 31.5q0 23 -7 50l127 39q4 1 15 1q50 0 99 -27.5
t84 -86.5q1 -4 6 -4q7 0 7 8q0 1 -1 2q-41 72 -107 104v173l-167 -97q-14 -30 -34 -51l-173 75q29 28 49.5 63t20.5 70q0 21 -8.5 41.5t-28 38.5t-51 34t-77.5 28l38 40q38 -10 70.5 -23t59.5 -29l-13 33q12 3 27.5 5.5t32 4.5t32 3t27.5 1q14 0 48.5 -2t77.5 -17.5
t87 -49.5t77 -98q1 -4 6 -4q7 0 7 7v3q-44 86 -108 125v55l161 32v-53h77v-51h-77v-680zM243 412l107 63q-50 49 -113 49q-28 0 -56 -9q49 -50 62 -103z" />
    <glyph glyph-name="p_po_bn" horiz-adv-x="627" 
d="M254 -103l-129 61q22 23 37 51t15 57q0 34 -27.5 64t-97.5 50l29 33q58 -17 98 -42l-10 26q21 6 47 9t44 3q13 0 42.5 -3t67.5 -20q1 -1 2 -1q62 -27 103 -111q3 -4 7 -4q7 0 7 7q0 2 -1 3q-34 73 -89 105v202l-166 -97q-14 -30 -35 -51l-172 75q29 28 49.5 62.5
t20.5 70.5q0 21 -8.5 41t-28 38.5t-51 34.5t-77.5 28l37 40q38 -10 70.5 -23t60.5 -29l-14 33q27 8 62 11t61 3q15 0 50 -3t77.5 -19t85.5 -50t73 -95q1 -4 7 -4q7 0 7 7q0 2 -1 3q-44 86 -108 125v55l161 32v-53h77v-51h-77v-730l-161 103v68l-120 -74q-5 -11 -11 -21.5
t-14 -19.5zM242 412l108 63q-52 49 -115 49q-27 0 -55 -9q48 -48 62 -103zM369 89q-41 39 -89 39q-19 0 -40 -6q37 -41 47 -84z" />
    <glyph glyph-name="p_ro_bn" horiz-adv-x="627" 
d="M560 675v-53h70v-51h-70v-616l-16 13q-71 52 -147.5 75t-165.5 23q-102 0 -198 -32l49 131q-1 0 8 1.5t24.5 4t38 4.5t48.5 2q33 0 69.5 -4.5t74.5 -16.5t77 -33t78 -54q2 -2 5 -2q7 0 7 7q0 2 -2 6q-54 45 -110 70v237l-168 -97q-14 -30 -35 -51l-171 75
q29 28 49.5 62.5t20.5 69.5q0 42 -37 80t-129 63l38 40q38 -10 70.5 -23t60.5 -29l-14 33q27 8 61.5 11t60.5 3q14 0 49 -2.5t77.5 -18.5t85.5 -49.5t74 -96.5q3 -4 7 -4q7 0 7 7q0 2 -1 3q-44 87 -106 125v55zM241 412l109 63q-52 49 -115 49q-28 0 -56 -9q48 -48 62 -103z
" />
    <glyph glyph-name="p_ro_alt_bn" horiz-adv-x="627" 
d="M241 412l109 63q-52 49 -115 49q-28 0 -56 -9q48 -48 62 -103zM400 387l-168 -97q-14 -30 -35 -51l-171 75q29 28 49.5 62.5t20.5 69.5q0 42 -37 80t-129 63l38 40q38 -10 70.5 -23t60.5 -29l-14 33q27 8 61.5 11t60.5 3q14 0 49 -2.5t77.5 -18.5t85.5 -49.5t74 -96.5
q3 -4 7 -4q7 0 7 7q0 2 -1 3q-44 87 -106 125v55l160 32v-53h70v-51h-70v-615l-16 13q-67 54 -173.5 86t-242.5 32q-165 0 -385 -53l49 130l52 11q38 7 95 13t127 6q50 0 107 -4t114.5 -17.5t112.5 -38.5t101 -66q1 -1 4 -1q7 0 7 7q0 3 -2 5q-27 23 -54.5 40.5t-55.5 30.5
v237z" />
    <glyph glyph-name="p_lo_bn" horiz-adv-x="627" 
d="M399 643l161 32v-53h77v-51h-77v-667l-162 70v25q-21 14 -38 14q-15 0 -24.5 -9.5t-14.5 -21t-6.5 -21.5l-1.5 -10l-102 27q0 22 -4 44.5t-14 40t-27 28.5t-43 11q-9 0 -19.5 -3.5t-20 -9.5t-16 -14.5t-6.5 -18.5q0 -5 1 -8.5t1 -2.5q5 13 18.5 22t30.5 9q7 0 18 -3.5
t21 -11.5t17 -21t7 -31q0 -30 -22.5 -53t-58.5 -26q-9 0 -15.5 7t-17 16.5t-27 18t-44.5 11.5v99q3 15 16.5 33t34.5 33.5t48.5 25.5t57.5 10q50 0 88.5 -26t58.5 -67q32 35 74 35q17 0 30 -4v1q40 -10 72 -53q1 -3 6 -3q7 0 7 7q0 3 -1 4q-37 48 -84 59l1 75v175l-167 -97
q-14 -30 -35 -51l-171 75q29 28 49 62.5t20 70.5q0 21 -8.5 41t-28 38.5t-51 34.5t-77.5 28l38 40q38 -10 70.5 -23t59.5 -29l-13 33q12 3 27.5 5.5t32 4.5t32 3t27.5 1q15 0 50.5 -2.5t78.5 -18.5t86.5 -49.5t74.5 -96.5q1 -4 6 -4q7 0 7 7q0 2 -1 3q-44 87 -107 125v55z
M242 412l108 63q-52 49 -115 49q-28 0 -56 -9q50 -50 63 -103z" />
    <glyph glyph-name="p_so_bn" horiz-adv-x="899" 
d="M272 675q26 -11 52.5 -24.5t54.5 -28.5h530v-51h-77v-590l-160 103v80q-45 62 -88 75q-30 -115 -142 -191l-218 114q58 19 97 41.5t62.5 46.5t33.5 50.5t10 53.5l-16 -10l-162 -93q-10 -21 -28 -41l-142 62q24 23 41 51t17 57q0 35 -30 65.5t-107 50.5l32 34
q63 -19 108 -43l-11 26q22 6 51 9t49 3q12 0 45.5 -3t75.5 -20q0 -1 1 -1q67 -27 113 -112q1 -4 6 -4q7 0 7 7q0 2 -1 3q-38 73 -93 104q-24 43 -60 72h-333v51h258q-5 3 -10.5 6t-10.5 7l-9 6zM257 352l87 51q-41 41 -92 41q-20 0 -46 -8q39 -39 51 -84zM672 571h-208
q61 -46 92 -108.5t36 -122.5q48 -12 97 -41.5t90 -88.5q2 -2 5 -2q7 0 7 6q0 2 -2 4q-50 73 -117 108v245z" />
    <glyph glyph-name="ph_tto_bn" horiz-adv-x="967" 
d="M-10 571v51h86q-11 5 -21 9.5t-21 9.5l39 41q65 -26 125 -60h507q10 15 10 32q0 20 -11.5 35.5t-30.5 26t-44 15.5t-53 5t-55 -3t-48 -7t-34 -6.5l-13 -2.5l-37 42q7 2 35.5 8.5t66.5 14t79.5 13.5t76.5 8q75 -2 128 -15.5t86 -35t48 -49t15 -55.5q0 -6 -0.5 -11.5
t-1.5 -11.5l-32 -3h87v-51h-703q60 -45 97 -98.5t37 -113.5h-1l1 -2q-40 -24 -83.5 -49t-83.5 -49q34 -10 72 -24t77 -33.5t79 -45.5t78 -59q2 -2 4 -2q7 0 7 7q0 3 -2 5q-26 23 -52.5 42t-52.5 35l1 298q68 38 144 38q60 0 106.5 -14t78 -36t49.5 -50t21 -55v-63
q-39 -6 -61 -14.5t-35.5 -15.5t-22.5 -12t-22 -5q-37 0 -59.5 17.5t-22.5 59.5q0 30 21 45.5t45 15.5q16 0 29 -6.5t20 -19.5v3q0 2 0.5 3.5t0.5 3.5q0 12 -10.5 21t-25 14t-29 7.5t-22.5 2.5q-25 0 -44 -8l-8 -2v-360q-42 4 -87 18h-2q-7 0 -7 -7q0 -5 14 -9.5t32 -8
t36 -5.5t26 -3l18 -2q6 0 12 -0.5t12 -0.5q22 0 48.5 3.5t49.5 12t39 21.5t16 31q0 13 -3.5 16.5t-1.5 1.5q-6 -11 -24.5 -17.5t-41.5 -6.5q-17 0 -33.5 3.5t-29.5 11.5t-21.5 20.5t-8.5 29.5q0 32 32.5 52.5t100.5 20.5q11 -1 21 -7t24.5 -14t36.5 -16.5t57 -13.5v-91
q-6 -28 -31.5 -55.5t-67.5 -49.5t-100 -36t-130 -15l-13 1t-33 4t-43.5 8t-43.5 13l-7 2v126q-67 33 -144 52.5t-178 33.5l-82 159q-1 0 17 10.5t47 28t65.5 38t74.5 40.5q-34 72 -93 119h-168z" />
    <glyph glyph-name="ph_ro_bn" horiz-adv-x="911" 
d="M251 451q-35 73 -93 120h-168v51h87l-45 21l39 42q66 -27 129 -63h721v-51h-646q61 -45 97.5 -98t36.5 -114h-1l1 -2l-71 -42q-25 -15 -49 -28.5t-47 -27.5q34 -10 72.5 -24.5t78.5 -34t79 -45.5t75 -58q2 -2 4 -2q8 0 8 7q0 3 -3 5q-26 23 -52 42t-53 35v298
q68 38 146 38q61 0 108 -14.5t80 -37t53 -50t26 -53.5v-141q-32 -5 -53.5 -16t-37 -22.5t-26.5 -20t-20 -8.5q-53 7 -72.5 30.5t-19.5 61.5q0 27 7.5 47t18.5 33t25 19.5t26 6.5q17 0 31.5 -9t21.5 -25q0 -1 1.5 3.5t1.5 12.5q0 19 -11.5 33t-28 23.5t-34.5 14.5t-32 5
q-29 0 -56 -12l1 -298v-238l-17 13q-70 54 -147.5 76t-165.5 22q-107 0 -203 -31l50 131q0 -1 34.5 5.5t87.5 6.5q34 0 70 -4.5t74 -16.5t77.5 -33t78.5 -55q1 -1 4 -1q7 0 7 7q0 3 -2 5q-56 48 -111 72v32q-123 56 -314 82l-83 159q-1 -1 17 10t47 28t65.5 38t74.5 40z" />
    </font>
</defs>
</svg>
